<?xml version="1.0" standalone="no"?>
<!DOCTYPE svg PUBLIC "-//W3C//DTD SVG 1.1//EN" "http://www.w3.org/Graphics/SVG/1.1/DTD/svg11.dtd" >
<svg>
<metadata>
Created by FontForge 20090914 at Thu Oct 26 14:56:24 2017
 By www-data
</metadata>
<defs>
<font id="Futura-Bold" horiz-adv-x="0" >
  <font-face 
    font-family="Futura"
    font-weight="700"
    font-stretch="normal"
    units-per-em="2048"
    panose-1="2 2 8 0 0 0 0 0 0 0"
    ascent="1638"
    descent="-410"
    x-height="1010"
    cap-height="1464"
    bbox="-1157 -485 2669 2228"
    underline-thickness="272"
    underline-position="-97"
    unicode-range="U+0020-U+F02A"
  />
<missing-glyph horiz-adv-x="1536" 
d="M256 0v1280h1024v-1280h-1024zM1247 33v1214h-958v-1214h958z" />
    <glyph glyph-name=".notdef" horiz-adv-x="1536" 
d="M256 0v1280h1024v-1280h-1024zM1247 33v1214h-958v-1214h958z" />
    <glyph glyph-name="space" unicode=" " horiz-adv-x="641" 
 />
    <glyph glyph-name="space" unicode="&#x2031;" horiz-adv-x="641" 
 />
    <glyph glyph-name="space" unicode="&#x2025;" horiz-adv-x="641" 
 />
    <glyph glyph-name="space" unicode="&#x2024;" horiz-adv-x="641" 
 />
    <glyph glyph-name="space" unicode="&#x2023;" horiz-adv-x="641" 
 />
    <glyph glyph-name="space" unicode="&#x201f;" horiz-adv-x="641" 
 />
    <glyph glyph-name="space" unicode="&#x201b;" horiz-adv-x="641" 
 />
    <glyph glyph-name="space" unicode="&#x2017;" horiz-adv-x="641" 
 />
    <glyph glyph-name="space" unicode="&#x2016;" horiz-adv-x="641" 
 />
    <glyph glyph-name="space" unicode="&#x2015;" horiz-adv-x="641" 
 />
    <glyph glyph-name="exclam" unicode="!" horiz-adv-x="702" 
d="M166 487v1045h371v-1045h-371zM150 164c0 56 19.666 103.667 58.999 143c38 40 85 60 141 60c58.667 0 107.334 -19.333 146.001 -58c38 -38 57 -86.333 57 -145c0 -55.333 -19.667 -103.333 -59 -144c-40.667 -39.333 -88.667 -59 -144 -59
c-53.333 0 -100.333 19.667 -141 59c-39.333 39.333 -59 87.333 -59 144z" />
    <glyph glyph-name="quotedbl" unicode="&#x22;" horiz-adv-x="713" 
d="M416 1438h223v-561h-223v561zM76 1438h219v-561h-219v561z" />
    <glyph glyph-name="numbersign" unicode="#" horiz-adv-x="1575" 
d="M707 842l-82 -232h245l82 232h-245zM684 1466h250l-139 -393h235l141 393h250l-139 -393h270l-86 -231h-268l-80 -230h277l-84 -231h-275l-141 -393h-250l139 393h-235l-141 -393h-250l139 393h-274l86 231h270l82 230h-283l86 231h279z" />
    <glyph glyph-name="dollar" unicode="$" horiz-adv-x="1280" 
d="M238 475c57.333 -67.333 116 -116.999 176 -148.999c59.333 -33.333 119.333 -50 180 -50c49.333 0 91 14.333 125 43c32.667 28.667 49 65 49 109c0 46.667 -13.667 83.667 -41 111c-31.333 26 -94.666 51.667 -189.999 77c-150 41.333 -255.333 92.666 -316 153.999
c-60 62 -90 146.667 -90 254c0 133.333 41.667 240.666 125 321.999c86 82.667 202 131 348 145v139h129v-137c64.667 -6.66699 122 -20.334 172 -41.001c54 -19.333 109.333 -48 166 -86l-127 -285c-46 40 -91.667 68.667 -137 86c-48 19.333 -95.667 29 -143 29
c-48.667 0 -87 -11 -115 -33c-30 -21.333 -45 -50.666 -45 -87.999c0 -36.667 13 -66 39 -88c25.333 -21.333 76.333 -42.333 153 -63c-0.666992 0 3.66602 -1.33301 12.999 -4c163.333 -43.333 271 -92 323 -146c35.333 -35.333 62 -78.333 80 -129s27 -106 27 -166
c0 -139.333 -41.667 -254.666 -125 -345.999c-84 -90 -196.667 -142.667 -338 -158v-243h-129v239c-96 2 -182.667 20 -260 54c-79.333 34 -156 86.333 -230 157z" />
    <glyph glyph-name="percent" unicode="%" horiz-adv-x="1851" 
d="M426 825c45.333 0 77.333 20 96 60c20.667 38.667 31 102 31 190c0 90 -10.333 154.333 -31 193c-17.333 38 -49.333 57 -96 57s-78.667 -19 -96 -57c-20.667 -38.667 -31 -103 -31 -193c0 -88 10.333 -151.333 31 -190c18.667 -40 50.667 -60 96 -60zM803 1075
c0 -122.667 -34.332 -220.333 -102.999 -293c-67.333 -73.333 -158.666 -110 -273.999 -110c-114.667 0 -206 36 -274 108c-68.667 74.667 -103 173 -103 295s34.333 220.333 103 295c67.333 72.667 158.666 109 273.999 109s206.666 -36.333 273.999 -109
c68.667 -74.667 103 -173 103 -295zM1444 115.001c46 0 78 19.667 96 59c20.667 38.667 31 103 31 193c0 88 -10.333 151.333 -31 190c-18 39.333 -50 59 -96 59s-78 -19.667 -96 -59c-20.667 -38.667 -31 -102 -31 -190c0 -90 10.333 -154.333 31 -193
c18 -39.333 50 -59 96 -59zM1819 367.001c0 -124.667 -34.333 -223 -103 -295c-66.667 -74 -157.334 -111 -272.001 -111c-115.333 0 -207 37 -275 111c-68 72 -102 170.333 -102 295c0 123.333 34 221.666 102 294.999c68.667 72 160.334 108 275.001 108s206 -36 274 -108
c67.333 -71.333 101 -169.666 101 -294.999zM393.001 -38.999l879 1518h188l-885 -1518h-182z" />
    <glyph glyph-name="percent" unicode="&#x202f;" horiz-adv-x="1851" 
d="M426 825c45.333 0 77.333 20 96 60c20.667 38.667 31 102 31 190c0 90 -10.333 154.333 -31 193c-17.333 38 -49.333 57 -96 57s-78.667 -19 -96 -57c-20.667 -38.667 -31 -103 -31 -193c0 -88 10.333 -151.333 31 -190c18.667 -40 50.667 -60 96 -60zM803 1075
c0 -122.667 -34.332 -220.333 -102.999 -293c-67.333 -73.333 -158.666 -110 -273.999 -110c-114.667 0 -206 36 -274 108c-68.667 74.667 -103 173 -103 295s34.333 220.333 103 295c67.333 72.667 158.666 109 273.999 109s206.666 -36.333 273.999 -109
c68.667 -74.667 103 -173 103 -295zM1444 115.001c46 0 78 19.667 96 59c20.667 38.667 31 103 31 193c0 88 -10.333 151.333 -31 190c-18 39.333 -50 59 -96 59s-78 -19.667 -96 -59c-20.667 -38.667 -31 -102 -31 -190c0 -90 10.333 -154.333 31 -193
c18 -39.333 50 -59 96 -59zM1819 367.001c0 -124.667 -34.333 -223 -103 -295c-66.667 -74 -157.334 -111 -272.001 -111c-115.333 0 -207 37 -275 111c-68 72 -102 170.333 -102 295c0 123.333 34 221.666 102 294.999c68.667 72 160.334 108 275.001 108s206 -36 274 -108
c67.333 -71.333 101 -169.666 101 -294.999zM393.001 -38.999l879 1518h188l-885 -1518h-182z" />
    <glyph glyph-name="percent" unicode="&#x202e;" horiz-adv-x="1851" 
d="M426 825c45.333 0 77.333 20 96 60c20.667 38.667 31 102 31 190c0 90 -10.333 154.333 -31 193c-17.333 38 -49.333 57 -96 57s-78.667 -19 -96 -57c-20.667 -38.667 -31 -103 -31 -193c0 -88 10.333 -151.333 31 -190c18.667 -40 50.667 -60 96 -60zM803 1075
c0 -122.667 -34.332 -220.333 -102.999 -293c-67.333 -73.333 -158.666 -110 -273.999 -110c-114.667 0 -206 36 -274 108c-68.667 74.667 -103 173 -103 295s34.333 220.333 103 295c67.333 72.667 158.666 109 273.999 109s206.666 -36.333 273.999 -109
c68.667 -74.667 103 -173 103 -295zM1444 115.001c46 0 78 19.667 96 59c20.667 38.667 31 103 31 193c0 88 -10.333 151.333 -31 190c-18 39.333 -50 59 -96 59s-78 -19.667 -96 -59c-20.667 -38.667 -31 -102 -31 -190c0 -90 10.333 -154.333 31 -193
c18 -39.333 50 -59 96 -59zM1819 367.001c0 -124.667 -34.333 -223 -103 -295c-66.667 -74 -157.334 -111 -272.001 -111c-115.333 0 -207 37 -275 111c-68 72 -102 170.333 -102 295c0 123.333 34 221.666 102 294.999c68.667 72 160.334 108 275.001 108s206 -36 274 -108
c67.333 -71.333 101 -169.666 101 -294.999zM393.001 -38.999l879 1518h188l-885 -1518h-182z" />
    <glyph glyph-name="percent" unicode="&#x202d;" horiz-adv-x="1851" 
d="M426 825c45.333 0 77.333 20 96 60c20.667 38.667 31 102 31 190c0 90 -10.333 154.333 -31 193c-17.333 38 -49.333 57 -96 57s-78.667 -19 -96 -57c-20.667 -38.667 -31 -103 -31 -193c0 -88 10.333 -151.333 31 -190c18.667 -40 50.667 -60 96 -60zM803 1075
c0 -122.667 -34.332 -220.333 -102.999 -293c-67.333 -73.333 -158.666 -110 -273.999 -110c-114.667 0 -206 36 -274 108c-68.667 74.667 -103 173 -103 295s34.333 220.333 103 295c67.333 72.667 158.666 109 273.999 109s206.666 -36.333 273.999 -109
c68.667 -74.667 103 -173 103 -295zM1444 115.001c46 0 78 19.667 96 59c20.667 38.667 31 103 31 193c0 88 -10.333 151.333 -31 190c-18 39.333 -50 59 -96 59s-78 -19.667 -96 -59c-20.667 -38.667 -31 -102 -31 -190c0 -90 10.333 -154.333 31 -193
c18 -39.333 50 -59 96 -59zM1819 367.001c0 -124.667 -34.333 -223 -103 -295c-66.667 -74 -157.334 -111 -272.001 -111c-115.333 0 -207 37 -275 111c-68 72 -102 170.333 -102 295c0 123.333 34 221.666 102 294.999c68.667 72 160.334 108 275.001 108s206 -36 274 -108
c67.333 -71.333 101 -169.666 101 -294.999zM393.001 -38.999l879 1518h188l-885 -1518h-182z" />
    <glyph glyph-name="percent" unicode="&#x202c;" horiz-adv-x="1851" 
d="M426 825c45.333 0 77.333 20 96 60c20.667 38.667 31 102 31 190c0 90 -10.333 154.333 -31 193c-17.333 38 -49.333 57 -96 57s-78.667 -19 -96 -57c-20.667 -38.667 -31 -103 -31 -193c0 -88 10.333 -151.333 31 -190c18.667 -40 50.667 -60 96 -60zM803 1075
c0 -122.667 -34.332 -220.333 -102.999 -293c-67.333 -73.333 -158.666 -110 -273.999 -110c-114.667 0 -206 36 -274 108c-68.667 74.667 -103 173 -103 295s34.333 220.333 103 295c67.333 72.667 158.666 109 273.999 109s206.666 -36.333 273.999 -109
c68.667 -74.667 103 -173 103 -295zM1444 115.001c46 0 78 19.667 96 59c20.667 38.667 31 103 31 193c0 88 -10.333 151.333 -31 190c-18 39.333 -50 59 -96 59s-78 -19.667 -96 -59c-20.667 -38.667 -31 -102 -31 -190c0 -90 10.333 -154.333 31 -193
c18 -39.333 50 -59 96 -59zM1819 367.001c0 -124.667 -34.333 -223 -103 -295c-66.667 -74 -157.334 -111 -272.001 -111c-115.333 0 -207 37 -275 111c-68 72 -102 170.333 -102 295c0 123.333 34 221.666 102 294.999c68.667 72 160.334 108 275.001 108s206 -36 274 -108
c67.333 -71.333 101 -169.666 101 -294.999zM393.001 -38.999l879 1518h188l-885 -1518h-182z" />
    <glyph glyph-name="percent" unicode="&#x202b;" horiz-adv-x="1851" 
d="M426 825c45.333 0 77.333 20 96 60c20.667 38.667 31 102 31 190c0 90 -10.333 154.333 -31 193c-17.333 38 -49.333 57 -96 57s-78.667 -19 -96 -57c-20.667 -38.667 -31 -103 -31 -193c0 -88 10.333 -151.333 31 -190c18.667 -40 50.667 -60 96 -60zM803 1075
c0 -122.667 -34.332 -220.333 -102.999 -293c-67.333 -73.333 -158.666 -110 -273.999 -110c-114.667 0 -206 36 -274 108c-68.667 74.667 -103 173 -103 295s34.333 220.333 103 295c67.333 72.667 158.666 109 273.999 109s206.666 -36.333 273.999 -109
c68.667 -74.667 103 -173 103 -295zM1444 115.001c46 0 78 19.667 96 59c20.667 38.667 31 103 31 193c0 88 -10.333 151.333 -31 190c-18 39.333 -50 59 -96 59s-78 -19.667 -96 -59c-20.667 -38.667 -31 -102 -31 -190c0 -90 10.333 -154.333 31 -193
c18 -39.333 50 -59 96 -59zM1819 367.001c0 -124.667 -34.333 -223 -103 -295c-66.667 -74 -157.334 -111 -272.001 -111c-115.333 0 -207 37 -275 111c-68 72 -102 170.333 -102 295c0 123.333 34 221.666 102 294.999c68.667 72 160.334 108 275.001 108s206 -36 274 -108
c67.333 -71.333 101 -169.666 101 -294.999zM393.001 -38.999l879 1518h188l-885 -1518h-182z" />
    <glyph glyph-name="percent" unicode="&#x202a;" horiz-adv-x="1851" 
d="M426 825c45.333 0 77.333 20 96 60c20.667 38.667 31 102 31 190c0 90 -10.333 154.333 -31 193c-17.333 38 -49.333 57 -96 57s-78.667 -19 -96 -57c-20.667 -38.667 -31 -103 -31 -193c0 -88 10.333 -151.333 31 -190c18.667 -40 50.667 -60 96 -60zM803 1075
c0 -122.667 -34.332 -220.333 -102.999 -293c-67.333 -73.333 -158.666 -110 -273.999 -110c-114.667 0 -206 36 -274 108c-68.667 74.667 -103 173 -103 295s34.333 220.333 103 295c67.333 72.667 158.666 109 273.999 109s206.666 -36.333 273.999 -109
c68.667 -74.667 103 -173 103 -295zM1444 115.001c46 0 78 19.667 96 59c20.667 38.667 31 103 31 193c0 88 -10.333 151.333 -31 190c-18 39.333 -50 59 -96 59s-78 -19.667 -96 -59c-20.667 -38.667 -31 -102 -31 -190c0 -90 10.333 -154.333 31 -193
c18 -39.333 50 -59 96 -59zM1819 367.001c0 -124.667 -34.333 -223 -103 -295c-66.667 -74 -157.334 -111 -272.001 -111c-115.333 0 -207 37 -275 111c-68 72 -102 170.333 -102 295c0 123.333 34 221.666 102 294.999c68.667 72 160.334 108 275.001 108s206 -36 274 -108
c67.333 -71.333 101 -169.666 101 -294.999zM393.001 -38.999l879 1518h188l-885 -1518h-182z" />
    <glyph glyph-name="percent" unicode="&#x2029;" horiz-adv-x="1851" 
d="M426 825c45.333 0 77.333 20 96 60c20.667 38.667 31 102 31 190c0 90 -10.333 154.333 -31 193c-17.333 38 -49.333 57 -96 57s-78.667 -19 -96 -57c-20.667 -38.667 -31 -103 -31 -193c0 -88 10.333 -151.333 31 -190c18.667 -40 50.667 -60 96 -60zM803 1075
c0 -122.667 -34.332 -220.333 -102.999 -293c-67.333 -73.333 -158.666 -110 -273.999 -110c-114.667 0 -206 36 -274 108c-68.667 74.667 -103 173 -103 295s34.333 220.333 103 295c67.333 72.667 158.666 109 273.999 109s206.666 -36.333 273.999 -109
c68.667 -74.667 103 -173 103 -295zM1444 115.001c46 0 78 19.667 96 59c20.667 38.667 31 103 31 193c0 88 -10.333 151.333 -31 190c-18 39.333 -50 59 -96 59s-78 -19.667 -96 -59c-20.667 -38.667 -31 -102 -31 -190c0 -90 10.333 -154.333 31 -193
c18 -39.333 50 -59 96 -59zM1819 367.001c0 -124.667 -34.333 -223 -103 -295c-66.667 -74 -157.334 -111 -272.001 -111c-115.333 0 -207 37 -275 111c-68 72 -102 170.333 -102 295c0 123.333 34 221.666 102 294.999c68.667 72 160.334 108 275.001 108s206 -36 274 -108
c67.333 -71.333 101 -169.666 101 -294.999zM393.001 -38.999l879 1518h188l-885 -1518h-182z" />
    <glyph glyph-name="percent" unicode="&#x2028;" horiz-adv-x="1851" 
d="M426 825c45.333 0 77.333 20 96 60c20.667 38.667 31 102 31 190c0 90 -10.333 154.333 -31 193c-17.333 38 -49.333 57 -96 57s-78.667 -19 -96 -57c-20.667 -38.667 -31 -103 -31 -193c0 -88 10.333 -151.333 31 -190c18.667 -40 50.667 -60 96 -60zM803 1075
c0 -122.667 -34.332 -220.333 -102.999 -293c-67.333 -73.333 -158.666 -110 -273.999 -110c-114.667 0 -206 36 -274 108c-68.667 74.667 -103 173 -103 295s34.333 220.333 103 295c67.333 72.667 158.666 109 273.999 109s206.666 -36.333 273.999 -109
c68.667 -74.667 103 -173 103 -295zM1444 115.001c46 0 78 19.667 96 59c20.667 38.667 31 103 31 193c0 88 -10.333 151.333 -31 190c-18 39.333 -50 59 -96 59s-78 -19.667 -96 -59c-20.667 -38.667 -31 -102 -31 -190c0 -90 10.333 -154.333 31 -193
c18 -39.333 50 -59 96 -59zM1819 367.001c0 -124.667 -34.333 -223 -103 -295c-66.667 -74 -157.334 -111 -272.001 -111c-115.333 0 -207 37 -275 111c-68 72 -102 170.333 -102 295c0 123.333 34 221.666 102 294.999c68.667 72 160.334 108 275.001 108s206 -36 274 -108
c67.333 -71.333 101 -169.666 101 -294.999zM393.001 -38.999l879 1518h188l-885 -1518h-182z" />
    <glyph glyph-name="percent" unicode="&#x2027;" horiz-adv-x="1851" 
d="M426 825c45.333 0 77.333 20 96 60c20.667 38.667 31 102 31 190c0 90 -10.333 154.333 -31 193c-17.333 38 -49.333 57 -96 57s-78.667 -19 -96 -57c-20.667 -38.667 -31 -103 -31 -193c0 -88 10.333 -151.333 31 -190c18.667 -40 50.667 -60 96 -60zM803 1075
c0 -122.667 -34.332 -220.333 -102.999 -293c-67.333 -73.333 -158.666 -110 -273.999 -110c-114.667 0 -206 36 -274 108c-68.667 74.667 -103 173 -103 295s34.333 220.333 103 295c67.333 72.667 158.666 109 273.999 109s206.666 -36.333 273.999 -109
c68.667 -74.667 103 -173 103 -295zM1444 115.001c46 0 78 19.667 96 59c20.667 38.667 31 103 31 193c0 88 -10.333 151.333 -31 190c-18 39.333 -50 59 -96 59s-78 -19.667 -96 -59c-20.667 -38.667 -31 -102 -31 -190c0 -90 10.333 -154.333 31 -193
c18 -39.333 50 -59 96 -59zM1819 367.001c0 -124.667 -34.333 -223 -103 -295c-66.667 -74 -157.334 -111 -272.001 -111c-115.333 0 -207 37 -275 111c-68 72 -102 170.333 -102 295c0 123.333 34 221.666 102 294.999c68.667 72 160.334 108 275.001 108s206 -36 274 -108
c67.333 -71.333 101 -169.666 101 -294.999zM393.001 -38.999l879 1518h188l-885 -1518h-182z" />
    <glyph glyph-name="ampersand" unicode="&#x26;" horiz-adv-x="1651" 
d="M1165 0l-128.998 150.002c-66.667 -64 -140.334 -112 -221.001 -144c-75.333 -30 -161.333 -45 -258 -45c-128.667 0 -234.334 38.333 -317.001 115c-83.333 75.333 -125 173 -125 293c0 94.667 27.333 175.667 82 243c52.667 71.333 138.667 137.666 258 198.999
c-44.667 50 -79 101.333 -103 154c-22 48.667 -33 97.667 -33 147c0 97.333 38.333 179.333 115 246c78.667 65.333 175.667 98 291 98c134 0 239 -32 315 -96c76.667 -66.667 115 -154.667 115 -264c0 -72 -20.333 -138.333 -61 -199
c-45.333 -62.667 -108.333 -119.334 -189 -170.001l172 -180c24 19.333 58.333 50 103 92c28 27.333 62 64.333 102 111l209 -215c-28 -34 -61.333 -72.333 -100 -115c-39.333 -39.333 -73 -70 -101 -92l318 -328h-443zM836.002 348.002l-236 257.999
c-46 -40 -79.333 -76.667 -100 -110c-22 -33.333 -33 -67 -33 -101c0 -43.333 15 -78.666 45 -105.999c28 -30 65 -45 111 -45c34 0 68 8.66699 102 26c34.667 16.667 71.667 42.667 111 78zM733.002 899.001l47.0029 38.998c32 26.667 57.333 54.667 76 84
c18 26.667 27 53.334 27 80.001c0 34 -11 62.667 -33 86c-24.667 22 -55.334 33 -92.001 33c-42.667 0 -75.834 -11.167 -99.501 -33.5s-35.5 -54.166 -35.5 -95.499c0 -15.333 5.33301 -35.333 16 -60c9.33301 -22 21.666 -43 36.999 -63z" />
    <glyph glyph-name="quotesingle" unicode="'" horiz-adv-x="371" 
d="M76 1438h219v-561h-219v561z" />
    <glyph glyph-name="parenleft" unicode="(" horiz-adv-x="743" 
d="M684 -317l-219.001 -152c-123.333 150 -214 305 -272 465c-59.333 160 -89 334 -89 522c0 190 29.667 364.667 89 524c58.667 161.333 149.334 316.333 272.001 465l227 -147c-99.333 -118.667 -172.333 -245 -219 -379c-46.667 -136 -70 -290.333 -70 -463
c0 -162 22.667 -312 68 -450c46.667 -138 117.667 -266.333 213 -385z" />
    <glyph glyph-name="parenright" unicode=")" horiz-adv-x="743" 
d="M61 -317c94 116.667 165 245 213 385c45.333 138 68 288 68 450c0 171.333 -23.5 325 -70.5 461s-120.5 263 -220.5 381l230 147c60 -72.667 113 -148.5 159 -227.5s83 -157.5 111 -235.5c58.667 -160 88 -335.333 88 -526c0 -188 -29.333 -362.667 -88 -524
c-28 -78 -64.5 -155.667 -109.5 -233s-98.5 -154 -160.5 -230z" />
    <glyph glyph-name="asterisk" unicode="*" horiz-adv-x="1067" 
d="M600 1208l205 160l100 -178l-239 -96l241 -99l-102 -176l-205 160l35 -258h-203l33 258l-203 -160l-102 176l243 99l-243 96l102 176l205 -158l-37 256h205z" />
    <glyph glyph-name="plus" unicode="+" horiz-adv-x="1706" 
d="M735 1221h238v-494h479v-231h-479v-496h-238v496h-481v231h481v494z" />
    <glyph glyph-name="comma" unicode="," horiz-adv-x="639" 
d="M240 332h372l-309 -627h-276z" />
    <glyph glyph-name="hyphen" unicode="-" horiz-adv-x="1706" 
d="M254 729h1198v-235h-1198v235z" />
    <glyph glyph-name="period" unicode="." horiz-adv-x="639" 
d="M119 164c0 57.333 19 105 57 143c38.667 38.667 86.334 58 143.001 58c58.667 0 107.334 -19.333 146.001 -58c38 -38 57 -85.667 57 -143c0 -58 -19 -106 -57 -144c-40.667 -39.333 -89.334 -59 -146.001 -59c-54.667 0 -102.334 19.667 -143.001 59
c-38 38 -57 86 -57 144z" />
    <glyph glyph-name="slash" unicode="/" horiz-adv-x="938" 
d="M0 -190l717 1687h221l-715 -1687h-223z" />
    <glyph glyph-name="zero" unicode="0" horiz-adv-x="1280" 
d="M1194 707c0 -231.333 -49 -413.67 -147 -547.003c-98.667 -132.667 -234 -199 -406 -199s-307 67.667 -405 203c-32 42.667 -59.667 92.834 -83 150.501s-40.333 119.834 -51 186.501s-16 140 -16 220c0 118.667 12.5 224.334 37.5 317.001s62.5 172.667 112.5 240
c98.667 134 233.667 201 405 201c174 0 310 -67 408 -201c96.667 -138 145 -328.333 145 -571zM455 720.996c0 -162.667 15 -279.335 45 -350.002c30 -74 77 -111 141 -111c62.667 0 109 37 139 111c30 70.667 45 187.334 45 350.001c0 160.667 -15 276.667 -45 348
c-30 75.333 -76.333 113 -139 113c-66 0 -113 -36.333 -141 -109c-30 -71.333 -45 -188.666 -45 -351.999z" />
    <glyph glyph-name="one" unicode="1" horiz-adv-x="1280" 
d="M492 0v1118h-314l172 332h506v-1450h-364z" />
    <glyph glyph-name="two" unicode="2" horiz-adv-x="1280" 
d="M1157 0l-1118 0.000976562l657 778c42.667 51.333 72 94.333 88 129c19.333 40 29 75.667 29 107c0 51.333 -15.667 93.666 -47 126.999c-34.667 31.333 -77.667 47 -129 47c-62.667 0 -110.334 -20 -143.001 -60c-34.667 -40.667 -52 -98.667 -52 -174v-18h-352v10
c0 164.667 48.667 295 146 391c95.333 96 227.666 144 396.999 144c164 0 294.333 -42.333 391 -127c98 -84 147 -196.667 147 -338c0 -67.333 -15.667 -134.333 -47 -201c-31.333 -66 -81.666 -137 -150.999 -213l-264 -291h448v-311z" />
    <glyph glyph-name="three" unicode="3" horiz-adv-x="1280" 
d="M84 485l371.003 0.000976562v-24c0 -65.333 15 -114 45 -146c30.667 -32.667 75 -49 133 -49c59.333 0 106.333 15.667 141 47c32.667 30.667 49 76.667 49 138c0 68 -17.667 117.667 -53 149s-90 47 -164 47h-26c-4.66699 -1.33301 -11 -2 -19 -2v236h21
c67.333 0 119 15 155 45c36 28.667 54 71 54 127c0 46 -15.333 82 -46 108c-29.333 28.667 -68 43 -116 43c-50.667 0 -89.667 -13.667 -117 -41c-28 -25.333 -43 -64 -45 -116h-354c2 135.333 49.667 241.666 143 318.999c91.333 75.333 221.666 113 390.999 113
c149.333 0 266.666 -33.667 351.999 -101c86 -66.667 129 -158.667 129 -276c0 -73.333 -19.667 -136.333 -59 -189c-40.667 -53.333 -98 -90.666 -172 -111.999c91.333 -16.667 162.333 -56.5 213 -119.5s76 -143.5 76 -241.5c0 -142.667 -50.667 -258 -152 -346
c-100.667 -88.667 -232.334 -133 -395.001 -133c-170.667 0 -306 45.667 -406 137c-99.333 91.333 -149 215.666 -149 372.999v14z" />
    <glyph glyph-name="four" unicode="4" horiz-adv-x="1280" 
d="M721 614l-0.000976562 426.001c0 31.333 1.33301 65 4 101c0 26.667 2 49 6 67c-13.333 -31.333 -27.666 -60 -42.999 -86c-4.66699 -8.66699 -23.667 -41.334 -57 -98.001l-269 -410h359zM720.999 0.000976562v328h-666v286l545 842h455v-842h162v-288l-162 2v-328h-334
z" />
    <glyph glyph-name="five" unicode="5" horiz-adv-x="1280" 
d="M1094 1450l-0.000976562 -299.001h-555l-29 -188c45.333 8.66699 75.333 14 90 16c41.333 2.66699 71.333 4 90 4c148 0 265.333 -44.333 352 -133c86 -88 129 -209 129 -363c0 -161.333 -53 -289.666 -159 -384.999c-108.667 -94 -255.667 -141 -441 -141
c-90.667 0 -173 10.333 -247 31c-76 18 -143.667 46.667 -203 86l26 354l31 -6c33.333 -52 81.333 -94.333 144 -127c59.333 -31.333 124 -47 194 -47c92.667 0 164.334 22.333 215.001 67c50.667 42.667 76 105 76 187c0 78 -27.333 141.333 -82 190
c-55.333 49.333 -126.333 74 -213 74c-58.667 0 -112 -9.66699 -160 -29c-42.667 -18 -85 -48 -127 -90l-49 29l121 770h797z" />
    <glyph glyph-name="six" unicode="6" horiz-adv-x="1280" 
d="M641 700c-68.667 0 -122.667 -19.667 -162 -59c-39.333 -41.333 -59 -96.666 -59 -165.999c0 -68 19.667 -122.667 59 -164c39.333 -39.333 93.333 -59 162 -59s122.667 19.667 162 59c39.333 41.333 59 96 59 164c0 69.333 -19.667 124.666 -59 165.999
c-39.333 39.333 -93.333 59 -162 59zM623 934c26.667 7.33301 50.998 12.666 72.998 15.999c24.667 4 51.334 6 80.001 6c126 0 228.333 -43.667 307 -131c82 -88 123 -198.333 123 -331c0 -161.333 -50.333 -290.666 -151 -387.999c-104 -96.667 -240.667 -145 -410 -145
c-170.667 0 -305.667 47.667 -405 143c-31.333 29.333 -58.666 64.5 -81.999 105.5s-40.5 84.5 -51.5 130.5s-16.5 96.667 -16.5 152c0 86.667 17 172.667 51 258c32.667 87.333 103 215 211 383l205 317h408z" />
    <glyph glyph-name="seven" unicode="7" horiz-adv-x="1280" 
d="M195 0l550 1122h-618v328h1118v-70l-637 -1380h-413z" />
    <glyph glyph-name="eight" unicode="8" horiz-adv-x="1280" 
d="M639 901c54.667 0 97 15 127 45c31.333 31.333 47 72.333 47 123c0 52 -15 93 -45 123c-30.667 28.667 -73.667 43 -129 43c-54 0 -96.333 -14.333 -127 -43c-30 -30 -45 -71 -45 -123c0 -50.667 15.667 -91.667 47 -123c30 -30 71.667 -45 125 -45zM639 254
c64.667 0 114.334 16.999 149.001 50.999c36 36 54 84 54 144c0 58 -18 105 -54 141c-34.667 34 -84.334 51 -149.001 51c-63.333 0 -112.333 -17 -147 -51c-36 -36 -54 -83 -54 -141c0 -59.333 18.667 -106.666 56 -141.999c34 -35.333 82.333 -53 145 -53zM897 781.999
c96.667 -18 170.332 -59.667 220.999 -125c53.333 -67.333 80 -152 80 -254c0 -138.667 -49.167 -247 -147.5 -325s-235.5 -117 -411.5 -117c-174 0 -310.667 39 -410 117c-98 78 -147 186.333 -147 325c0 102 26.667 186.667 80 254c50.667 65.333 124.334 107 221.001 125
c-76 18.667 -135.333 54.334 -178 107.001c-42.667 50.667 -64 115.334 -64 194.001c0 125.333 43.667 222.333 131 291c88 70 210.333 105 367 105c158 0 281 -35 369 -105c87.333 -68.667 131 -165.667 131 -291c0 -78.667 -21.333 -143.334 -64 -194.001
c-42.667 -52.667 -102 -88.334 -178 -107.001z" />
    <glyph glyph-name="nine" unicode="9" horiz-adv-x="1280" 
d="M651 741c68 0 121.833 19.835 161.5 59.502s59.5 94.5 59.5 164.5c0 69.333 -19.833 124.166 -59.5 164.499s-93.5 60.5 -161.5 60.5s-122 -20 -162 -60c-39.333 -41.333 -59 -96.333 -59 -165s19.667 -123.334 59 -164.001c40 -40 94 -60 162 -60zM670 508.002
c-29.333 -8 -53.3359 -13.335 -72.0029 -16.002c-25.333 -4.66699 -52.666 -7 -81.999 -7c-125.333 0 -227.666 43.667 -306.999 131c-82 86 -123 196 -123 330c0 163.333 50.667 293 152 389c100.667 97.333 236.334 146 407.001 146s306 -48 406 -144
c99.333 -95.333 149 -224.333 149 -387c0 -89.333 -19 -180.666 -57 -273.999c-17.333 -42.667 -43 -94.667 -77 -156s-76.667 -131.666 -128 -210.999l-203 -309h-407z" />
    <glyph glyph-name="colon" unicode=":" horiz-adv-x="702" 
d="M150 799c0 56 19.667 103.667 59 143c36 38 83 57 141 57c59.333 0 108 -19 146 -57s57 -85.667 57 -143c0 -55.333 -19.667 -103.333 -59 -144c-39.333 -39.333 -87.333 -59 -144 -59c-54.667 0 -101.667 19.667 -141 59s-59 87.333 -59 144zM150 164
c0 56 19.666 103.667 58.999 143c36.667 38.667 83.667 58 141 58c58.667 0 107.334 -19.333 146.001 -58c38 -38 57 -85.667 57 -143c0 -55.333 -19.667 -103.333 -59 -144c-40.667 -39.333 -88.667 -59 -144 -59c-53.333 0 -100.333 19.667 -141 59
c-39.333 39.333 -59 87.333 -59 144z" />
    <glyph glyph-name="semicolon" unicode=";" horiz-adv-x="702" 
d="M244 799c0 56 19.667 103.667 59 143c38 38 85.667 57 143 57c58 0 106 -19 144 -57s57 -85.667 57 -143c0 -58 -19 -106 -57 -144c-39.333 -39.333 -87.333 -59 -144 -59c-56 0 -103.667 19.667 -143 59s-59 87.333 -59 144zM266 332h373l-309 -627h-277z" />
    <glyph glyph-name="less" unicode="&#x3c;" horiz-adv-x="1706" 
d="M1442 1214v-253l-854 -351l854 -348v-254l-1178 486v233z" />
    <glyph glyph-name="equal" unicode="=" horiz-adv-x="1706" 
d="M254 502h1198v-230h-1198v230zM254 950h1198v-231h-1198v231z" />
    <glyph glyph-name="greater" unicode="&#x3e;" horiz-adv-x="1706" 
d="M264 1214l1178 -487v-233l-1178 -486v254l854 348l-854 351v253z" />
    <glyph glyph-name="question" unicode="?" horiz-adv-x="1239" 
d="M399 164c0 55.333 20.001 103 60.001 143s87.667 60 143 60c57.333 0 105 -19.333 143 -58c38.667 -38.667 58 -87 58 -145c0 -57.333 -19.5 -105.5 -58.5 -144.5s-86.5 -58.5 -142.5 -58.5c-54.667 0 -102.334 19.667 -143.001 59c-40 40 -60 88 -60 144zM786.001 496
l-343.999 0.000976562v413h109c75.333 0 132.666 15 171.999 45c38 30 57 74.333 57 133c0 46 -15 84.833 -45 116.5s-67.333 47.5 -112 47.5c-46 0 -82.333 -12.333 -109 -37c-28 -26.667 -43 -63.334 -45 -110.001h-342v4c0 128.667 46.167 232.167 138.5 310.5
s216.833 117.5 373.5 117.5c142 0 256 -41 342 -123s129 -189.667 129 -323c0 -110.667 -29.333 -201.667 -88 -273c-60 -70 -138 -106 -234 -108z" />
    <glyph glyph-name="at" unicode="@" horiz-adv-x="2048" 
d="M1161 262c-35.333 -52 -77.668 -92.3311 -127.001 -120.998c-48 -24.667 -104 -37 -168 -37c-110 0 -192.667 29.667 -248 89c-55.333 57.333 -83 142.666 -83 255.999c0 162 47.667 297 143 405c91.333 108 207.333 162 348 162c52 0 96.333 -10.333 133 -31
c37.333 -19.333 69.333 -50 96 -92l52 92h206l-153 -610v-6c-2.66699 -17.333 -4 -26.333 -4 -27c0 -20 5.33301 -34.333 16 -43c10.667 -10.667 26.334 -16 47.001 -16c92 0 172.667 47.667 242 143c68 96 102 208 102 336c0 161.333 -60 291.666 -180 390.999
c-118.667 100 -274.334 150 -467.001 150c-93.333 0 -184.666 -11.667 -273.999 -35c-82.667 -24.667 -159.334 -61.667 -230.001 -111c-104 -74 -183.833 -165.333 -239.5 -274s-83.5 -227.667 -83.5 -357c0 -202 67.667 -362.333 203 -481c134 -120 315.333 -180 544 -180
c110.667 0 216 16.333 316 49c102.667 32 196 77.667 280 137l97 -135c-50 -38 -103.5 -71.833 -160.5 -101.5s-112.833 -53.834 -167.5 -72.501c-118 -39.333 -239.667 -59 -365 -59c-128 0 -246 16.333 -354 49c-52.667 15.333 -102.5 34.833 -149.5 58.5
s-93.5 52.5 -139.5 86.5c-51.333 40 -96.166 83.333 -134.499 130s-71.166 97.667 -98.499 153c-26 54.667 -45.5 112 -58.5 172s-19.5 122.667 -19.5 188c0 110.667 17.667 218 53 322c18 50 40 98 66 144s56 90 90 132c98.667 122 218.667 215 360 279
c141.333 62.667 297 94 467 94c115.333 0 221.833 -15 319.5 -45s184.5 -74.333 260.5 -133c93.333 -73.333 161 -154.666 203 -243.999c44.667 -89.333 67 -191 67 -305c0 -110 -21.667 -212.333 -65 -307c-42.667 -91.333 -106.334 -171.333 -191.001 -240
c-45.333 -36 -96.333 -64.667 -153 -86c-62 -19.333 -121 -29 -177 -29c-71.333 0 -125 13 -161 39c-38 28 -58 68.333 -60 121zM1198 696.002c-6 50 -22.334 88.333 -49.001 115c-27.333 27.333 -64.333 41 -111 41c-68 0 -128.667 -40.333 -182 -121
c-52 -83.333 -78 -179 -78 -287c0 -53.333 11.667 -96.333 35 -129c22.667 -30 55.334 -45 98.001 -45c54.667 0 104 20 148 60c42 38 71.333 90.333 88 157z" />
    <glyph glyph-name="A" unicode="A" horiz-adv-x="1479" 
d="M543 547l396.999 -0.000976562l-149 483c-3.33301 8.66699 -9.66602 32.667 -18.999 72l-31 125c-9.33301 -34 -17.333 -68.333 -24 -103c-10.667 -33.333 -19.667 -64.666 -27 -93.999zM-16.001 -0.000976562l505 1464h500l506 -1464h-397l-74 262h-567l-76 -262h-397z
" />
    <glyph glyph-name="B" unicode="B" horiz-adv-x="1389" 
d="M526 879l80 -0.000976562c99.333 0 167 10.667 203 32c36.667 22.667 55 60.334 55 113.001c0 55.333 -17 94.333 -51 117c-37.333 23.333 -104.333 35 -201 35h-86v-297zM156 -0.000976562l0.000976562 1464h401c161.333 0 276.666 -5.33301 345.999 -16
c64.667 -10 121.334 -28.333 170.001 -55c53.333 -31.333 94.333 -71 123 -119c28.667 -50.667 43 -109.334 43 -176.001c0 -84.667 -21.167 -151.167 -63.5 -199.5s-109.833 -85.166 -202.5 -110.499c101.333 -8 182.666 -44 243.999 -108
c58.667 -65.333 88 -152.666 88 -261.999c0 -77.333 -16.667 -145.666 -50 -204.999c-33.333 -61.333 -80.333 -107.666 -141 -138.999c-46.667 -24.667 -108 -44 -184 -58c-78.667 -10.667 -199 -16 -361 -16h-413zM526.001 298.996h139.999
c94.667 0 161.334 12.333 200.001 37c40 22.667 60 61.667 60 117c0 60 -18 103 -54 129c-36 24 -102.667 36 -200 36h-146v-319z" />
    <glyph glyph-name="C" unicode="C" horiz-adv-x="1286" 
d="M1217 1407l-0.00195312 -436.006c-57.333 62 -111.333 107 -162 135c-56.667 27.333 -115.334 41 -176.001 41c-114 0 -207 -39 -279 -117c-24.667 -28 -44.667 -57.167 -60 -87.5s-26.833 -64.666 -34.5 -102.999s-11.5 -77.166 -11.5 -116.499
c0 -117.333 36 -215 108 -293c72.667 -76.667 165 -115 277 -115c60 0 118.667 14.333 176 43c50.667 26 104.667 70.667 162 134v-437c-74 -34.667 -137 -57.667 -189 -69c-64.667 -15.333 -128 -23 -190 -23c-78.667 0 -152.667 9.5 -222 28.5s-131.333 47.833 -186 86.5
c-109.333 74.667 -192.666 166.667 -249.999 276c-57.333 113.333 -86 239 -86 377c0 110.667 18.667 212.334 56 305.001c16.667 44.667 37.834 86.834 63.501 126.501s58.834 80.834 99.501 123.501c70 72 148.667 125.333 236 160c86.667 35.333 183 53 289 53
c60.667 0 124 -7.33301 190 -22c65.333 -17.333 128.333 -40.666 189 -69.999z" />
    <glyph glyph-name="D" unicode="D" horiz-adv-x="1569" 
d="M156 0l-0.000976562 1464h305c230.667 0 391.667 -10.667 483 -32c94.667 -21.333 177.334 -57 248.001 -107c93.333 -64 163.666 -146.667 210.999 -248c48 -102 72 -217.333 72 -346s-24 -244 -72 -346c-47.333 -100 -117.666 -182.667 -210.999 -248
c-73.333 -50 -154 -84.667 -242 -104c-88 -22 -228.667 -33 -422 -33h-67h-305zM550.999 328h67.001c157.333 0 271.666 32.667 342.999 98c72 64 108 165.667 108 305c0 138.667 -36 241 -108 307s-186.333 99 -343 99h-67v-809z" />
    <glyph glyph-name="E" unicode="E" horiz-adv-x="1161" 
d="M156 0v1464h897v-321h-508v-254h479v-314h-479v-247h508v-328h-897z" />
    <glyph glyph-name="F" unicode="F" horiz-adv-x="1114" 
d="M156 0v1464h897v-321h-508v-254h479v-314h-479v-575h-389z" />
    <glyph glyph-name="G" unicode="G" horiz-adv-x="1726" 
d="M852 539l-0.00195312 307h784c0 -14 0.666992 -25 2 -33v-53c0 -252.667 -66 -448 -198 -586c-133.333 -139.333 -321 -209 -563 -209c-115.333 0 -220.666 17.667 -315.999 53c-92 35.333 -174.667 90 -248 164c-70 71.333 -123.667 154 -161 248
c-20 50 -34.667 100.167 -44 150.5s-14 100.5 -14 150.5c0 108 18.667 208.333 56 301c37.333 90 93 172.667 167 248c70.667 70.667 154.667 124.667 252 162c96 36.667 198.667 55 308 55c142.667 0 269.334 -28.667 380.001 -86
c35.333 -17.333 70.166 -38.833 104.499 -64.5s66 -54.167 95 -85.5s55.5 -65.333 79.5 -102l-346 -166c-41.333 56.667 -87.666 99 -138.999 127c-52.667 27.333 -110.667 41 -174 41c-120 0 -213.667 -39.667 -281 -119c-68 -78.667 -102 -187.667 -102 -327
c0 -140 34 -250 102 -330c67.333 -79.333 161 -119 281 -119c102 0 186.333 25.333 253 76c69.333 50 109 115.667 119 197h-397z" />
    <glyph glyph-name="H" unicode="H" horiz-adv-x="1642" 
d="M156 0v1464h399v-569h532v569h400v-1464h-400v596h-532v-596h-399z" />
    <glyph glyph-name="I" unicode="I" horiz-adv-x="735" 
d="M166 0v1464h403v-1464h-403z" />
    <glyph glyph-name="J" unicode="J" horiz-adv-x="981" 
d="M442 1464l400 0.000976562v-950c0 -106.667 -7 -186 -21 -238c-11.333 -52 -33 -101 -65 -147c-43.333 -58 -93.333 -99.667 -150 -125c-58 -28.667 -124.667 -43 -200 -43c-90.667 0 -172.667 19.667 -246 59c-69.333 37.333 -131 95.666 -185 174.999l244 221
c6 -45.333 19.667 -79 41 -101c24 -22.667 52 -34 84 -34c39.333 0 66 21 80 63c12 42.667 18 147.667 18 315v805z" />
    <glyph glyph-name="K" unicode="K" horiz-adv-x="1485" 
d="M156 0v1464h395v-665l463 665h465l-541 -714l588 -750h-498l-477 657v-657h-395z" />
    <glyph glyph-name="L" unicode="L" horiz-adv-x="1090" 
d="M156 0v1464h399v-1122h496v-342h-895z" />
    <glyph glyph-name="M" unicode="M" horiz-adv-x="1894" 
d="M1835 0l-373 -0.000976562l-86 633c-7.33301 56.667 -12.666 106.334 -15.999 149.001c-4.66699 42 -9.33398 101.667 -14.001 179c-12 -69.333 -30.667 -146.666 -56 -231.999c-5.33301 -16.667 -9.33301 -31 -12 -43l-199 -686h-266l-199 686
c-2 11.333 -6 25.666 -12 42.999c-28 90 -46.333 167.333 -55 232c-5.33301 -73.333 -10.333 -128 -15 -164l-9 -82l-9 -82l-86 -633h-371l226 1464h395l221 -755c4 -14 6.66699 -23 8 -27c19.333 -62.667 32.333 -120 39 -172c1.33301 18 6.33301 47.333 15 88l30 113
l223 753h396z" />
    <glyph glyph-name="N" unicode="N" horiz-adv-x="1745" 
d="M156 0v1464h385l553 -753c14 -20.667 31.667 -51.667 53 -93c27.333 -53.333 54 -108.333 80 -165c-10 76.667 -15.667 130.334 -17 161.001c-4 48 -6 90.333 -6 127v723h383v-1464h-383l-553 756c-8 10.667 -25.667 42 -53 94c-24 42.667 -50.667 96.667 -80 162
c6.66699 -52 13 -106 19 -162c2.66699 -62.667 4 -105 4 -127v-723h-385z" />
    <glyph glyph-name="O" unicode="O" horiz-adv-x="1753" 
d="M1659 729c0 -106 -18.998 -205.002 -56.998 -297.002c-38 -90 -94.667 -172 -170 -246c-74.667 -72 -160 -127.333 -256 -166c-100.667 -39.333 -200.334 -59 -299.001 -59c-100 0 -199.667 19.667 -299 59c-98 39.333 -182.667 94.666 -254 165.999
c-72 68.667 -128.667 151.334 -170 248.001c-40 94.667 -60 193 -60 295s20 200.333 60 295c41.333 96.667 98 179.334 170 248.001c73.333 73.333 158 129.333 254 168c93.333 38 193 57 299 57s206.333 -19.167 301 -57.5s179.167 -94.166 253.5 -167.499
s131.166 -156 170.499 -248c38 -92 57 -190.333 57 -295zM877.002 298.998c110 0 202 40.998 276 122.998c36.667 40.667 63.667 86.334 81 137.001s26 107.334 26 170.001c0 122 -36.333 224.333 -109 307c-74 82 -165.333 123 -274 123c-111.333 0 -203 -41 -275 -123
s-108 -184.333 -108 -307c0 -127.333 35.333 -230.333 106 -309c72.667 -80.667 165 -121 277 -121z" />
    <glyph glyph-name="P" unicode="P" horiz-adv-x="1298" 
d="M530 0l-374.002 -0.000976562v1464h417c162 0 277 -8 345 -24c66.667 -17.333 122.334 -44.666 167.001 -81.999c53.333 -44.667 94.333 -100 123 -166c28.667 -67.333 43 -142.333 43 -225c0 -88 -14.333 -164.667 -43 -230c-25.333 -66 -66.333 -120.667 -123 -164
c-40.667 -32 -89.667 -55 -147 -69c-51.333 -14 -140.666 -21 -267.999 -21h-68h-72v-483zM529.998 804.999l76 0.000976562c94.667 0 161.667 13.667 201 41c38 25.333 57 69.666 57 132.999c0 60.667 -18.5 104.167 -55.5 130.5s-103.167 39.5 -198.5 39.5h-80v-344z" />
    <glyph glyph-name="Q" unicode="Q" horiz-adv-x="1753" 
d="M1118 584l76.001 -101.001c22.667 32 39 69 49 111c11.333 44 17 85.667 17 125c0 128 -35.667 233.667 -107 317c-73.333 83.333 -165.333 125 -276 125c-108.667 0 -199.667 -41.667 -273 -125c-73.333 -81.333 -110 -183.666 -110 -306.999
c0 -125.333 36 -229 108 -311c74 -82 166.333 -123 277 -123c13.333 0 29.666 2 48.999 6c14.667 2 31.667 7.33301 51 16l-207 267h346zM1690 -172.001l-340.001 0.000976562l-156 205c-39.333 -21.333 -86.333 -38.333 -141 -51c-53.333 -11.333 -110 -17 -170 -17
c-87.333 0 -167.333 11 -240 33c-75.333 22 -146.333 54.667 -213 98c-104 70 -186 161.667 -246 275c-60 114 -90 234 -90 360c0 102 20 200.167 60 294.5s96.667 177.166 170 248.499c72 71.333 155.667 126.666 251 165.999c94.667 38 195.334 57 302.001 57
c106 0 206.333 -19 301 -57c94.667 -39.333 178.667 -94.666 252 -165.999c74.667 -74 131 -156.667 169 -248c40 -94.667 60 -193 60 -295c0 -106.667 -20 -208.334 -60 -305.001c-39.333 -91.333 -98 -172.666 -176 -243.999z" />
    <glyph glyph-name="R" unicode="R" horiz-adv-x="1313" 
d="M156 0v1464h417c80.667 0 148.834 -1.66699 204.501 -5s101.5 -9 137.5 -17c62 -14.667 117.333 -40 166 -76c53.333 -40 93.666 -91.333 120.999 -154c28.667 -60 43 -128 43 -204c0 -112.667 -28 -205 -84 -277c-54.667 -72 -135.667 -119 -243 -141l399 -590h-451
l-336 573v-573h-374zM530 772h73.999c87.333 0 150.333 14.333 189 43c39.333 32 59 78.333 59 139c0 73.333 -18.333 125.333 -55 156c-37.333 31.333 -99.666 47 -186.999 47h-80v-385z" />
    <glyph glyph-name="S" unicode="S" horiz-adv-x="1190" 
d="M221 473c61.333 -68 120 -118.335 176 -151.002c58.667 -33.333 116 -50 172 -50c52.667 0 96.334 14.333 131.001 43s52 65 52 109c0 48 -14.333 85.667 -43 113c-30.667 26 -98.334 53 -203.001 81c-142.667 38.667 -243.667 88.667 -303 150
c-60 62.667 -90 148 -90 256c0 140 47 254 141 342c92.667 88.667 214 133 364 133c84.667 0 161.334 -11 230.001 -33c72 -22 140.333 -54.667 205 -98l-125 -287c-44 38 -90.667 67.333 -140 88c-48 19.333 -95 29 -141 29c-46.667 0 -85.667 -11.667 -117 -35
c-30 -22 -45 -51.333 -45 -88c0 -35.333 13 -64.666 39 -87.999c27.333 -22 78.666 -43 153.999 -63c2.66699 -0.666992 5 -1.16699 7 -1.5s5 -1.16602 9 -2.49902c162.667 -43.333 270 -92 322 -146c34 -34 60.667 -77 80 -129c17.333 -49.333 26 -105.333 26 -168
c0 -154.667 -51 -279.667 -153 -375c-102.667 -94 -238.667 -141 -408 -141c-104 0 -196.833 17 -278.5 51s-162.167 88.667 -241.5 164z" />
    <glyph glyph-name="T" unicode="T" horiz-adv-x="1133" 
d="M367 0v1118h-328v346h1055v-346h-328v-1118h-399z" />
    <glyph glyph-name="U" unicode="U" horiz-adv-x="1597" 
d="M145 1464l399.998 0.000976562v-712c0 -108.667 2.66699 -184 8 -226c6.66699 -50 15.667 -88 27 -114c14 -38 40.333 -66 79 -84c38.667 -20.667 85.334 -31 140.001 -31c54 0 100.333 10.333 139 31c35.333 17.333 62 45.333 80 84
c10.667 26.667 19.334 64.667 26.001 114c6 40 9 115.333 9 226v100v612h397v-774c0 -158.667 -9.66699 -276.667 -29 -354c-18 -76.667 -50.667 -142.334 -98 -197.001c-52 -60.667 -121 -105 -207 -133c-85.333 -30 -191 -45 -317 -45c-128.667 0 -234.667 15 -318 45
c-84.667 28 -153.667 72.333 -207 133c-46 53.333 -78.667 119 -98 197c-20.667 78.667 -31 196.667 -31 354v152v622z" />
    <glyph glyph-name="V" unicode="V" horiz-adv-x="1456" 
d="M575 0l-614.001 1464h424l293 -819l3.5 -13.5l12.5 -47.5c8 -34.667 19 -79.667 33 -135c8.66699 40 19 80 31 120c8.66699 39.333 15.334 64.666 20.001 75.999l291 819h424l-614 -1464h-304z" />
    <glyph glyph-name="W" unicode="W" horiz-adv-x="1987" 
d="M1153 1464l184.001 -696c8 -28 16.333 -60.667 25 -98l11 -57.5l11 -59.5c9.33301 43.333 17.666 86.333 24.999 129c4 20.667 11 49.334 21 86.001l172 696h403l-414 -1464h-370l-181 625c-12.667 46.667 -23.334 89.667 -32.001 129c-0.666992 4 -2.66699 12 -6 24
s-7 26.333 -11 43c-1.33301 -4.66699 -6 -24.334 -14 -59.001c-12 -53.333 -23.667 -99 -35 -137l-178 -625h-371l-413 1464h403l168 -700l24 -109c10.667 -52 17.667 -88.667 21 -110c8.66699 41.333 15.334 70.666 20.001 87.999c12 54.667 22.333 98.334 31 131.001
l184 700h322z" />
    <glyph glyph-name="X" unicode="X" horiz-adv-x="1446" 
d="M674 1124c1.33301 -1.33301 2 -2.66504 2 -3.99805c24 -47.333 39.667 -86 47 -116c6 28.667 21 64.667 45 108c2 6 4 10 6 12l176 340h475l-489 -704l541 -760h-453l-250 434l-18 35c-6.66699 13.333 -11 21.666 -13 24.999
c-4.66699 11.333 -11.334 31.666 -20.001 60.999c-7.33301 -28.667 -14.333 -50.667 -21 -66c-3.33301 -8 -12.666 -26.333 -27.999 -55l-250 -434h-453l543 768l-491 696h475z" />
    <glyph glyph-name="Y" unicode="Y" horiz-adv-x="1223" 
d="M416 0v668l-512 796h458l197 -377c2 -2 4 -6 6 -12c20.667 -38 35 -75.333 43 -112c6 32 20.333 68 43 108l8 16l195 377h459l-512 -796v-668h-385z" />
    <glyph glyph-name="Z" unicode="Z" horiz-adv-x="1386" 
d="M1298 0h-1294l739 1147h-593v317h1232l-737 -1145h653v-319z" />
    <glyph glyph-name="bracketleft" unicode="[" horiz-adv-x="743" 
d="M180 1497h508v-242h-219v-1474h219v-242h-508v1958z" />
    <glyph glyph-name="backslash" unicode="\" horiz-adv-x="938" 
d="M717 -190l-717 1687h223l715 -1687h-221z" />
    <glyph glyph-name="bracketright" unicode="]" horiz-adv-x="743" 
d="M563 1497v-1958h-506v242h217v1474h-217v242h506z" />
    <glyph glyph-name="asciicircum" unicode="^" horiz-adv-x="2048" 
d="M879 1462h288l465 -563h-264l-344 342l-346 -342h-264z" />
    <glyph glyph-name="underscore" unicode="_" horiz-adv-x="1024" 
d="M0 -244h1024v-239h-1024v239z" />
    <glyph glyph-name="grave" unicode="`" horiz-adv-x="1024" 
d="M223 1497h281l182 -350h-154z" />
    <glyph glyph-name="a" unicode="a" horiz-adv-x="1352" 
d="M901 506c0 80 -21.001 142 -63.001 186c-42.667 46.667 -100 70 -172 70s-128.667 -22.667 -170 -68c-42.667 -46.667 -64 -109.334 -64 -188.001c0 -79.333 21.333 -141.666 64 -186.999c40.667 -44.667 97.334 -67 170.001 -67c72 0 129.167 22.333 171.5 67
s63.5 107 63.5 187zM1214 1010v-1010h-327v164c-47.333 -70 -100.166 -121.333 -158.499 -154s-126.5 -49 -204.5 -49c-135.333 0 -243 49.333 -323 148c-39.333 48.667 -69.333 106 -90 172s-31 140.333 -31 223c0 165.333 42.333 296.333 127 393s198 145 340 145
c76 0 141.333 -16.333 196 -49c55.333 -31.333 102.666 -81 141.999 -149v166h329z" />
    <glyph glyph-name="b" unicode="b" horiz-adv-x="1352" 
d="M449 504c0 -80.667 20.999 -143 62.999 -187c38.667 -44.667 94.667 -67 168 -67c72.667 0 129.334 22.333 170.001 67s61 107 61 187c0 79.333 -20.333 141.333 -61 186c-41.333 45.333 -98 68 -170 68c-72.667 0 -128.667 -22.667 -168 -68c-42 -44 -63 -106 -63 -186z
M132.999 1550l340.001 -0.00195312v-528c0 -52 -0.666992 -87.667 -2 -107c-2.66699 -34 -5.33398 -58.333 -8.00098 -73c42 72.667 89.667 123.667 143 153c53.333 31.333 123 47 209 47c134.667 0 244 -49 328 -147c83.333 -99.333 125 -229.666 125 -390.999
c0 -166 -41.667 -297.667 -125 -395c-84 -98.667 -197.333 -148 -340 -148c-71.333 0 -134.333 17 -189 51c-56.667 32.667 -107.667 83.334 -153 152.001v-164h-328v1550z" />
    <glyph glyph-name="c" unicode="c" horiz-adv-x="944" 
d="M856 678c-34.667 30.667 -67.999 53 -99.999 67c-28.667 14 -62.334 21 -101.001 21c-71.333 0 -127.333 -23.333 -168 -70c-42 -46 -63 -109.333 -63 -190c0 -77.333 21.667 -138.666 65 -183.999c42 -46.667 100.333 -70 175 -70c35.333 0 69.333 7.33301 102 22
c34.667 16.667 64.667 38.667 90 66v-309c-42.667 -22.667 -85.667 -40.667 -129 -54c-46 -10.667 -89.667 -16 -131 -16c-156 0 -281.667 50 -377 150c-32.667 33.333 -59.5 70 -80.5 110s-37 83.333 -48 130s-16.5 97.667 -16.5 153c0 159.333 48.833 288.833 146.5 388.5
s224.167 149.5 379.5 149.5c48.667 0 95 -5.33301 139 -16c42.667 -10.667 81.667 -26.334 117 -47.001v-301z" />
    <glyph glyph-name="d" unicode="d" horiz-adv-x="1352" 
d="M903 504c0 79.333 -20.335 141.332 -61.002 185.999c-43.333 45.333 -100.666 68 -171.999 68c-72 0 -128.667 -22.667 -170 -68s-62 -107.333 -62 -186c0 -79.333 20.667 -141.666 62 -186.999c40.667 -44.667 97.334 -67 170.001 -67c72 0 129.333 22.333 172 67
c40.667 44.667 61 107 61 187zM1219 1550v-1550h-328v164c-45.333 -68.667 -96.666 -119.334 -153.999 -152.001c-53.333 -34 -116 -51 -188 -51c-141.333 0 -254.166 49.333 -338.499 148s-126.5 230.334 -126.5 395.001c0 160 42.333 290.333 127 391
c84 98 192.667 147 326 147c85.333 0 154.666 -15.667 207.999 -47c51.333 -28.667 99.333 -79.667 144 -153c-2.66699 18 -5.33398 45.333 -8.00098 82c-2.66699 40 -4 72.667 -4 98v528h342z" />
    <glyph glyph-name="e" unicode="e" horiz-adv-x="1251" 
d="M827 635c-6 56 -27.667 101.667 -65 137s-83 53 -137 53c-56.667 0 -102.667 -15.667 -138 -47c-36.667 -35.333 -59.667 -83 -69 -143h409zM1178 434h-768.001c2 -78.667 21.667 -138.667 59 -180c38.667 -42.667 94.667 -64 168 -64c53.333 0 99 10.333 137 31
c38.667 22 66.667 52 84 90l268 -108c-31.333 -76.667 -88 -136 -170 -178c-81.333 -42.667 -181 -64 -299 -64c-176 0 -317.333 49.333 -424 148c-106 96 -159 224.333 -159 385c0 156.667 53 287.667 159 393c106 103.333 240.667 155 404 155
c166.667 0 298.334 -52.333 395.001 -157c49.333 -54 86 -116.833 110 -188.5s36 -153.5 36 -245.5v-17z" />
    <glyph glyph-name="f" unicode="f" horiz-adv-x="719" 
d="M166 0l-0.000976562 757.997h-152v252h152v207c0 116.667 32 205.334 96 266.001c63.333 58.667 159 88 287 88c8.66699 0 30.334 -1.33301 65.001 -4c37.333 -6 64 -11 80 -15v-272c-12 4.66699 -27 9.33398 -45 14.001c-18.667 2.66699 -31 4 -37 4
c-34.667 0 -59 -10 -73 -30c-15.333 -21.333 -23 -53.666 -23 -96.999v-161h178v-252h-178v-758h-350z" />
    <glyph glyph-name="g" unicode="g" horiz-adv-x="1352" 
d="M901 508c0 78 -20.332 139.334 -60.999 184.001c-44 44 -102 66 -174 66s-130 -22 -174 -66c-42.667 -44.667 -64 -106 -64 -184c0 -78.667 21.333 -139.334 64 -182.001c43.333 -45.333 101.333 -68 174 -68c71.333 0 128.666 22.667 171.999 68
c42 42 63 102.667 63 182zM1214 1010l0.000976562 -1008c0 -152.667 -46.333 -265.334 -139 -338.001c-44.667 -36 -103.334 -63.333 -176.001 -82s-158 -28 -256 -28c-159.333 0 -283 29.333 -371 88c-88 59.333 -135 141.666 -141 246.999h369
c6.66699 -32 24.334 -56.333 53.001 -73c29.333 -18 68.333 -27 117 -27c76 0 129 18.333 159 55c28.667 36.667 43 114.667 43 234v92c-38 -64 -85.667 -111 -143 -141c-59.333 -31.333 -128.333 -47 -207 -47c-133.333 0 -240.333 48.333 -321 145
c-39.333 47.333 -69.333 103.166 -90 167.499s-31 136.833 -31 217.5c0 161.333 42.333 290.333 127 387c42 48 91.5 83.833 148.5 107.5s120.833 35.5 191.5 35.5c75.333 0 140.666 -15.667 195.999 -47c54.667 -29.333 102 -78.333 142 -147v162h329z" />
    <glyph glyph-name="h" unicode="h" horiz-adv-x="1337" 
d="M131 0v1550h350v-544c0 -26 -1.33301 -59.667 -4 -101c-2 -36 -4.66699 -63.333 -8 -82c44.667 75.333 97.334 130.666 158.001 165.999c61.333 35.333 133.666 53 216.999 53c66 0 124.667 -10 176 -30c50.667 -22.667 91.667 -53.334 123 -92.001
c28.667 -38.667 47.667 -79.667 57 -123c11.333 -55.333 17 -128.333 17 -219v-578h-357v541c0 82 -13 140.667 -39 176c-26 36.667 -68.333 55 -127 55c-73.333 0 -127.333 -27.333 -162 -82c-34 -54.667 -51 -143.334 -51 -266.001v-424h-350z" />
    <glyph glyph-name="i" unicode="i" horiz-adv-x="639" 
d="M123 0v1010h356v-1010h-356zM168 1270l1.99902 0.000976562c0 37.333 13 68 39 92c26 26 57.333 39 94 39c38.667 0 70.5 -12.333 95.5 -37s37.5 -56 37.5 -94c0 -38.667 -13 -70.667 -39 -96c-25.333 -26 -56.666 -39 -93.999 -39c-38 0 -70 13.667 -96 41
c-26 25.333 -39 56.666 -39 93.999z" />
    <glyph glyph-name="j" unicode="j" horiz-adv-x="639" 
d="M123 1325c0 55.333 19.001 101 57.001 137c38.667 38.667 85 58 139 58c55.333 0 102.666 -18.667 141.999 -56c36.667 -36.667 55 -83 55 -139s-19.167 -103.167 -57.5 -141.5s-84.833 -57.5 -139.5 -57.5c-52.667 0 -99 20 -139 60c-38 38 -57 84.333 -57 139z
M141.001 -446v1456h357v-1456h-357z" />
    <glyph glyph-name="k" unicode="k" horiz-adv-x="1313" 
d="M133 0v1550h350v-981l367 441h442l-454 -486l495 -524h-469l-381 449v-449h-350z" />
    <glyph glyph-name="l" unicode="l" horiz-adv-x="639" 
d="M141 0v1550h357v-1550h-357z" />
    <glyph glyph-name="m" unicode="m" horiz-adv-x="1942" 
d="M1466 0v551c0 86.667 -10 146.667 -30 180c-22.667 34 -60.334 51 -113.001 51c-67.333 0 -113.666 -23 -138.999 -69c-26 -45.333 -39 -140.333 -39 -285v-428h-344v551c0 90 -11 150.667 -33 182c-20 32.667 -57 49 -111 49c-67.333 0 -114.333 -22.333 -141 -67
c-26 -45.333 -39 -141 -39 -287v-428h-346v1010h350v-176c42.667 70.667 91.334 123 146.001 157c53.333 34 118 51 194 51c82 0 149.667 -15.667 203 -47c50.667 -32 87.667 -79.667 111 -143c40.667 66 89 113.667 145 143c55.333 31.333 121.666 47 198.999 47
c60.667 0 113.667 -10 159 -30c46.667 -22 85 -52.667 115 -92c25.333 -31.333 43 -68.333 53 -111c10 -39.333 15 -109 15 -209v-22v-578h-355z" />
    <glyph glyph-name="n" unicode="n" horiz-adv-x="1337" 
d="M131 0l0.000976562 1010h326v-205c46 80 100.667 140 164 180c61.333 38 135.666 57 222.999 57c66 0 124.667 -10 176 -30c50.667 -22.667 91.667 -53.334 123 -92.001c28.667 -38.667 47.667 -79.667 57 -123c11.333 -55.333 17 -128.333 17 -219v-578h-357v541
c0 82 -13 140.667 -39 176c-26 36.667 -68.333 55 -127 55c-73.333 0 -127.333 -27.333 -162 -82c-34 -54.667 -51 -143.334 -51 -266.001v-424h-350z" />
    <glyph glyph-name="o" unicode="o" horiz-adv-x="1276" 
d="M848 502c0 75.333 -19.002 134.668 -57.002 178.001c-39.333 43.333 -90.666 65 -153.999 65c-65.333 0 -116.666 -21.667 -153.999 -65c-38 -42 -57 -101.333 -57 -178c0 -74.667 18.333 -133.334 55 -176.001c40 -44 92 -66 156 -66s116 22 156 66
c36.667 44 55 102.667 55 176zM1202 502.002c0 -74 -14.333 -142.999 -43 -206.999c-30 -68 -71 -126.667 -123 -176c-58.667 -54.667 -119.334 -94.334 -182.001 -119.001c-65.333 -26 -137.666 -39 -216.999 -39c-80 0 -152.333 13 -217 39
c-66 26 -126.833 65.5 -182.5 118.5s-95.834 111.833 -120.501 176.5c-28.667 62 -43 131 -43 207c0 74 14.333 143.667 43 209c26.667 66 67 124.667 121 176c52.667 50.667 113.334 89.667 182.001 117c65.333 25.333 137.666 38 216.999 38c78.667 0 151 -12.667 217 -38
c68.667 -27.333 129.334 -66.333 182.001 -117c55.333 -50 96.333 -108.667 123 -176c28.667 -65.333 43 -135 43 -209z" />
    <glyph glyph-name="p" unicode="p" horiz-adv-x="1352" 
d="M449 502c0 -78.667 20.999 -141 62.999 -187c38.667 -44.667 94.667 -67 168 -67c72.667 0 129.334 22.333 170.001 67c40.667 46.667 61 109 61 187c0 79.333 -20.333 141.333 -61 186c-41.333 45.333 -98 68 -170 68c-72.667 0 -128.667 -22.667 -168 -68
c-42 -44 -63 -106 -63 -186zM132.999 -446l0.00195312 1454h328v-168c43.333 64.667 94.333 115 153 151c55.333 32.667 118.333 49 189 49c71.333 0 135.333 -11.833 192 -35.5s106 -59.5 148 -107.5c83.333 -95.333 125 -227 125 -395
c0 -161.333 -41.667 -291.666 -125 -390.999c-42.667 -50.667 -90.834 -88.334 -144.501 -113.001s-114.834 -37 -183.501 -37c-86 0 -155.667 15.667 -209 47c-51.333 30 -99 82 -143 156c3.33301 -16 6 -40.667 8 -74c1.33301 -19.333 2 -54.666 2 -105.999v-430h-340z
" />
    <glyph glyph-name="q" unicode="q" horiz-adv-x="1352" 
d="M903 502c0 77.333 -20.335 139.332 -61.002 185.999c-43.333 45.333 -100.666 68 -171.999 68c-72 0 -128.667 -22.667 -170 -68s-62 -107.333 -62 -186c0 -77.333 20.667 -139.666 62 -186.999c40.667 -44.667 97.334 -67 170.001 -67c72 0 129.333 22.333 172 67
c40.667 46.667 61 109 61 187zM1219 -446.001l-342.002 -0.00195312v430c0 24 1.33301 56.667 4 98c2 36 4.66699 63.333 8 82c-44.667 -74.667 -92.667 -126.667 -144 -156c-55.333 -31.333 -124.666 -47 -207.999 -47c-134 0 -242.667 50 -326 150
c-84.667 100.667 -127 231 -127 391c0 166.667 42.333 298.334 127 395.001c42.667 48.667 92 84.667 148 108s119.333 35 190 35s133.334 -16.333 188.001 -49c58.667 -35.333 110 -85.666 154 -150.999v168l328 2v-1456z" />
    <glyph glyph-name="r" unicode="r" horiz-adv-x="915" 
d="M133 0l0.00195312 1010h336v-238c35.333 87.333 82.333 152.333 141 195c60.667 43.333 133.667 65 219 65c19.333 0 33.666 -0.666992 42.999 -2c7.33301 -0.666992 14 -1.16699 20 -1.5s13.667 -1.16602 23 -2.49902l-34 -324c-24.667 8 -46 13.667 -64 17
c-26.667 2.66699 -46.334 4 -59.001 4c-86.667 0 -153.667 -26.667 -201 -80c-46.667 -52.667 -70 -127.667 -70 -225v-418h-354z" />
    <glyph glyph-name="s" unicode="s" horiz-adv-x="991" 
d="M37 84l74 272.003c52 -46 109.333 -80.667 172 -104c62 -24.667 124.667 -37 188 -37c45.333 0 79.333 7.66699 102 23c23.333 14 35 34.333 35 61c0 44.667 -47 78 -141 100c-32.667 7.33301 -57.334 13.666 -74.001 18.999c-108.667 32 -185.667 71 -231 117
c-49.333 47.333 -74 108.666 -74 183.999c0 97.333 37 175.666 111 234.999c71.333 58.667 171 88 299 88c62 0 128 -7.33301 198 -22c58.667 -12 127 -35.333 205 -70l-74 -245c-48 32.667 -96.333 57 -145 73c-46 16.667 -94.333 25 -145 25
c-41.333 0 -72.333 -6.33301 -93 -19c-20 -12 -30 -30.333 -30 -55c0 -34.667 47 -64.667 141 -90c30.667 -9.33301 46.334 -14 47.001 -14c122.667 -34.667 208.667 -75.667 258 -123c48 -50 72 -115 72 -195c0 -103.333 -39.667 -186.666 -119 -249.999
c-81.333 -64 -186.333 -96 -315 -96c-89.333 0 -171.5 10.167 -246.5 30.5s-146.5 51.166 -214.5 92.499z" />
    <glyph glyph-name="t" unicode="t" horiz-adv-x="723" 
d="M188 0l-2 758h-151v252h151v301h353v-301h149v-252h-149v-758h-351z" />
    <glyph glyph-name="u" unicode="u" horiz-adv-x="1292" 
d="M1167 1010v-515.997c0 -115.333 -8.66699 -199.333 -26 -252c-18.667 -54.667 -50 -104 -94 -148c-42 -44 -97.333 -77.333 -166 -100c-65.333 -22 -144 -33 -236 -33c-91.333 0 -169 11 -233 33c-66 21.333 -122.667 54.666 -170 99.999c-43.333 41.333 -74 90 -92 146
c-18 52 -27 136.667 -27 254v516h340v-539c0 -84.667 14.333 -145.334 43 -182.001c26 -38.667 71 -58 135 -58c63.333 0 108.833 18.667 136.5 56s41.5 98.666 41.5 183.999v539h348z" />
    <glyph glyph-name="v" unicode="v" horiz-adv-x="1155" 
d="M436 0l-454 1010h380l173 -447c1.33301 -2.66699 3.33301 -8 6 -16c18 -49.333 31.667 -96.333 41 -141c6.66699 36 19.667 79.667 39 131c2.66699 5.33301 6 14 10 26l172 447h371l-459 -1010h-279z" />
    <glyph glyph-name="w" unicode="w" horiz-adv-x="1645" 
d="M930 1010l149 -446.997c0 -2.66699 0.666992 -5.33398 2 -8.00098c22.667 -59.333 37 -109 43 -149c2 9.33301 7.66699 31.666 17 66.999c8.66699 33.333 17.334 63.333 26.001 90l152 447h369l-424 -1010h-252l-150 457c-5.33301 17.333 -12 44 -20 80l-10 42l-9 35
c-10 -50.667 -23 -101 -39 -151l-2 -6l-149 -457h-252l-422 1010h367l151 -447c6.66699 -21.333 12.167 -38 16.5 -50s7.83301 -24 10.5 -36c7.33301 -30 12.666 -53.667 15.999 -71c5.33301 31.333 18.333 77.666 39 138.999c2 8 4 14 6 18l150 447h215z" />
    <glyph glyph-name="x" unicode="x" horiz-adv-x="1085" 
d="M485 838c18 -35.333 29 -58.832 33 -70.499l11 -32c3.33301 -9.66699 5.33301 -15.834 6 -18.501c2 8 7.33301 25 16 51c8 20.667 19 44 33 70l96 172h403l-346 -469l404 -541h-402l-151 254c-10 15.333 -20.333 35 -31 59l-8 29c-3.33301 12 -6.66602 23 -9.99902 33
c-8.66699 -29.333 -15.667 -50 -21 -62c-6.66699 -20 -16.334 -39.667 -29.001 -59l-149 -254h-395l397 541l-340 469h389z" />
    <glyph glyph-name="y" unicode="y" horiz-adv-x="1090" 
d="M76 -446l284.001 600.001l-407 856h395l141 -365c14 -33.333 23.667 -62 29 -86c7.33301 -24.667 13.666 -49.334 18.999 -74.001c4 24 10 49.333 18 76c5.33301 23.333 15 51.333 29 84l143 365h381l-635 -1456h-397z" />
    <glyph glyph-name="z" unicode="z" horiz-adv-x="1110" 
d="M1024 0h-1024l518 750h-455v260h1006l-537 -736h492v-274z" />
    <glyph glyph-name="braceleft" unicode="{" horiz-adv-x="1024" 
d="M893 1477l-0.00195312 -242.002c-6.66699 0 -13.667 0.666992 -21 2h-20c-65.333 0 -109 -11.667 -131 -35c-23.333 -24.667 -35 -73.667 -35 -147v-240c0 -94 -15 -161 -45 -201c-31.333 -39.333 -86.666 -67.333 -165.999 -84c79.333 -16 134.666 -43 165.999 -81
c30 -38 45 -105 45 -201v-242c0 -74.667 11.667 -123 35 -145c22 -23.333 65 -35 129 -35c8 0 15.333 0.666992 22 2h21v-242c-15.333 0 -29 -0.666992 -41 -2h-41c-73.333 0 -132.666 4.33301 -177.999 13c-50 8 -90.333 20 -121 36c-41.333 22 -68.666 51.333 -81.999 88
c-16 38.667 -24 103 -24 193v256c0 88.667 -16.667 151.334 -50 188.001c-32.667 36 -88.667 54 -168 54h-18c-5.33301 -1.33301 -11.333 -2 -18 -2v241c6.66699 0 12.667 -0.666992 18 -2h18c78 0 133.833 18.5 167.5 55.5s50.5 99.833 50.5 188.5v254
c0 91.333 8 156 24 194c16 38.667 43.333 68.334 82 89.001c30.667 16 71 28 121 36c45.333 8.66699 105.333 13 180 13h39c12 -1.33301 25.667 -2 41 -2z" />
    <glyph glyph-name="bar" unicode="|" horiz-adv-x="1024" 
d="M393 1565h240v-2048h-240v2048z" />
    <glyph glyph-name="braceright" unicode="}" horiz-adv-x="1024" 
d="M133 1477c15.333 0 28.9971 0.667969 40.9971 2.00098h39c74.667 0 134.667 -4.33301 180 -13c48 -8 88.333 -20 121 -36c38 -20.667 66 -50.334 84 -89.001c15.333 -41.333 23 -106 23 -194v-254c0 -90 16.333 -152.667 49 -188c32 -37.333 88 -56 168 -56h18
c5.33301 1.33301 11.333 2 18 2v-241c-6.66699 0 -12.667 0.666992 -18 2h-18c-80 0 -136 -18.667 -168 -56c-32.667 -36.667 -49 -98.667 -49 -186v-256c0 -87.333 -7.66699 -152.333 -23 -195c-18 -38 -46 -67.333 -84 -88
c-32.667 -17.333 -70.334 -28.666 -113.001 -33.999c-45.333 -8.66699 -104.666 -13 -177.999 -13h-45c-12 1.33301 -27 2 -45 2v242h23c6.66699 -1.33301 13.334 -2 20.001 -2c65.333 0 109 11.667 131 35c22 21.333 33 69.666 33 144.999v242c0 95.333 15 161.333 45 198
c32 40 87.333 68 166 84c-79.333 16.667 -134.666 44.667 -165.999 84c-30 38 -45 105 -45 201v240c0 75.333 -11 124.333 -33 147c-22 23.333 -64.333 35 -127 35h-22c-7.33301 -1.33301 -15.666 -2 -24.999 -2v242z" />
    <glyph glyph-name="asciitilde" unicode="~" horiz-adv-x="1706" 
d="M1530 819l0.000976562 -254.001c-67.333 -46.667 -132.333 -80.667 -195 -102c-62 -23.333 -122.667 -35 -182 -35c-32.667 0 -62 2.66699 -88 8c-31.333 4 -59.333 11 -84 21c-3.33301 0.666992 -16.333 4.66699 -39 12c-172.667 60 -299.667 90 -381 90
c-57.333 0 -116 -12.333 -176 -37c-66.667 -29.333 -135.667 -69.666 -207 -120.999v254c80.667 50 149.667 86.333 207 109c68 23.333 128 35 180 35c43.333 0 85.666 -4.33301 126.999 -13c50 -9.33301 106 -24.333 168 -45c10.667 -4.66699 27.667 -10 51 -16
c104 -38 186.667 -57 248 -57c58 0 116 12.333 174 37c56 20.667 121.667 58.667 197 114z" />
    <glyph glyph-name="Zcaron" horiz-adv-x="1386" 
d="M1298 0h-1294l739 1147h-593v317h1232l-737 -1145h653v-319zM465 1864l160 -279h247l164 279h-137l-147 -144l-150 144h-137z" />
    <glyph glyph-name="ogonek" 
 />
    <glyph glyph-name="caron" horiz-adv-x="2" 
d="M-788 1116l159 -278h248l164 278h-137l-148 -143l-149 143h-137z" />
    <glyph glyph-name="Lslash" horiz-adv-x="1120" 
d="M186 0v500l-125 -86l-135 219l260 180v651h400v-422l198 140l146 -213l-344 -240v-387h495v-342h-895z" />
    <glyph glyph-name="ordmasculine" horiz-adv-x="956" 
d="M637 1110c0 52.667 -14.333 94.334 -43 125.001c-28 30 -67 45 -117 45c-50.667 0 -89 -15 -115 -45c-28.667 -32 -43 -73.667 -43 -125c0 -50.667 13.667 -92.334 41 -125.001c28 -30 67 -45 117 -45c51.333 0 91 15 119 45c27.333 31.333 41 73 41 125zM901 1110
c0 -52.667 -10.3311 -101 -30.998 -145c-20 -44.667 -50.667 -85.667 -92 -123c-40.667 -36.667 -86.334 -64 -137.001 -82c-52 -19.333 -106.667 -29 -164 -29c-55.333 0 -109.333 9.66699 -162 29c-50.667 18 -96.334 45.333 -137.001 82c-38 34 -68.667 75 -92 123
c-20.667 46.667 -31 95 -31 145s10.333 98.333 31 145c20 44.667 50.667 85.667 92 123c42 38 87 65.333 135 82c49.333 18 104 27 164 27c61.333 0 116 -9 164 -27c50 -18 95.667 -45.5 137 -82.5s72 -77.833 92 -122.5c20.667 -46 31 -94.333 31 -145z" />
    <glyph glyph-name="fraction" horiz-adv-x="342" 
d="M-342 -39l836 1518h188l-840 -1518h-184z" />
    <glyph glyph-name="breve" horiz-adv-x="1024" 
d="M197 1485h131c4 -48 21 -83 51 -105c32 -22.667 76.333 -34 133 -34s101 11.333 133 34c30.667 22.667 47 57.667 49 105h131c-8 -107.333 -37.333 -185.333 -88 -234s-125.667 -73 -225 -73c-101.333 0 -177 25 -227 75c-52.667 52.667 -82 130 -88 232z" />
    <glyph glyph-name="dotlessi" horiz-adv-x="639" 
d="M141 0v1010h357v-1010h-357z" />
    <glyph glyph-name="dotlessi" unicode="&#x131;" horiz-adv-x="639" 
d="M141 0v1010h357v-1010h-357z" />
    <glyph glyph-name="zcaron" horiz-adv-x="1110" 
d="M1024 0h-1024l518 750h-455v260h1006l-537 -736h492v-274zM266 1413l160 -278h248l164 278h-138l-147 -143l-150 143h-137z" />
    <glyph glyph-name="Ydieresis" horiz-adv-x="1223" 
d="M416 0v668l-512 796h458l197 -377c2 -2 4 -6 6 -12c20.667 -38 35 -75.333 43 -112c6 32 20.333 68 43 108l8 16l195 377h459l-512 -796v-668h-385zM662 1712c0 34.667 11.834 63.833 35.501 87.5s53.167 35.5 88.5 35.5s65.666 -11.667 90.999 -35
c22.667 -22.667 34 -52 34 -88s-11.333 -66.167 -34 -90.5s-53 -36.5 -91 -36.5c-37.333 0 -67.333 12.167 -90 36.5s-34 54.5 -34 90.5zM311.001 1712v-2c0 34 12.333 63.333 37 88c25.333 23.333 55.333 35 90 35c36.667 0 66 -11.667 88 -35
c23.333 -22 35 -51.333 35 -88c0 -38.667 -11 -68.667 -33 -90c-22 -23.333 -52 -35 -90 -35c-37.333 0 -67.333 12.333 -90 37c-24.667 23.333 -37 53.333 -37 90z" />
    <glyph glyph-name="Ydieresis" unicode="&#x178;" horiz-adv-x="1223" 
d="M416 0v668l-512 796h458l197 -377c2 -2 4 -6 6 -12c20.667 -38 35 -75.333 43 -112c6 32 20.333 68 43 108l8 16l195 377h459l-512 -796v-668h-385zM662 1712c0 34.667 11.834 63.833 35.501 87.5s53.167 35.5 88.5 35.5s65.666 -11.667 90.999 -35
c22.667 -22.667 34 -52 34 -88s-11.333 -66.167 -34 -90.5s-53 -36.5 -91 -36.5c-37.333 0 -67.333 12.167 -90 36.5s-34 54.5 -34 90.5zM311.001 1712v-2c0 34 12.333 63.333 37 88c25.333 23.333 55.333 35 90 35c36.667 0 66 -11.667 88 -35
c23.333 -22 35 -51.333 35 -88c0 -38.667 -11 -68.667 -33 -90c-22 -23.333 -52 -35 -90 -35c-37.333 0 -67.333 12.333 -90 37c-24.667 23.333 -37 53.333 -37 90z" />
    <glyph glyph-name="fl" unicode="&#xa0;" horiz-adv-x="1346" 
d="M848 0v1550h356v-1550h-356zM166 0l-0.000976562 757.997h-152v252h152v207c0 116.667 32 205.334 96 266.001c63.333 58.667 159 88 287 88c8.66699 0 30.334 -1.33301 65.001 -4c37.333 -6 64 -11 80 -15v-272c-12 4.66699 -27 9.33398 -45 14.001
c-18.667 2.66699 -31 4 -37 4c-34.667 0 -59 -10 -73 -30c-15.333 -21.333 -23 -53.666 -23 -96.999v-161h178v-252h-178v-758h-350z" />
    <glyph glyph-name="exclamdown" unicode="&#xa1;" horiz-adv-x="702" 
d="M166 1006h371v-1045h-371v1045zM150 1329c0 56.667 19.667 104.667 59 144c40.667 39.333 87.667 59 141 59c55.333 0 103.333 -19.667 144 -59c39.333 -40.667 59 -88.667 59 -144c0 -57.333 -19 -105 -57 -143c-40 -40 -88.667 -60 -146 -60c-56 0 -103 20 -141 60
c-39.333 39.333 -59 87 -59 143z" />
    <glyph glyph-name="cent" unicode="&#xa2;" horiz-adv-x="1280" 
d="M977 887c-36.667 32.667 -71.0029 55.666 -103.003 68.999c-28 14 -60.667 21 -98 21c-71.333 0 -127.333 -23.333 -168 -70c-42 -46 -63 -110 -63 -192c0 -77.333 21.667 -139.666 65 -186.999c42 -46 100 -69 174 -69c39.333 0 73.666 6.66699 102.999 20
c32 15.333 62 38 90 68v-309c-36.667 -18.667 -72.334 -33 -107.001 -43c-38 -12 -72.667 -19 -104 -21v-203h-115v203c-151.333 27.333 -264.666 86.666 -339.999 177.999c-77.333 89.333 -116 209.666 -116 360.999c0 144.667 40.667 265.334 122 362.001
c40.667 48.667 88.834 87.334 144.501 116.001s118.834 48.667 189.501 60v170h115v-168c44.667 -4.66699 82.334 -11.334 113.001 -20.001c32.667 -9.33301 65.334 -23.666 98.001 -42.999v-303z" />
    <glyph glyph-name="sterling" unicode="&#xa3;" horiz-adv-x="1280" 
d="M127 764l162 -0.000976562c-37.333 51.333 -64.666 101.666 -81.999 150.999c-18 47.333 -27 100 -27 158c0 118.667 46.333 216.334 139 293.001c94 75.333 215.667 113 365 113c156.667 0 278.334 -40.333 365.001 -121c84.667 -80.667 129 -197.334 133 -350.001h-344
c-2 62 -15.667 109 -41 141c-27.333 31.333 -67 47 -119 47c-44 0 -79.667 -13.667 -107 -41c-26 -26.667 -39 -61.334 -39 -104.001c0 -32 20.667 -89.333 62 -172c23.333 -51.333 40.333 -89.666 51 -114.999h334v-141h-315c0 -60.667 -13.667 -112.667 -41 -156
c-29.333 -44 -73 -76.667 -131 -98l4 -21c2 0.666992 5.16699 1.16699 9.5 1.5l13 1c4.33301 0.333008 7.5 0.833008 9.5 1.5c7.33301 1.33301 18.333 2 33 2c40.667 0 90 -8.66699 148 -26c60 -19.333 102.333 -29 127 -29c33.333 0 60.666 7.66699 81.999 23
c22.667 14.667 43 40.334 61 77.001l240 -190c-34.667 -82 -84 -143.333 -148 -184c-62.667 -42.667 -139 -64 -229 -64c-62.667 0 -139.5 17 -230.5 51s-153.5 51 -187.5 51c-30 0 -58 -6.66699 -84 -20c-20.667 -10.667 -46.667 -34 -78 -70l-180 222
c36.667 50.667 73.667 88.667 111 114c35.333 25.333 76.666 41 123.999 47c20 24 35 49.333 45 76c10 24.667 15 53.334 15 86.001c0 8.66699 -1.33301 23.667 -4 45c-2 17.333 -6.33301 37.333 -13 60h-233v141z" />
    <glyph glyph-name="currency" unicode="&#xa4;" horiz-adv-x="1241" 
d="M623 1145c-71.333 0 -133 -26 -185 -78c-50.667 -50.667 -76 -111.334 -76 -182.001c0 -72 25.333 -133.667 76 -185c50 -50 111.667 -75 185 -75c72.667 0 134 25 184 75c50.667 51.333 76 113 76 185c0 70.667 -25.333 131.334 -76 182.001c-52 52 -113.333 78 -184 78
zM178 1444l203.001 -200.999c34 24 72.333 42.333 115 55c38 12.667 79.667 19 125 19c47.333 0 91 -6.33301 131 -19c40.667 -12.667 78 -31 112 -55l201 201l119 -117l-201 -205c23.333 -35.333 40.833 -72.833 52.5 -112.5s17.5 -81.167 17.5 -124.5
s-5.66699 -85 -17 -125c-12.667 -40.667 -30.334 -78.334 -53.001 -113.001l201 -203l-119 -118l-201 202c-37.333 -25.333 -74 -43.666 -110 -54.999c-40.667 -12 -84.334 -18 -131.001 -18c-45.333 0 -87.666 6 -126.999 18c-38.667 10 -77 28.333 -115 55l-203 -202
l-117 118l201 203c-25.333 37.333 -43 75 -53 113c-12.667 41.333 -19 83 -19 125c0 43.333 6.33301 85.666 19 126.999c10 33.333 27.667 70 53 110l-201 205z" />
    <glyph glyph-name="yen" unicode="&#xa5;" horiz-adv-x="1161" 
d="M156 0v1464h897v-321h-508v-254h479v-314h-479v-247h508v-328h-897zM309 1526l160 278h248l164 -278h-138l-147 143l-150 -143h-137z" />
    <glyph glyph-name="brokenbar" unicode="&#xa6;" horiz-adv-x="1024" 
d="M393 408h240v-758h-240v758zM393 1432h240v-758h-240v758z" />
    <glyph glyph-name="section" unicode="&#xa7;" horiz-adv-x="1219" 
d="M283 844c-48.667 20.667 -86.333 54.002 -113 100.002c-26 41.333 -39 96 -39 164c0 59.333 11.167 112.666 33.5 159.999s55.5 89 99.5 125c89.333 70.667 209.666 106 360.999 106c150.667 0 268.667 -36 354 -108c82 -74 125 -179.333 129 -316h-371v21
c0 44 -12.333 78 -37 102c-24 24.667 -58 37 -102 37c-42.667 0 -76 -12.333 -100 -37c-26 -23.333 -39 -56 -39 -98c0 -73.333 64 -117 192 -131c47.333 -7.33301 76 -11.666 86 -12.999c147.333 -22 253.333 -66.333 318 -133c64 -66 96 -161.333 96 -286
c0 -84 -17.667 -153.667 -53 -209c-37.333 -56.667 -91.333 -97.667 -162 -123c52.667 -26 91 -59.667 115 -101c24 -42.667 36 -97 36 -163c0 -117.333 -44.333 -212.333 -133 -285c-90.667 -72.667 -210.667 -109 -360 -109c-152.667 0 -270.667 37.667 -354 113
c-84 76 -127 184 -129 324h370v-23c0 -45.333 11.667 -82.333 35 -111c24.667 -25.333 59.667 -38 105 -38c40.667 0 74.667 12 102 36c24.667 24.667 37 57.667 37 99c0 74 -65.667 119 -197 135c-18.667 2 -33.167 3.83301 -43.5 5.5s-23.166 3.16699 -38.499 4.5
c-148 23.333 -253.667 67.666 -317 132.999c-65.333 67.333 -98 163.666 -98 288.999c0 84 19 153.667 57 209c38 56 91.333 96.333 160 121zM612.001 707.002c-51.333 0 -93.833 -16.833 -127.5 -50.5s-50.5 -76.5 -50.5 -128.5c0 -55.333 16.333 -101 49 -137
c33.333 -35.333 74.333 -53 123 -53c50.667 0 93.667 17.667 129 53c34 34 51 77 51 129c0 54.667 -17 99 -51 133c-34 36 -75 54 -123 54z" />
    <glyph glyph-name="dieresis" unicode="&#xa8;" horiz-adv-x="1024" 
d="M563 1333c0 37.333 14.332 71 42.999 101c28.667 27.333 62.334 41 101.001 41c37.333 0 71.333 -13.667 102 -41c27.333 -27.333 41 -61 41 -101c0 -42 -13.667 -76 -41 -102c-26.667 -28.667 -60.667 -43 -102 -43c-42 0 -76.333 14.333 -103 43
c-27.333 27.333 -41 61.333 -41 102zM171.999 1333c0 38.667 14.3311 72.334 42.998 101.001c30.667 27.333 64.667 41 102 41c38.667 0 72.334 -13.667 101.001 -41c27.333 -28.667 41 -62.334 41 -101.001c0 -43.333 -13 -78 -39 -104
c-27.333 -27.333 -61.666 -41 -102.999 -41s-75.333 14.333 -102 43c-28.667 26 -43 60 -43 102z" />
    <glyph glyph-name="copyright" unicode="&#xa9;" horiz-adv-x="1706" 
d="M1221 891l-213 -0.000976562c-4 44 -19.667 78.667 -47 104c-26.667 24.667 -63 37 -109 37c-54.667 0 -97.667 -26 -129 -78c-31.333 -51.333 -47 -123 -47 -215c0 -95.333 16.333 -166.333 49 -213c31.333 -47.333 77 -71 137 -71c44 0 79.667 13.667 107 41
c26 26 41 64 45 114h215c-4 -96 -39.667 -172.333 -107 -229c-66.667 -58.667 -154.667 -88 -264 -88c-127.333 0 -227.666 39.667 -300.999 119c-74 76.667 -111 183 -111 319c0 138 37 248 111 330c74.667 80.667 174.334 121 299.001 121
c105.333 0 190.666 -26.667 255.999 -80c65.333 -51.333 101.666 -121.666 108.999 -210.999zM854 1350c-85.333 0 -164.001 -14.998 -236.001 -44.998c-76 -33.333 -140.667 -78 -194 -134c-60 -60 -105 -126.667 -135 -200c-31.333 -76.667 -47 -154.667 -47 -234
c0 -78 15.667 -154.333 47 -229c28 -70.667 73 -137.667 135 -201c56.667 -56.667 123 -101 199 -133c74 -31.333 151 -47 231 -47c79.333 0 157 15.667 233 47c76.667 31.333 144.334 76.333 203.001 135c57.333 55.333 100.333 119.666 129 192.999
c30 68.667 45 147 45 235c0 86 -15 164.667 -45 236c-30 74.667 -73.667 140 -131 196c-58.667 59.333 -124.667 104.666 -198 135.999c-74 30 -152.667 45 -236 45zM851.999 1485c100 0 197 -18.335 291 -55.002c90.667 -39.333 171 -94 241 -164
c71.333 -71.333 124.666 -151.333 159.999 -240c36.667 -89.333 55 -185.666 55 -288.999s-18.333 -198.666 -55 -285.999c-34.667 -90 -87.334 -169.333 -158.001 -238c-69.333 -70 -151.666 -125.333 -246.999 -166c-89.333 -38 -185 -57 -287 -57
c-100.667 0 -195 19 -283 57c-93.333 39.333 -174.333 94 -243 164c-74 74 -128.667 154.667 -164 242c-38.667 89.333 -58 184 -58 284c0 95.333 20 190.333 60 285c36.667 91.333 91.334 173.333 164.001 246c68 70 147 124 237 162c89.333 36.667 185 55 287 55z" />
    <glyph glyph-name="ordfeminine" unicode="&#xaa;" horiz-adv-x="1014" 
d="M676 1112c0 52.667 -15.667 96.332 -47 130.999c-31.333 31.333 -74.333 47 -129 47s-97 -15.667 -127 -47c-31.333 -33.333 -47 -77 -47 -131c0 -56 15.667 -99.667 47 -131c30 -31.333 72.333 -47 127 -47s97.667 15.667 129 47c31.333 32.667 47 76.334 47 131.001z
M911 1464v-706h-245v114c-34.667 -48.667 -73.667 -84 -117 -106c-43.333 -23.333 -95.333 -35 -156 -35c-101.333 0 -181.666 35 -240.999 105c-62 66.667 -93 158 -93 274c0 116.667 31.667 208 95 274c63.333 68.667 148.666 103 255.999 103
c58 0 107.667 -11.667 149 -35c40.667 -22 75.667 -56.667 105 -104v116h247z" />
    <glyph glyph-name="guillemotleft" unicode="&#xab;" horiz-adv-x="1753" 
d="M1659 729c0 -106 -18.998 -205.002 -56.998 -297.002c-38 -90 -94.667 -172 -170 -246c-74.667 -72 -160 -127.333 -256 -166c-100.667 -39.333 -200.334 -59 -299.001 -59c-100 0 -199.667 19.667 -299 59c-98 39.333 -182.667 94.666 -254 165.999
c-72 68.667 -128.667 151.334 -170 248.001c-40 94.667 -60 193 -60 295s20 200.333 60 295c41.333 96.667 98 179.334 170 248.001c73.333 73.333 158 129.333 254 168c93.333 38 193 57 299 57s206.333 -19.167 301 -57.5s179.167 -94.166 253.5 -167.499
s131.166 -156 170.499 -248c38 -92 57 -190.333 57 -295zM877.002 298.998c110 0 202 40.998 276 122.998c36.667 40.667 63.667 86.334 81 137.001s26 107.334 26 170.001c0 122 -36.333 224.333 -109 307c-74 82 -165.333 123 -274 123c-111.333 0 -203 -41 -275 -123
s-108 -184.333 -108 -307c0 -127.333 35.333 -230.333 106 -309c72.667 -80.667 165 -121 277 -121zM600.002 1559l160 278h248l163 -278h-137l-147 143l-150 -143h-137z" />
    <glyph glyph-name="logicalnot" unicode="&#xac;" horiz-adv-x="1706" 
d="M254 866h1198v-501h-229v274h-969v227z" />
    <glyph glyph-name="minus" unicode="&#xad;" horiz-adv-x="934" 
d="M127 340v326h680v-326h-680z" />
    <glyph glyph-name="registered" unicode="&#xae;" horiz-adv-x="1706" 
d="M762 1022v-219.001h80c50 0 86.667 8.66699 110 26c24.667 18.667 37 45.334 37 80.001c0 40 -13 68.667 -39 86c-22.667 18 -63 27 -121 27h-67zM537 1163l329 -0.000976562c116.667 0 204.667 -19.667 264 -59c60.667 -41.333 91 -100.666 91 -177.999
c0 -54 -15 -100.667 -45 -140c-30.667 -38 -73.667 -65 -129 -81l182 -361h-248l-154 326h-65v-326h-225v819zM854 1350c-81.333 0 -158.336 -14.333 -231.003 -43c-32 -13.333 -65.5 -31.333 -100.5 -54s-66.5 -47.667 -94.5 -75
c-62 -62.667 -107.667 -130.334 -137 -203.001c-31.333 -76.667 -47 -156 -47 -238c0 -82.667 15 -159 45 -229c28 -72 71 -137 129 -195c60 -60 126 -106.333 198 -139c76.667 -31.333 155.334 -47 236.001 -47c82.667 0 160.334 15 233.001 45
c74.667 31.333 141 75 199 131c56.667 52.667 101 118.334 133 197.001c31.333 74 47 153 47 237c0 84.667 -15 162.667 -45 234c-28.667 72 -71 136.667 -127 194c-60 60.667 -126.667 106.667 -200 138c-77.333 31.333 -156.666 47 -237.999 47zM851.997 1485
c105.333 0 203.668 -19.333 295.001 -58c89.333 -36.667 170.666 -92.334 243.999 -167.001c68.667 -72 120.334 -151.333 155.001 -238c35.333 -88.667 53 -183.667 53 -285c0 -105.333 -19 -202.333 -57 -291c-37.333 -92 -92 -171.667 -164 -239
c-68.667 -68 -150.334 -122 -245.001 -162c-90 -36.667 -183.667 -55 -281 -55c-103.333 0 -199 19 -287 57c-90 38 -171 94.667 -243 170c-70.667 70.667 -124 151.334 -160 242.001c-38.667 87.333 -58 180 -58 278s20 194.167 60 288.5s96.667 177.166 170 248.499
c70.667 70.667 149.667 123.334 237 158.001c91.333 35.333 185 53 281 53z" />
    <glyph glyph-name="macron" unicode="&#xaf;" horiz-adv-x="1024" 
d="M205 1247v168h614v-168h-614z" />
    <glyph glyph-name="ring" unicode="&#xb0;" horiz-adv-x="1024" 
d="M397 1399c0 -31.333 11.002 -57.999 33.002 -79.999c23.333 -23.333 50.666 -35 81.999 -35s58.666 11.667 81.999 35c22 22 33 48.667 33 80s-11 58.666 -33 81.999c-22 21.333 -49.333 32 -82 32s-60 -10.667 -82 -32c-22 -22.667 -33 -50 -33 -82zM242.002 1399
c0 77.333 26.666 141.333 79.999 192c50.667 53.333 114 80 190 80c77.333 0 141.666 -26.667 192.999 -80c52.667 -52.667 79 -116.667 79 -192s-26.333 -139.666 -79 -192.999c-53.333 -52 -117.666 -78 -192.999 -78s-139.666 26 -192.999 78
c-51.333 51.333 -77 115.666 -77 192.999z" />
    <glyph glyph-name="plusminus" unicode="&#xb1;" horiz-adv-x="1753" 
d="M1659 729l-2.00293 2c0 -106.667 -19.333 -205.667 -58 -297c-36.667 -89.333 -93 -171.333 -169 -246c-75.333 -72 -160.666 -127 -255.999 -165c-99.333 -40 -199.333 -60 -300 -60c-100 0 -199.667 20 -299 60c-97.333 38.667 -181.666 93.667 -252.999 165
c-74 70 -130.833 152.5 -170.5 247.5s-59.5 193.5 -59.5 295.5s20 200.333 60 295c39.333 95.333 96 178 170 248c71.333 72.667 155.666 128.667 252.999 168c94.667 38 194.334 57 299.001 57c106.667 0 207.334 -19 302.001 -57
c96.667 -39.333 181.334 -95.333 254.001 -168c51.333 -47.333 90.666 -100.666 117.999 -159.999c36.667 9.33301 66 26.333 88 51s38.167 59.667 48.5 105s15.5 102.666 15.5 171.999v57h147c-2 -172.667 -25.833 -295 -71.5 -367s-103.5 -108 -173.5 -108
c38 -92 57 -190.333 57 -295zM873.997 301c110.667 0 203 41 277 123c70.667 78.667 106 181 106 307c0 122.667 -36 225 -108 307c-74 82 -165.667 123 -275 123c-110.667 0 -202 -41 -274 -123s-108 -184.333 -108 -307c0 -127.333 35.333 -230.333 106 -309
c72.667 -80.667 164.667 -121 276 -121z" />
    <glyph glyph-name="twosuperior" unicode="&#xb2;" horiz-adv-x="846" 
d="M764 575l-737.001 0.00488281l432 467c28 31.333 47.667 57.333 59 78c12.667 24 19 45.333 19 64c0 31.333 -10.333 56.666 -31 75.999c-24 18.667 -52.667 28 -86 28c-40.667 0 -72 -12.333 -94 -37c-22 -21.333 -33 -55.333 -33 -102v-12h-234v6
c0 99.333 32.333 177.666 97 234.999c62 57.333 149.333 86 262 86c108.667 0 195.334 -25 260.001 -75c64 -52.667 96 -120.334 96 -203.001c0 -40.667 -10.333 -80.334 -31 -119.001c-18 -38.667 -51.333 -82.334 -100 -131.001l-176 -174h297v-187z" />
    <glyph glyph-name="threesuperior" unicode="&#xb3;" horiz-adv-x="846" 
d="M55 866h246.002v-14c0 -39.333 10.333 -68 31 -86c18 -20.667 46.667 -31 86 -31s70.666 9.66699 93.999 29c20.667 18.667 31 46 31 82c0 40.667 -11.667 70.667 -35 90c-24.667 19.333 -61 29 -109 29h-16c-5.33301 0 -9.33301 -0.666992 -12 -2v141h12
c46.667 0 80.667 8.66699 102 26c24.667 18.667 37 44 37 76c0 25.333 -9.33301 48 -28 68c-20.667 16 -46.667 24 -78 24c-34 0 -60.167 -8.16699 -78.5 -24.5s-28.5 -39.5 -30.5 -69.5h-233c2 81.333 34 145 96 191c60.667 44.667 146.667 67 258 67
c98.667 0 175.667 -19.667 231 -59c57.333 -40.667 86 -96 86 -166c0 -45.333 -12.667 -83 -38 -113c-27.333 -30.667 -65.666 -53 -114.999 -67c59.333 -10 105.666 -34.667 138.999 -74c34 -36 51 -83.667 51 -143c0 -88 -33.333 -157 -100 -207
c-66.667 -53.333 -153.334 -80 -260.001 -80c-112 0 -201.333 27.333 -268 82c-66 54.667 -99 129 -99 223v8z" />
    <glyph glyph-name="acute" unicode="&#xb4;" horiz-adv-x="1024" 
d="M801 1497l-309 -350h-154l182 350h281z" />
    <glyph glyph-name="mu" unicode="&#xb5;" horiz-adv-x="1315" 
d="M193 1090l358.001 -0.000976562l-80 -529c-2.66699 -16 -5.33398 -42 -8.00098 -78c-2.66699 -32 -4 -53.667 -4 -65c0 -57.333 12.333 -99.666 37 -126.999c22 -28.667 57.333 -43 106 -43c59.333 0 105.666 22.833 138.999 68.5s58 119.167 74 220.5l88 553h357
l-175 -1090h-321l18 125c-24.667 -48 -54.667 -84.333 -90 -109c-32 -21.333 -71.667 -32 -119 -32c-39.333 0 -74.666 10 -105.999 30c-30 20.667 -56 50.667 -78 90l-82 -532h-352z" />
    <glyph glyph-name="paragraph" unicode="&#xb6;" horiz-adv-x="1024" 
d="M997 1479l-0.00292969 -123h-106v-1356h-176v1356h-150v-1356h-174v784c-109.333 4 -196.666 37.667 -261.999 101c-66.667 62 -100 143.667 -100 245c0 107.333 35.333 192 106 254c36.667 32.667 78.334 56.667 125.001 72s99.334 23 158.001 23h579z" />
    <glyph glyph-name="periodcentered" unicode="&#xb7;" horiz-adv-x="1597" 
d="M145 1464l399.999 0.00292969v-712c0 -108.667 2.66699 -184 8 -226c6.66699 -50 15.667 -88 27 -114c14 -38 40.333 -66 79 -84c38.667 -20.667 85.334 -31 140.001 -31c54 0 100.333 10.333 139 31c35.333 17.333 62 45.333 80 84
c10.667 26.667 19.334 64.667 26.001 114c6 40 9 115.333 9 226v100v612h397v-366c36 9.33301 61.667 35.166 77 77.499s23 111.166 23 206.499c0 16 -0.166992 29.5 -0.5 40.5s-0.833008 22.833 -1.5 35.5h148c-2 -172.667 -25.833 -295 -71.5 -367
s-103.834 -108 -174.501 -108v-293c0 -158.667 -9.66699 -276.667 -29 -354c-18 -76.667 -50.667 -142.334 -98 -197.001c-52 -60.667 -121 -105 -207 -133c-85.333 -30 -191 -45 -317 -45c-128.667 0 -234.667 15 -318 45c-84.667 28 -153.667 72.333 -207 133
c-46 53.333 -78.667 119 -98 197c-20.667 78.667 -31 196.667 -31 354v152v622z" />
    <glyph glyph-name="periodcentered" unicode="&#x2219;" horiz-adv-x="1597" 
d="M145 1464l399.999 0.00292969v-712c0 -108.667 2.66699 -184 8 -226c6.66699 -50 15.667 -88 27 -114c14 -38 40.333 -66 79 -84c38.667 -20.667 85.334 -31 140.001 -31c54 0 100.333 10.333 139 31c35.333 17.333 62 45.333 80 84
c10.667 26.667 19.334 64.667 26.001 114c6 40 9 115.333 9 226v100v612h397v-366c36 9.33301 61.667 35.166 77 77.499s23 111.166 23 206.499c0 16 -0.166992 29.5 -0.5 40.5s-0.833008 22.833 -1.5 35.5h148c-2 -172.667 -25.833 -295 -71.5 -367
s-103.834 -108 -174.501 -108v-293c0 -158.667 -9.66699 -276.667 -29 -354c-18 -76.667 -50.667 -142.334 -98 -197.001c-52 -60.667 -121 -105 -207 -133c-85.333 -30 -191 -45 -317 -45c-128.667 0 -234.667 15 -318 45c-84.667 28 -153.667 72.333 -207 133
c-46 53.333 -78.667 119 -98 197c-20.667 78.667 -31 196.667 -31 354v152v622z" />
    <glyph glyph-name="cedilla" unicode="&#xb8;" horiz-adv-x="1024" 
d="M272 -440l-0.00195312 138.999c70 -18 120 -29 150 -33c46.667 -8 87 -12 121 -12c29.333 0 51 6 65 18c14 10 21 28 21 54c0 20.667 -9.66699 37 -29 49c-16.667 9.33301 -46.667 14 -90 14h-33c-5.33301 -1.33301 -12.666 -2 -21.999 -2v213h114v-84h19
c74.667 0 131.334 -16.333 170.001 -49c39.333 -33.333 59 -81 59 -143c0 -67.333 -21.667 -118.666 -65 -153.999c-44.667 -36.667 -107.667 -55 -189 -55c-40.667 0 -85.667 4 -135 12c-42 5.33301 -94 16.333 -156 33z" />
    <glyph glyph-name="onesuperior" unicode="&#xb9;" horiz-adv-x="846" 
d="M324 575v672h-207l112 199h334v-871h-239z" />
    <glyph glyph-name="degree" unicode="&#xba;" horiz-adv-x="674" 
d="M338 1321c-46.667 0 -85.668 -15.667 -117.001 -47c-32.667 -32.667 -49 -71.667 -49 -117c0 -46 15.667 -85.667 47 -119c34.667 -31.333 74.334 -47 119.001 -47c44 0 83 16.333 117 49c31.333 34.667 47 73.667 47 117s-15.667 82.333 -47 117
c-33.333 31.333 -72.333 47 -117 47zM337.999 1466c87.333 0 160.334 -30.668 219.001 -92.001c61.333 -59.333 92 -132.333 92 -219s-30.667 -159.667 -92 -219c-58.667 -61.333 -132.334 -92 -221.001 -92c-87.333 0 -160.333 30.667 -219 92
c-60 58.667 -90 131.667 -90 219c0 88.667 30.667 162.334 92 221.001c58.667 60 131.667 90 219 90z" />
    <glyph glyph-name="guillemotright" unicode="&#xbb;" horiz-adv-x="1114" 
d="M709 991l360 -489l-360 -488l-191 140l262 348l-262 356zM236 991l358 -489l-358 -488l-191 140l262 348l-262 356z" />
    <glyph glyph-name="onequarter" unicode="&#xbc;" horiz-adv-x="1956" 
d="M1604 346l-0.000976562 238.001c0 32.667 0.666992 53 2 61c0 7.33301 1.33301 17.666 4 30.999c-8.66699 -18 -17.667 -33.667 -27 -47c-7.33301 -14 -19.666 -32 -36.999 -54l-168 -229h226zM1604 0.000976562v184h-420v162l344 469h284v-469h103v-162h-103v-184h-208z
M464.999 -38.999l835 1518h189l-840 -1518h-184zM308.999 633.001v627h-196l108 184h318v-811h-230z" />
    <glyph glyph-name="onehalf" unicode="&#xbd;" horiz-adv-x="1352" 
d="M903 504c0 79.333 -20.335 141.332 -61.002 185.999c-43.333 45.333 -100.666 68 -171.999 68c-72 0 -128.667 -22.667 -170 -68s-62 -107.333 -62 -186c0 -79.333 20.667 -141.666 62 -186.999c40.667 -44.667 97.334 -67 170.001 -67c72 0 129.333 22.333 172 67
c40.667 44.667 61 107 61 187zM1219 1550l0.000976562 -234.999h131v-115h-131v-1202h-328v164c-45.333 -68.667 -96.666 -119.334 -153.999 -152.001c-53.333 -34 -116 -51 -188 -51c-141.333 0 -254 49 -338 147c-84.667 100 -127 232 -127 396
c0 160 42.333 290.333 127 391c84 98 192.667 147 326 147c85.333 0 154.666 -15.667 207.999 -47c51.333 -28.667 99.333 -79.667 144 -153c-2.66699 18 -5.33398 45.333 -8.00098 82c-2.66699 40 -4 72.667 -4 98v180h-373v115h373v235h342z" />
    <glyph glyph-name="threequarters" unicode="&#xbe;" horiz-adv-x="1956" 
d="M1604 346l-0.000976562 238.001c0 32.667 0.666992 53 2 61c0 7.33301 1.33301 17.666 4 30.999c-8.66699 -18 -17.667 -33.667 -27 -47c-7.33301 -14 -19.666 -32 -36.999 -54l-168 -229h226zM1604 0.000976562v184h-420v162l344 469h284v-469h103v-162h-103v-184h-208z
M464.999 -38.999l835 1518h189l-840 -1518h-184zM52.999 905.001h234v-14c0 -34.667 9.33301 -61.334 28 -80.001c20.667 -19.333 48.667 -29 84 -29c38.667 0 68 9 88 27c20.667 18 31 43.333 31 76c0 38 -11 66 -33 84c-21.333 17.333 -56 26 -104 26h-16
c-3.33301 -1.33301 -7 -2 -11 -2v133h13c41.333 0 74 8.33301 98 25c22 16 33 40 33 72c0 24 -9.66699 43.667 -29 59c-18.667 16.667 -43.334 25 -74.001 25c-28.667 0 -53 -7.66699 -73 -23c-18 -15.333 -27 -37 -27 -65h-223c2 76.667 32 136.667 90 180
c58.667 40.667 140.667 61 246 61c93.333 0 167.666 -18.333 222.999 -55c53.333 -39.333 80 -91.333 80 -156c0 -39.333 -12.333 -74 -37 -104c-23.333 -26.667 -59.666 -48 -108.999 -64c60 -10 105 -31.667 135 -65c32 -36 48 -81.667 48 -137
c0 -78.667 -32.333 -143.667 -97 -195c-63.333 -49.333 -146 -74 -248 -74c-105.333 0 -190.666 26 -255.999 78c-62.667 50.667 -94 120.334 -94 209.001v8z" />
    <glyph glyph-name="questiondown" unicode="&#xbf;" horiz-adv-x="1239" 
d="M834 1329c0 -55.333 -20 -103.001 -60 -143.001s-87.667 -60 -143 -60c-56 0 -104 20 -144 60c-38 38.667 -57 86.334 -57 143.001c0 58 19 106.667 57 146c38.667 38 86.667 57 144 57c54.667 0 102.167 -19.833 142.5 -59.5s60.5 -87.5 60.5 -143.5zM446 996.999
h346.998v-413h-107c-75.333 0 -132.666 -15 -171.999 -45c-40.667 -30.667 -61 -76 -61 -136c0 -46 15.667 -84 47 -114c30 -31.333 66.667 -47 110 -47c48 0 85 13 111 39c26.667 23.333 41 59.333 43 108h342v-4c0 -130 -46.333 -234.333 -139 -313
c-92.667 -78 -217 -117 -373 -117c-141.333 0 -254.666 41.667 -339.999 125c-87.333 81.333 -131 189 -131 323c0 108.667 30 199.667 90 273c60 70 137.667 106 233 108v213z" />
    <glyph glyph-name="Agrave" unicode="&#xc0;" horiz-adv-x="1479" 
d="M543 547l396.999 -0.000976562l-149 483c-3.33301 8.66699 -9.66602 32.667 -18.999 72l-31 125c-9.33301 -34 -17.333 -68.333 -24 -103c-10.667 -33.333 -19.667 -64.666 -27 -93.999zM-16.001 -0.000976562l505 1464h500l506 -1464h-397l-74 262h-567l-76 -262h-397z
M507.999 1855h223l146 -278h-123z" />
    <glyph glyph-name="Aacute" unicode="&#xc1;" horiz-adv-x="1479" 
d="M543 547l396.999 -0.000976562l-149 483c-3.33301 8.66699 -9.66602 32.667 -18.999 72l-31 125c-9.33301 -34 -17.333 -68.333 -24 -103c-10.667 -33.333 -19.667 -64.666 -27 -93.999zM-16.001 -0.000976562l505 1464h500l506 -1464h-397l-74 262h-567l-76 -262h-397z
M976.999 1845l-246 -278h-123l146 278h223z" />
    <glyph glyph-name="Acircumflex" unicode="&#xc2;" horiz-adv-x="1479" 
d="M543 547l396.999 -0.000976562l-149 483c-3.33301 8.66699 -9.66602 32.667 -18.999 72l-31 125c-9.33301 -34 -17.333 -68.333 -24 -103c-10.667 -33.333 -19.667 -64.666 -27 -93.999zM-16.001 -0.000976562l505 1464h500l506 -1464h-397l-74 262h-567l-76 -262h-397z
M448.999 1526l159 278h248l164 -278h-137l-148 143l-149 -143h-137z" />
    <glyph glyph-name="Atilde" unicode="&#xc3;" horiz-adv-x="1479" 
d="M543 547l396.999 -0.000976562l-149 483c-3.33301 8.66699 -9.66602 32.667 -18.999 72l-31 125c-9.33301 -34 -17.333 -68.333 -24 -103c-10.667 -33.333 -19.667 -64.666 -27 -93.999zM-16.001 -0.000976562l505 1464h500l506 -1464h-397l-74 262h-567l-76 -262h-397z
M986.999 1798l-4 -4c-16 -68 -37 -117 -63 -147c-27.333 -33.333 -63 -50 -107 -50h-29h-24l-74 21c-22.667 6.66699 -39 10 -49 10c-16 0 -29 -4 -39 -12c-8 -8 -17 -24.333 -27 -49h-94c15.333 68 36 117 62 147c26 32.667 60.667 49 104 49h27c10 0 23.667 -2 41 -6
l73 -20h21h24c18 0 31.667 4.66699 41 14c11.333 10 19 25.667 23 47h94z" />
    <glyph glyph-name="Adieresis" unicode="&#xc4;" horiz-adv-x="1479" 
d="M543 547l396.999 -0.000976562l-149 483c-3.33301 8.66699 -9.66602 32.667 -18.999 72l-31 125c-9.33301 -34 -17.333 -68.333 -24 -103c-10.667 -33.333 -19.667 -64.666 -27 -93.999zM-16.001 -0.000976562l505 1464h500l506 -1464h-397l-74 262h-567l-76 -262h-397z
M775.999 1710c0 34.667 12.334 64 37.001 88c23.333 23.333 52.666 35 87.999 35s65.333 -11.667 90 -35c23.333 -22 35 -51.333 35 -88c0 -38 -11.667 -68 -35 -90c-22 -24.667 -52 -37 -90 -37c-37.333 0 -67.333 12.333 -90 37c-23.333 22 -35 52 -35 90zM426 1710
l0.000976562 -2.00098c0 34.667 12.333 63.834 37 87.501s54.667 35.5 90 35.5s64.666 -11.667 87.999 -35c23.333 -22 35 -51.333 35 -88c0 -38.667 -11 -68.667 -33 -90c-22 -23.333 -52 -35 -90 -35s-68 12.333 -90 37c-24.667 22 -37 52 -37 90z" />
    <glyph glyph-name="Aring" unicode="&#xc5;" horiz-adv-x="1479" 
d="M543 547l396.999 -0.000976562l-149 483c-3.33301 8.66699 -9.66602 32.667 -18.999 72l-31 125c-9.33301 -34 -17.333 -68.333 -24 -103c-10.667 -33.333 -19.667 -64.666 -27 -93.999zM-16.001 -0.000976562l505 1464h500l506 -1464h-397l-74 262h-567l-76 -262h-397z
M673.999 1772l-2 -0.000976562c0 -22 7.33301 -40.667 22 -56c16.667 -16 36 -24 58 -24c20.667 0 39 8 55 24c14.667 15.333 22 34 22 56c0 21.333 -7.33301 39.5 -22 54.5s-33 22.5 -55 22.5s-40.667 -7.33301 -56 -22c-14.667 -15.333 -22 -33.666 -22 -54.999z
M554.999 1772c0 58 19 105 57 141c36 38 82.667 57 140 57c58 0 105 -19 141 -57c38 -38 57 -85 57 -141c0 -56.667 -19 -104 -57 -142c-36.667 -36.667 -83.667 -55 -141 -55c-58 0 -105.333 18.333 -142 55s-55 84 -55 142z" />
    <glyph glyph-name="AE" unicode="&#xc6;" 
d="M-430 2109l-246 -278h-123l146 278h223z" />
    <glyph glyph-name="Ccedilla" unicode="&#xc7;" horiz-adv-x="1286" 
d="M1217 1407l-0.00195312 -436.006c-57.333 62 -111.333 107 -162 135c-56.667 27.333 -115.334 41 -176.001 41c-114 0 -207 -39 -279 -117c-24.667 -28 -44.667 -57.167 -60 -87.5s-26.833 -64.666 -34.5 -102.999s-11.5 -77.166 -11.5 -116.499
c0 -117.333 36 -215 108 -293c72.667 -76.667 165 -115 277 -115c60 0 118.667 14.333 176 43c50.667 26 104.667 70.667 162 134v-437c-74 -34.667 -137 -57.667 -189 -69c-64.667 -15.333 -128 -23 -190 -23c-78.667 0 -152.667 9.5 -222 28.5s-131.333 47.833 -186 86.5
c-109.333 74.667 -192.666 166.667 -249.999 276c-57.333 113.333 -86 239 -86 377c0 110.667 18.667 212.334 56 305.001c16.667 44.667 37.834 86.834 63.501 126.501s58.834 80.834 99.501 123.501c70 72 148.667 125.333 236 160c86.667 35.333 183 53 289 53
c60.667 0 124 -7.33301 190 -22c65.333 -17.333 128.333 -40.666 189 -69.999zM499.998 -432.006l-8 125c60 -15.333 103.667 -24.333 131 -27c36.667 -5.33301 72 -8 106 -8c25.333 0 43.666 4.66699 54.999 14c11.333 8 17 23 17 45c0 19.333 -8.33301 33 -25 41
c-13.333 7.33301 -40 11 -80 11h-26h-17v190h103v-74h16c66.667 0 117.334 -14.333 152.001 -43c35.333 -29.333 53 -71 53 -125c0 -58.667 -18.333 -103.667 -55 -135c-38.667 -32.667 -94 -49 -166 -49c-41.333 0 -81 2.66699 -119 8c-29.333 2.66699 -75 11.667 -137 27z
" />
    <glyph glyph-name="Egrave" unicode="&#xc8;" horiz-adv-x="1161" 
d="M156 0v1464h897v-321h-508v-254h479v-314h-479v-247h508v-328h-897zM371 1845h223l145 -278h-123z" />
    <glyph glyph-name="Eacute" unicode="&#xc9;" horiz-adv-x="1161" 
d="M156 0v1464h897v-321h-508v-254h479v-314h-479v-247h508v-328h-897zM870 1845l-245 -278h-123l145 278h223z" />
    <glyph glyph-name="Ecircumflex" unicode="&#xca;" horiz-adv-x="1161" 
d="M156 0v1464h897v-321h-508v-254h479v-314h-479v-247h508v-328h-897zM309 1526l160 278h248l164 -278h-138l-147 143l-150 -143h-137z" />
    <glyph glyph-name="Edieresis" unicode="&#xcb;" horiz-adv-x="1161" 
d="M156 0v1464h897v-321h-508v-254h479v-314h-479v-247h508v-328h-897zM637 1690c0 34 12.333 63.334 37 88.001c22.667 22.667 52 34 88 34c34 0 64 -11.333 90 -34c23.333 -24.667 35 -54 35 -88c0 -36 -11.667 -66.333 -35 -91c-22.667 -24 -52.667 -36 -90 -36
c-38 0 -68 12 -90 36c-23.333 23.333 -35 53.666 -35 90.999zM287 1690v-2.00098c0 34 12.333 63.333 37 88c24.667 22.667 54.667 34 90 34c34.667 0 64 -11.333 88 -34c23.333 -24.667 35 -54 35 -88c0 -37.333 -11 -67.666 -33 -90.999c-24 -22.667 -54 -34 -90 -34
c-38 0 -68 12 -90 36c-24.667 22.667 -37 53 -37 91z" />
    <glyph glyph-name="Igrave" unicode="&#xcc;" horiz-adv-x="735" 
d="M166 0v1464h403v-1464h-403zM164 1876h223l145 -279h-122z" />
    <glyph glyph-name="Iacute" unicode="&#xcd;" horiz-adv-x="735" 
d="M166 0v1464h403v-1464h-403zM592 1855l-246 -278h-123l146 278h223z" />
    <glyph glyph-name="Icircumflex" unicode="&#xce;" horiz-adv-x="735" 
d="M166 0v1464h403v-1464h-403zM53 1587l160 279h248l164 -279h-138l-147 144l-150 -144h-137z" />
    <glyph glyph-name="Idieresis" unicode="&#xcf;" horiz-adv-x="735" 
d="M166 0v1464h403v-1464h-403zM412 1710c0 34.667 12.333 63.999 37 87.999c22 23.333 51.333 35 88 35c34.667 0 64.667 -11.667 90 -35c23.333 -23.333 35 -52.666 35 -87.999c0 -36.667 -11.667 -66.667 -35 -90c-22.667 -24.667 -52.667 -37 -90 -37
c-38 0 -68.333 12.333 -91 37c-22.667 22.667 -34 52.667 -34 90zM61 1710l-0.000976562 -2c0 34 12.333 63.333 37 88c25.333 23.333 55.333 35 90 35c36.667 0 66 -11.667 88 -35c23.333 -22 35 -51.333 35 -88c0 -38.667 -10.667 -68.667 -32 -90
c-23.333 -23.333 -53.666 -35 -90.999 -35s-67.333 12.333 -90 37c-24.667 22.667 -37 52.667 -37 90z" />
    <glyph glyph-name="Eth" unicode="&#xd0;" horiz-adv-x="1591" 
d="M178 0l-0.000976562 614h-178v258h178v592h303c122.667 0 222.334 -2.66699 299.001 -8s139 -13.333 187 -24c94.667 -21.333 177 -57 247 -107c93.333 -63.333 163.666 -146 210.999 -248c48 -100 72 -215.333 72 -346s-24 -246 -72 -346
c-47.333 -101.333 -117.666 -184 -210.999 -248c-72 -49.333 -152.333 -84 -241 -104c-88 -22 -229.333 -33 -424 -33h-68h-303zM570.999 328l70 0.000976562c156.667 0 270.667 32.667 342 98c72.667 63.333 109 165 109 305c0 139.333 -36.333 241.666 -109 306.999
c-72 66 -186 99 -342 99h-70v-265h273v-258h-273v-286z" />
    <glyph glyph-name="Ntilde" unicode="&#xd1;" horiz-adv-x="1745" 
d="M156 0v1464h385l553 -753c14 -20.667 31.667 -51.667 53 -93c27.333 -53.333 54 -108.333 80 -165c-10 76.667 -15.667 130.334 -17 161.001c-4 48 -6 90.333 -6 127v723h383v-1464h-383l-553 756c-8 10.667 -25.667 42 -53 94c-24 42.667 -50.667 96.667 -80 162
c6.66699 -52 13 -106 19 -162c2.66699 -62.667 4 -105 4 -127v-723h-385zM1108 1812l-4.00098 -4.00098c-17.333 -69.333 -38.666 -118.333 -63.999 -147c-26 -32.667 -61.333 -49 -106 -49h-29h-24l-74 20c-22.667 6.66699 -39 10 -49 10c-16 0 -29 -4 -39 -12
c-10 -10 -19 -26.333 -27 -49h-94c14 66.667 34.333 116 61 148c27.333 32.667 62.333 49 105 49h27c10.667 0 24 -2 40 -6l74 -21h21h24c18 0 31.667 4.66699 41 14c11.333 12.667 19 28.334 23 47.001h94z" />
    <glyph glyph-name="Ograve" unicode="&#xd2;" horiz-adv-x="1753" 
d="M1659 729c0 -106 -18.998 -205.002 -56.998 -297.002c-38 -90 -94.667 -172 -170 -246c-74.667 -72 -160 -127.333 -256 -166c-100.667 -39.333 -200.334 -59 -299.001 -59c-100 0 -199.667 19.667 -299 59c-98 39.333 -182.667 94.666 -254 165.999
c-72 68.667 -128.667 151.334 -170 248.001c-40 94.667 -60 193 -60 295s20 200.333 60 295c41.333 96.667 98 179.334 170 248.001c73.333 73.333 158 129.333 254 168c93.333 38 193 57 299 57s206.333 -19.167 301 -57.5s179.167 -94.166 253.5 -167.499
s131.166 -156 170.499 -248c38 -92 57 -190.333 57 -295zM877.002 298.998c110 0 202 40.998 276 122.998c36.667 40.667 63.667 86.334 81 137.001s26 107.334 26 170.001c0 122 -36.333 224.333 -109 307c-74 82 -165.333 123 -274 123c-111.333 0 -203 -41 -275 -123
s-108 -184.333 -108 -307c0 -127.333 35.333 -230.333 106 -309c72.667 -80.667 165 -121 277 -121zM643.002 1878h223l146 -279h-123z" />
    <glyph glyph-name="Oacute" unicode="&#xd3;" horiz-adv-x="1753" 
d="M1659 729c0 -106 -18.998 -205.002 -56.998 -297.002c-38 -90 -94.667 -172 -170 -246c-74.667 -72 -160 -127.333 -256 -166c-100.667 -39.333 -200.334 -59 -299.001 -59c-100 0 -199.667 19.667 -299 59c-98 39.333 -182.667 94.666 -254 165.999
c-72 68.667 -128.667 151.334 -170 248.001c-40 94.667 -60 193 -60 295s20 200.333 60 295c41.333 96.667 98 179.334 170 248.001c73.333 73.333 158 129.333 254 168c93.333 38 193 57 299 57s206.333 -19.167 301 -57.5s179.167 -94.166 253.5 -167.499
s131.166 -156 170.499 -248c38 -92 57 -190.333 57 -295zM877.002 298.998c110 0 202 40.998 276 122.998c36.667 40.667 63.667 86.334 81 137.001s26 107.334 26 170.001c0 122 -36.333 224.333 -109 307c-74 82 -165.333 123 -274 123c-111.333 0 -203 -41 -275 -123
s-108 -184.333 -108 -307c0 -127.333 35.333 -230.333 106 -309c72.667 -80.667 165 -121 277 -121zM1184 1878l-246 -279h-123l146 279h223z" />
    <glyph glyph-name="Ocircumflex" unicode="&#xd4;" horiz-adv-x="1753" 
d="M1659 729c0 -106 -18.998 -205.002 -56.998 -297.002c-38 -90 -94.667 -172 -170 -246c-74.667 -72 -160 -127.333 -256 -166c-100.667 -39.333 -200.334 -59 -299.001 -59c-100 0 -199.667 19.667 -299 59c-98 39.333 -182.667 94.666 -254 165.999
c-72 68.667 -128.667 151.334 -170 248.001c-40 94.667 -60 193 -60 295s20 200.333 60 295c41.333 96.667 98 179.334 170 248.001c73.333 73.333 158 129.333 254 168c93.333 38 193 57 299 57s206.333 -19.167 301 -57.5s179.167 -94.166 253.5 -167.499
s131.166 -156 170.499 -248c38 -92 57 -190.333 57 -295zM877.002 298.998c110 0 202 40.998 276 122.998c36.667 40.667 63.667 86.334 81 137.001s26 107.334 26 170.001c0 122 -36.333 224.333 -109 307c-74 82 -165.333 123 -274 123c-111.333 0 -203 -41 -275 -123
s-108 -184.333 -108 -307c0 -127.333 35.333 -230.333 106 -309c72.667 -80.667 165 -121 277 -121zM600.002 1559l160 278h248l163 -278h-137l-147 143l-150 -143h-137z" />
    <glyph glyph-name="Otilde" unicode="&#xd5;" horiz-adv-x="1753" 
d="M1659 729c0 -106 -18.998 -205.002 -56.998 -297.002c-38 -90 -94.667 -172 -170 -246c-74.667 -72 -160 -127.333 -256 -166c-100.667 -39.333 -200.334 -59 -299.001 -59c-100 0 -199.667 19.667 -299 59c-98 39.333 -182.667 94.666 -254 165.999
c-72 68.667 -128.667 151.334 -170 248.001c-40 94.667 -60 193 -60 295s20 200.333 60 295c41.333 96.667 98 179.334 170 248.001c73.333 73.333 158 129.333 254 168c93.333 38 193 57 299 57s206.333 -19.167 301 -57.5s179.167 -94.166 253.5 -167.499
s131.166 -156 170.499 -248c38 -92 57 -190.333 57 -295zM877.002 298.998c110 0 202 40.998 276 122.998c36.667 40.667 63.667 86.334 81 137.001s26 107.334 26 170.001c0 122 -36.333 224.333 -109 307c-74 82 -165.333 123 -274 123c-111.333 0 -203 -41 -275 -123
s-108 -184.333 -108 -307c0 -127.333 35.333 -230.333 106 -309c72.667 -80.667 165 -121 277 -121zM1133 1831l-5.00195 -4.00195c-16 -69.333 -37 -118.666 -63 -147.999c-27.333 -32.667 -63 -49 -107 -49h-28h-25l-74 21c-21.333 6.66699 -37.666 10 -48.999 10
c-14.667 0 -27.667 -4 -39 -12c-9.33301 -10 -18 -26.667 -26 -50h-94c14 68 34.333 117.333 61 148c26.667 32.667 61.334 49 104.001 49h27c11.333 0 25 -2 41 -6l74 -21h20h25c17.333 0 31 5 41 15c10.667 10.667 18 26.334 22 47.001h95z" />
    <glyph glyph-name="Odieresis" unicode="&#xd6;" horiz-adv-x="1753" 
d="M1659 729c0 -106 -18.998 -205.002 -56.998 -297.002c-38 -90 -94.667 -172 -170 -246c-74.667 -72 -160 -127.333 -256 -166c-100.667 -39.333 -200.334 -59 -299.001 -59c-100 0 -199.667 19.667 -299 59c-98 39.333 -182.667 94.666 -254 165.999
c-72 68.667 -128.667 151.334 -170 248.001c-40 94.667 -60 193 -60 295s20 200.333 60 295c41.333 96.667 98 179.334 170 248.001c73.333 73.333 158 129.333 254 168c93.333 38 193 57 299 57s206.333 -19.167 301 -57.5s179.167 -94.166 253.5 -167.499
s131.166 -156 170.499 -248c38 -92 57 -190.333 57 -295zM877.002 298.998c110 0 202 40.998 276 122.998c36.667 40.667 63.667 86.334 81 137.001s26 107.334 26 170.001c0 122 -36.333 224.333 -109 307c-74 82 -165.333 123 -274 123c-111.333 0 -203 -41 -275 -123
s-108 -184.333 -108 -307c0 -127.333 35.333 -230.333 106 -309c72.667 -80.667 165 -121 277 -121zM928.002 1722c0 34.667 12.333 63.999 37 87.999c22 23.333 51.333 35 88 35c34.667 0 64.667 -11.667 90 -35c23.333 -23.333 35 -52.666 35 -87.999
s-11.667 -65.333 -35 -90s-53.333 -37 -90 -37c-37.333 0 -67.333 12.333 -90 37c-23.333 23.333 -35 53.333 -35 90zM578.002 1722l0.000976562 -2c0 34.667 12 64 36 88c25.333 23.333 55.666 35 90.999 35s64.666 -11.667 87.999 -35c22.667 -22.667 34 -52 34 -88
c0 -38 -10.667 -68 -32 -90c-24.667 -23.333 -54.667 -35 -90 -35c-37.333 0 -67.666 12.333 -90.999 37c-24 22.667 -36 52.667 -36 90z" />
    <glyph glyph-name="multiply" unicode="&#xd7;" horiz-adv-x="1352" 
d="M901 506c0 80 -21.001 142 -63.001 186c-42.667 46.667 -100 70 -172 70s-128.667 -22.667 -170 -68c-42.667 -46.667 -64 -109.334 -64 -188.001c0 -79.333 21.333 -141.666 64 -186.999c40.667 -44.667 97.334 -67 170.001 -67c72 0 129.167 22.333 171.5 67
s63.5 107 63.5 187zM1214 1010v-1010h-327v164c-47.333 -70 -100.166 -121.333 -158.499 -154s-126.5 -49 -204.5 -49c-135.333 0 -243 49.333 -323 148c-39.333 48.667 -69.333 106 -90 172s-31 140.333 -31 223c0 165.333 42.333 296.333 127 393s198 145 340 145
c76 0 141.333 -16.333 196 -49c55.333 -31.333 102.666 -81 141.999 -149v166h329zM507.999 1362l107.999 -0.000976562c2 -37.333 15 -64 39 -80c26 -16.667 61 -25 105 -25s78.5 8.16699 103.5 24.5s37.5 43.166 37.5 80.499h105
c-7.33301 -85.333 -30.666 -146.666 -69.999 -183.999c-20.667 -19.333 -46 -33.833 -76 -43.5s-64 -14.5 -102 -14.5c-80.667 0 -140.667 20 -180 60c-42.667 42.667 -66 103.334 -70 182.001z" />
    <glyph glyph-name="Oslash" unicode="&#xd8;" horiz-adv-x="1753" 
d="M643 403c28.667 -24 64.333 -43.667 107 -59c38 -12 80.333 -18 127 -18c112 0 206 39.333 282 118c78 80 117 177.667 117 293c0 52 -7 96.333 -21 133c-12 38.667 -31.667 73.667 -59 105zM1098 1067c-34 25.333 -69 43 -105 53c-36 12.667 -74.667 19 -116 19
c-111.333 0 -205 -39 -281 -117c-78 -80 -117 -177 -117 -291c0 -42 5.66699 -83 17 -123c9.33301 -35.333 27 -72 53 -110zM204.999 -47l-91.998 94l170 176c-63.333 75.333 -110.666 155.333 -141.999 240c-31.333 88 -47 177.333 -47 268c0 102 20 200.167 60 294.5
s96.667 177.166 170 248.499c73.333 72 159.333 128 258 168c93.333 38 195.666 57 306.999 57c93.333 0 176.666 -13 249.999 -39c76.667 -26.667 149.667 -67.667 219 -123l155 162l97 -94l-152 -158c64.667 -67.333 114.667 -145.666 150 -234.999
c34 -88 51 -181.667 51 -281c0 -102 -20 -200.333 -60 -295c-38 -91.333 -94.333 -174 -169 -248c-76 -72.667 -160 -127.667 -252 -165c-96 -38.667 -196.333 -58 -301 -58c-93.333 0 -183 13.667 -269 41c-78.667 28.667 -154.334 71.667 -227.001 129z" />
    <glyph glyph-name="Ugrave" unicode="&#xd9;" horiz-adv-x="1597" 
d="M145 1464l399.998 0.000976562v-712c0 -108.667 2.66699 -184 8 -226c6.66699 -50 15.667 -88 27 -114c14 -38 40.333 -66 79 -84c38.667 -20.667 85.334 -31 140.001 -31c54 0 100.333 10.333 139 31c35.333 17.333 62 45.333 80 84
c10.667 26.667 19.334 64.667 26.001 114c6 40 9 115.333 9 226v100v612h397v-774c0 -158.667 -9.66699 -276.667 -29 -354c-18 -76.667 -50.667 -142.334 -98 -197.001c-52 -60.667 -121 -105 -207 -133c-85.333 -30 -191 -45 -317 -45c-128.667 0 -234.667 15 -318 45
c-84.667 28 -153.667 72.333 -207 133c-46 53.333 -78.667 119 -98 197c-20.667 78.667 -31 196.667 -31 354v152v622zM501.998 1845h223l145 -278h-122z" />
    <glyph glyph-name="Uacute" unicode="&#xda;" horiz-adv-x="1597" 
d="M145 1464l399.998 0.000976562v-712c0 -108.667 2.66699 -184 8 -226c6.66699 -50 15.667 -88 27 -114c14 -38 40.333 -66 79 -84c38.667 -20.667 85.334 -31 140.001 -31c54 0 100.333 10.333 139 31c35.333 17.333 62 45.333 80 84
c10.667 26.667 19.334 64.667 26.001 114c6 40 9 115.333 9 226v100v612h397v-774c0 -158.667 -9.66699 -276.667 -29 -354c-18 -76.667 -50.667 -142.334 -98 -197.001c-52 -60.667 -121 -105 -207 -133c-85.333 -30 -191 -45 -317 -45c-128.667 0 -234.667 15 -318 45
c-84.667 28 -153.667 72.333 -207 133c-46 53.333 -78.667 119 -98 197c-20.667 78.667 -31 196.667 -31 354v152v622zM1104 1845l-246 -278h-123l146 278h223z" />
    <glyph glyph-name="Ucircumflex" unicode="&#xdb;" horiz-adv-x="1597" 
d="M145 1464l399.998 0.000976562v-712c0 -108.667 2.66699 -184 8 -226c6.66699 -50 15.667 -88 27 -114c14 -38 40.333 -66 79 -84c38.667 -20.667 85.334 -31 140.001 -31c54 0 100.333 10.333 139 31c35.333 17.333 62 45.333 80 84
c10.667 26.667 19.334 64.667 26.001 114c6 40 9 115.333 9 226v100v612h397v-774c0 -158.667 -9.66699 -276.667 -29 -354c-18 -76.667 -50.667 -142.334 -98 -197.001c-52 -60.667 -121 -105 -207 -133c-85.333 -30 -191 -45 -317 -45c-128.667 0 -234.667 15 -318 45
c-84.667 28 -153.667 72.333 -207 133c-46 53.333 -78.667 119 -98 197c-20.667 78.667 -31 196.667 -31 354v152v622zM523.998 1577l160 278h248l164 -278h-138l-147 143l-149 -143h-138z" />
    <glyph glyph-name="Udieresis" unicode="&#xdc;" horiz-adv-x="1597" 
d="M145 1464l399.998 0.000976562v-712c0 -108.667 2.66699 -184 8 -226c6.66699 -50 15.667 -88 27 -114c14 -38 40.333 -66 79 -84c38.667 -20.667 85.334 -31 140.001 -31c54 0 100.333 10.333 139 31c35.333 17.333 62 45.333 80 84
c10.667 26.667 19.334 64.667 26.001 114c6 40 9 115.333 9 226v100v612h397v-774c0 -158.667 -9.66699 -276.667 -29 -354c-18 -76.667 -50.667 -142.334 -98 -197.001c-52 -60.667 -121 -105 -207 -133c-85.333 -30 -191 -45 -317 -45c-128.667 0 -234.667 15 -318 45
c-84.667 28 -153.667 72.333 -207 133c-46 53.333 -78.667 119 -98 197c-20.667 78.667 -31 196.667 -31 354v152v622zM841.998 1710c0 34.667 12.333 63.999 37 87.999c22 23.333 51.333 35 88 35c34.667 0 64.667 -11.667 90 -35c23.333 -23.333 35 -52.666 35 -87.999
c0 -36.667 -11.667 -66.667 -35 -90c-22.667 -24.667 -52.667 -37 -90 -37c-38 0 -68 12.333 -90 37c-23.333 22 -35 52 -35 90zM491.998 1710l-0.000976562 -2c0 34.667 12 64 36 88c25.333 23.333 55.333 35 90 35c36 0 65.667 -11.667 89 -35
c22.667 -22.667 34 -52 34 -88c0 -38.667 -10.667 -68.667 -32 -90c-23.333 -23.333 -53.666 -35 -90.999 -35s-67.333 12.333 -90 37c-24 22 -36 52 -36 90z" />
    <glyph glyph-name="Yacute" unicode="&#xdd;" horiz-adv-x="1223" 
d="M416 0v668l-512 796h458l197 -377c2 -2 4 -6 6 -12c20.667 -38 35 -75.333 43 -112c6 32 20.333 68 43 108l8 16l195 377h459l-512 -796v-668h-385zM905 1845l-246 -278h-122l145 278h223z" />
    <glyph glyph-name="Thorn" unicode="&#xde;" horiz-adv-x="1298" 
d="M530 582l76 0.000976562c96.667 0 163.667 13 201 39c38 25.333 57 69.666 57 132.999c0 60.667 -18.333 104.167 -55 130.5s-103 39.5 -199 39.5h-80v-342zM530 260.001v-260.001h-374v1464h374v-223h43c162.667 0 276.667 -8 342 -24
c64.667 -14 121.334 -41.333 170.001 -82c54 -44.667 95 -100.667 123 -168c28.667 -67.333 43 -142.666 43 -225.999c0 -88 -13.667 -165 -41 -231c-28 -65.333 -69.667 -119.333 -125 -162c-40.667 -30.667 -88.334 -53 -143.001 -67c-51.333 -14 -136 -21 -254 -21h-86
h-72z" />
    <glyph glyph-name="germandbls" unicode="&#xdf;" horiz-adv-x="1352" 
d="M137 0l-0.00390625 1028c0 108.667 8.33301 190 25 244c14 54.667 40 103 78 145c44.667 48.667 103.334 86.167 176.001 112.5s155.334 39.5 248.001 39.5c166.667 0 296.334 -34.5 389.001 -103.5s139 -164.833 139 -287.5c0 -77.333 -20.667 -141.666 -62 -192.999
c-44.667 -53.333 -106.667 -91 -186 -113c54 -6 101.833 -19.333 143.5 -40s76.5 -48 104.5 -82c58.667 -71.333 88 -164.333 88 -279c0 -156 -47 -277.667 -141 -365c-96.667 -86 -231.334 -129 -404.001 -129c-20 0 -38.333 1 -55 3h-57v266h20
c5.33301 -1.33301 16.333 -2 33 -2c82 0 144 21 186 63c42.667 42.667 64 105.667 64 189c0 79.333 -22.667 140.666 -68 183.999c-44 42 -110.333 63 -199 63c-5.33301 0 -10.666 -0.666992 -15.999 -2h-20v226h8c80.667 0 140 15 178 45c39.333 30 59 75.667 59 137
c0 50 -15.667 89.667 -47 119c-34 28.667 -77.667 43 -131 43c-49.333 0 -91 -10.333 -125 -31c-31.333 -24 -51.666 -54.667 -60.999 -92c-6 -27.333 -10 -61.666 -12 -102.999c-3.33301 -48 -5 -111.333 -5 -190v-94v-801h-350z" />
    <glyph glyph-name="agrave" unicode="&#xe0;" horiz-adv-x="1352" 
d="M901 506c0 80 -21.001 142 -63.001 186c-42.667 46.667 -100 70 -172 70s-128.667 -22.667 -170 -68c-42.667 -46.667 -64 -109.334 -64 -188.001c0 -79.333 21.333 -141.666 64 -186.999c40.667 -44.667 97.334 -67 170.001 -67c72 0 129.167 22.333 171.5 67
s63.5 107 63.5 187zM1214 1010v-1010h-327v164c-47.333 -70 -100.166 -121.333 -158.499 -154s-126.5 -49 -204.5 -49c-135.333 0 -243 49.333 -323 148c-39.333 48.667 -69.333 106 -90 172s-31 140.333 -31 223c0 165.333 42.333 296.333 127 393s198 145 340 145
c76 0 141.333 -16.333 196 -49c55.333 -31.333 102.666 -81 141.999 -149v166h329zM536.999 1434h223l145 -279h-123z" />
    <glyph glyph-name="aacute" unicode="&#xe1;" horiz-adv-x="1352" 
d="M901 506c0 80 -21.001 142 -63.001 186c-42.667 46.667 -100 70 -172 70s-128.667 -22.667 -170 -68c-42.667 -46.667 -64 -109.334 -64 -188.001c0 -79.333 21.333 -141.666 64 -186.999c40.667 -44.667 97.334 -67 170.001 -67c72 0 129.167 22.333 171.5 67
s63.5 107 63.5 187zM1214 1010v-1010h-327v164c-47.333 -70 -100.166 -121.333 -158.499 -154s-126.5 -49 -204.5 -49c-135.333 0 -243 49.333 -323 148c-39.333 48.667 -69.333 106 -90 172s-31 140.333 -31 223c0 165.333 42.333 296.333 127 393s198 145 340 145
c76 0 141.333 -16.333 196 -49c55.333 -31.333 102.666 -81 141.999 -149v166h329zM1036 1434l-245 -279h-123l145 279h223z" />
    <glyph glyph-name="acircumflex" unicode="&#xe2;" horiz-adv-x="1352" 
d="M901 506c0 80 -21.001 142 -63.001 186c-42.667 46.667 -100 70 -172 70s-128.667 -22.667 -170 -68c-42.667 -46.667 -64 -109.334 -64 -188.001c0 -79.333 21.333 -141.666 64 -186.999c40.667 -44.667 97.334 -67 170.001 -67c72 0 129.167 22.333 171.5 67
s63.5 107 63.5 187zM1214 1010v-1010h-327v164c-47.333 -70 -100.166 -121.333 -158.499 -154s-126.5 -49 -204.5 -49c-135.333 0 -243 49.333 -323 148c-39.333 48.667 -69.333 106 -90 172s-31 140.333 -31 223c0 165.333 42.333 296.333 127 393s198 145 340 145
c76 0 141.333 -16.333 196 -49c55.333 -31.333 102.666 -81 141.999 -149v166h329zM425.999 1116l160 279h248l163 -279h-137l-147 144l-150 -144h-137z" />
    <glyph glyph-name="atilde" unicode="&#xe3;" horiz-adv-x="1352" 
d="M901 506c0 80 -21.001 142 -63.001 186c-42.667 46.667 -100 70 -172 70s-128.667 -22.667 -170 -68c-42.667 -46.667 -64 -109.334 -64 -188.001c0 -79.333 21.333 -141.666 64 -186.999c40.667 -44.667 97.334 -67 170.001 -67c72 0 129.167 22.333 171.5 67
s63.5 107 63.5 187zM1214 1010v-1010h-327v164c-47.333 -70 -100.166 -121.333 -158.499 -154s-126.5 -49 -204.5 -49c-135.333 0 -243 49.333 -323 148c-39.333 48.667 -69.333 106 -90 172s-31 140.333 -31 223c0 165.333 42.333 296.333 127 393s198 145 340 145
c76 0 141.333 -16.333 196 -49c55.333 -31.333 102.666 -81 141.999 -149v166h329zM1067 1376l-4 -4.00098c-16.667 -68.667 -38 -117.667 -64 -147c-26 -32.667 -61.333 -49 -106 -49h-29h-24l-74 20c-22.667 6.66699 -39 10 -49 10c-16 0 -29 -4 -39 -12
c-9.33301 -9.33301 -18.333 -25.666 -27 -48.999h-94c14 67.333 34.333 116.333 61 147c26.667 32.667 61.667 49 105 49h27c10 0 23.667 -2 41 -6l73 -20h21h24c18 0 31.667 4.66699 41 14c11.333 10 19 25.667 23 47h94z" />
    <glyph glyph-name="adieresis" unicode="&#xe4;" horiz-adv-x="1352" 
d="M901 506c0 80 -21.001 142 -63.001 186c-42.667 46.667 -100 70 -172 70s-128.667 -22.667 -170 -68c-42.667 -46.667 -64 -109.334 -64 -188.001c0 -79.333 21.333 -141.666 64 -186.999c40.667 -44.667 97.334 -67 170.001 -67c72 0 129.167 22.333 171.5 67
s63.5 107 63.5 187zM1214 1010v-1010h-327v164c-47.333 -70 -100.166 -121.333 -158.499 -154s-126.5 -49 -204.5 -49c-135.333 0 -243 49.333 -323 148c-39.333 48.667 -69.333 106 -90 172s-31 140.333 -31 223c0 165.333 42.333 296.333 127 393s198 145 340 145
c76 0 141.333 -16.333 196 -49c55.333 -31.333 102.666 -81 141.999 -149v166h329zM783.999 1260c0 32.667 12.333 61.998 37 87.998c24 22.667 53.333 34 88 34c35.333 0 65.333 -11.333 90 -34c23.333 -23.333 35 -52.666 35 -87.999
c0 -37.333 -11.667 -67.666 -35 -90.999c-22 -24 -52 -36 -90 -36c-36.667 0 -66.667 12 -90 36c-23.333 24.667 -35 55 -35 91zM433.999 1260l-0.000976562 -3.00098c0 34.667 12.333 64.334 37 89.001c26 22.667 56 34 90 34c36 0 65.333 -11.333 88 -34
c23.333 -23.333 35 -53 35 -89c0 -38 -11.167 -68.167 -33.5 -90.5s-52.166 -33.5 -89.499 -33.5c-36.667 0 -66.667 12 -90 36c-24.667 22.667 -37 53 -37 91z" />
    <glyph glyph-name="aring" unicode="&#xe5;" horiz-adv-x="1352" 
d="M901 506c0 80 -21.001 142 -63.001 186c-42.667 46.667 -100 70 -172 70s-128.667 -22.667 -170 -68c-42.667 -46.667 -64 -109.334 -64 -188.001c0 -79.333 21.333 -141.666 64 -186.999c40.667 -44.667 97.334 -67 170.001 -67c72 0 129.167 22.333 171.5 67
s63.5 107 63.5 187zM1214 1010v-1010h-327v164c-47.333 -70 -100.166 -121.333 -158.499 -154s-126.5 -49 -204.5 -49c-135.333 0 -243 49.333 -323 148c-39.333 48.667 -69.333 106 -90 172s-31 140.333 -31 223c0 165.333 42.333 296.333 127 393s198 145 340 145
c76 0 141.333 -16.333 196 -49c55.333 -31.333 102.666 -81 141.999 -149v166h329zM630.999 1341h-2c0 -21.333 7.33301 -39.666 22 -54.999c16.667 -16 36 -24 58 -24c20.667 0 39 8 55 24c14.667 15.333 22 33.666 22 54.999c0 22 -7.33301 40.5 -22 55.5
s-33 22.5 -55 22.5s-40.667 -7.33301 -56 -22c-14.667 -15.333 -22 -34 -22 -56zM511.999 1341c0 58.667 19 106 57 142c36 38 82.667 57 140 57c58 0 105 -19 141 -57c38 -38 57 -85.333 57 -142c0 -56 -19 -103 -57 -141c-36.667 -36.667 -83.667 -55 -141 -55
c-58 0 -105.333 18.333 -142 55s-55 83.667 -55 141z" />
    <glyph glyph-name="ae" unicode="&#xe6;" 
d="M-256 1700l-246 -279h-123l146 279h223z" />
    <glyph glyph-name="ccedilla" unicode="&#xe7;" horiz-adv-x="944" 
d="M856 678c-34.667 30.667 -67.999 53 -99.999 67c-28.667 14 -62.334 21 -101.001 21c-71.333 0 -127.333 -23.333 -168 -70c-42 -46 -63 -109.333 -63 -190c0 -77.333 21.667 -138.666 65 -183.999c42 -46.667 100.333 -70 175 -70c35.333 0 69.333 7.33301 102 22
c34.667 16.667 64.667 38.667 90 66v-309c-42.667 -22.667 -85.667 -40.667 -129 -54c-46 -10.667 -89.667 -16 -131 -16c-156 0 -281.667 50 -377 150c-32.667 33.333 -59.5 70 -80.5 110s-37 83.333 -48 130s-16.5 97.667 -16.5 153c0 159.333 48.833 288.833 146.5 388.5
s224.167 149.5 379.5 149.5c48.667 0 95 -5.33301 139 -16c42.667 -10.667 81.667 -26.334 117 -47.001v-301zM303.001 -428l-8.00098 125c60 -15.333 103.667 -24.333 131 -27c36.667 -5.33301 72 -8 106 -8c25.333 0 44 4.66699 56 14c10.667 8 16 23 16 45
c0 19.333 -8 33 -24 41c-14 7.33301 -40.667 11 -80 11h-27h-16v190h102v-74h16c66.667 0 117.334 -14.333 152.001 -43c35.333 -28 53 -69.667 53 -125c0 -59.333 -18.333 -104.333 -55 -135c-40 -32.667 -95.333 -49 -166 -49c-41.333 0 -81 2.66699 -119 8
c-29.333 2.66699 -75 11.667 -137 27z" />
    <glyph glyph-name="egrave" unicode="&#xe8;" horiz-adv-x="1251" 
d="M827 635c-6 56 -27.667 101.667 -65 137s-83 53 -137 53c-56.667 0 -102.667 -15.667 -138 -47c-36.667 -35.333 -59.667 -83 -69 -143h409zM1178 434h-768.001c2 -78.667 21.667 -138.667 59 -180c38.667 -42.667 94.667 -64 168 -64c53.333 0 99 10.333 137 31
c38.667 22 66.667 52 84 90l268 -108c-31.333 -76.667 -88 -136 -170 -178c-81.333 -42.667 -181 -64 -299 -64c-176 0 -317.333 49.333 -424 148c-106 96 -159 224.333 -159 385c0 156.667 53 287.667 159 393c106 103.333 240.667 155 404 155
c166.667 0 298.334 -52.333 395.001 -157c49.333 -54 86 -116.833 110 -188.5s36 -153.5 36 -245.5v-17zM359.999 1423h224l145 -278h-123z" />
    <glyph glyph-name="eacute" unicode="&#xe9;" horiz-adv-x="1251" 
d="M827 635c-6 56 -27.667 101.667 -65 137s-83 53 -137 53c-56.667 0 -102.667 -15.667 -138 -47c-36.667 -35.333 -59.667 -83 -69 -143h409zM1178 434h-768.001c2 -78.667 21.667 -138.667 59 -180c38.667 -42.667 94.667 -64 168 -64c53.333 0 99 10.333 137 31
c38.667 22 66.667 52 84 90l268 -108c-31.333 -76.667 -88 -136 -170 -178c-81.333 -42.667 -181 -64 -299 -64c-176 0 -317.333 49.333 -424 148c-106 96 -159 224.333 -159 385c0 156.667 53 287.667 159 393c106 103.333 240.667 155 404 155
c166.667 0 298.334 -52.333 395.001 -157c49.333 -54 86 -116.833 110 -188.5s36 -153.5 36 -245.5v-17zM931.999 1423l-246 -278h-123l146 278h223z" />
    <glyph glyph-name="ecircumflex" unicode="&#xea;" horiz-adv-x="1251" 
d="M827 635c-6 56 -27.667 101.667 -65 137s-83 53 -137 53c-56.667 0 -102.667 -15.667 -138 -47c-36.667 -35.333 -59.667 -83 -69 -143h409zM1178 434h-768.001c2 -78.667 21.667 -138.667 59 -180c38.667 -42.667 94.667 -64 168 -64c53.333 0 99 10.333 137 31
c38.667 22 66.667 52 84 90l268 -108c-31.333 -76.667 -88 -136 -170 -178c-81.333 -42.667 -181 -64 -299 -64c-176 0 -317.333 49.333 -424 148c-106 96 -159 224.333 -159 385c0 156.667 53 287.667 159 393c106 103.333 240.667 155 404 155
c166.667 0 298.334 -52.333 395.001 -157c49.333 -54 86 -116.833 110 -188.5s36 -153.5 36 -245.5v-17zM337.999 1100l160 278h247l164 -278h-137l-147 143l-150 -143h-137z" />
    <glyph glyph-name="edieresis" unicode="&#xeb;" horiz-adv-x="1251" 
d="M827 635c-6 56 -27.667 101.667 -65 137s-83 53 -137 53c-56.667 0 -102.667 -15.667 -138 -47c-36.667 -35.333 -59.667 -83 -69 -143h409zM1178 434h-768.001c2 -78.667 21.667 -138.667 59 -180c38.667 -42.667 94.667 -64 168 -64c53.333 0 99 10.333 137 31
c38.667 22 66.667 52 84 90l268 -108c-31.333 -76.667 -88 -136 -170 -178c-81.333 -42.667 -181 -64 -299 -64c-176 0 -317.333 49.333 -424 148c-106 96 -159 224.333 -159 385c0 156.667 53 287.667 159 393c106 103.333 240.667 155 404 155
c166.667 0 298.334 -52.333 395.001 -157c49.333 -54 86 -116.833 110 -188.5s36 -153.5 36 -245.5v-17zM695.999 1264c0 32.667 12.333 61.999 37 87.999c24 22.667 53.333 34 88 34c35.333 0 65.333 -11.333 90 -34c23.333 -23.333 35 -52.666 35 -87.999
c0 -38 -11.667 -68 -35 -90c-22 -24.667 -52 -37 -90 -37c-37.333 0 -67.333 12.333 -90 37c-23.333 23.333 -35 53.333 -35 90zM345.999 1264l-0.000976562 -2.00098c0 34 12.333 63.333 37 88c26 22.667 56 34 90 34c36 0 65.333 -11.333 88 -34
c23.333 -23.333 35 -52.666 35 -87.999c0 -38.667 -11.167 -69.167 -33.5 -91.5s-52.166 -33.5 -89.499 -33.5s-67.333 12.333 -90 37c-24.667 22 -37 52 -37 90z" />
    <glyph glyph-name="igrave" unicode="&#xec;" horiz-adv-x="639" 
d="M123 0v1010h356v-1010h-356zM104 1430h224l145 -279h-123z" />
    <glyph glyph-name="iacute" unicode="&#xed;" horiz-adv-x="639" 
d="M123 0v1010h356v-1010h-356zM512 1419l-246 -278h-123l146 278h223z" />
    <glyph glyph-name="icircumflex" unicode="&#xee;" horiz-adv-x="639" 
d="M141 0v1010h357v-1010h-357zM8 1133l160 278h248l164 -278h-138l-147 143l-150 -143h-137z" />
    <glyph glyph-name="idieresis" unicode="&#xef;" horiz-adv-x="639" 
d="M141 0v1010h357v-1010h-357zM356 1255c0 34 12.334 63.333 37.001 88c23.333 23.333 52.666 35 87.999 35s65.333 -11.667 90 -35c23.333 -22 35 -51.333 35 -88s-11.667 -66.667 -35 -90c-22.667 -24.667 -52.667 -37 -90 -37c-36.667 0 -66.667 12.333 -90 37
s-35 54.667 -35 90zM6.00098 1255v-2c0 34.667 12.333 64 37 88c25.333 23.333 55.333 35 90 35c36.667 0 66 -11.667 88 -35c23.333 -22 35 -51.333 35 -88c0 -38 -11 -68 -33 -90c-23.333 -23.333 -53.333 -35 -90 -35s-66.667 12.333 -90 37
c-24.667 22.667 -37 52.667 -37 90z" />
    <glyph glyph-name="eth" unicode="&#xf0;" horiz-adv-x="1276" 
d="M848 473c0 67.333 -19 120.667 -57 160c-38 38 -89.333 57 -154 57c-66.667 0 -118 -19 -154 -57c-38 -38 -57 -91.333 -57 -160c0 -67.333 19 -120 57 -158c36 -38 87.333 -57 154 -57c62 0 113.333 19.667 154 59c38 38.667 57 90.667 57 156zM815 899.001
c-31.333 50 -63.999 95.6689 -97.999 137.002s-74.333 80.333 -121 117l-297 -137l-70 127l242 106c-52 29.333 -84 48 -96 56c-15.333 8.66699 -26.833 14.834 -34.5 18.501l-31.5 15.5l119 209c41.333 -18 90.333 -42.333 147 -73c48.667 -28.667 104 -63.667 166 -105
l314 146l71 -130l-262 -118c116 -110 200.667 -222.667 254 -338c56 -118.667 84 -245.667 84 -381c0 -186.667 -49.667 -330.667 -149 -432c-100 -104 -238.667 -156 -416 -156c-80 0 -152.333 13 -217 39c-69.333 25.333 -130 61.666 -182 108.999
c-54.667 47.333 -95 101.666 -121 162.999c-28.667 59.333 -43 123.666 -43 192.999c0 70 13.667 136.333 41 199c25.333 62 66.333 117.667 123 167c50 46 103.667 79.667 161 101c63.333 23.333 127.666 35 192.999 35c40 0 79 -5.66699 117 -17
c32.667 -9.33301 68 -26.333 106 -51z" />
    <glyph glyph-name="ntilde" unicode="&#xf1;" horiz-adv-x="1337" 
d="M131 0l0.000976562 1010h326v-205c46 80 100.667 140 164 180c61.333 38 135.666 57 222.999 57c66 0 124.667 -10 176 -30c50.667 -22.667 91.667 -53.334 123 -92.001c28.667 -38.667 47.667 -79.667 57 -123c11.333 -55.333 17 -128.333 17 -219v-578h-357v541
c0 82 -13 140.667 -39 176c-26 36.667 -68.333 55 -127 55c-73.333 0 -127.333 -27.333 -162 -82c-34 -54.667 -51 -143.334 -51 -266.001v-424h-350zM971.001 1389l-4.00195 -5c-17.333 -69.333 -38.666 -118.333 -63.999 -147c-26 -32.667 -61.333 -49 -106 -49h-29h-25
l-73 20c-22 7.33301 -38.333 11 -49 11c-15.333 0 -28.333 -4.33301 -39 -13c-10 -8.66699 -19 -25 -27 -49h-94c14 66.667 34.333 116 61 148c27.333 32.667 62.333 49 105 49h26c11.333 0 25 -2 41 -6l74 -21h20h25c18 0 31.667 4.66699 41 14
c10.667 11.333 18.334 27.333 23.001 48h94z" />
    <glyph glyph-name="ograve" unicode="&#xf2;" horiz-adv-x="1276" 
d="M848 502c0 75.333 -19.002 134.668 -57.002 178.001c-39.333 43.333 -90.666 65 -153.999 65c-65.333 0 -116.666 -21.667 -153.999 -65c-38 -42 -57 -101.333 -57 -178c0 -74.667 18.333 -133.334 55 -176.001c40 -44 92 -66 156 -66s116 22 156 66
c36.667 44 55 102.667 55 176zM1202 502.002c0 -74 -14.333 -142.999 -43 -206.999c-30 -68 -71 -126.667 -123 -176c-58.667 -54.667 -119.334 -94.334 -182.001 -119.001c-65.333 -26 -137.666 -39 -216.999 -39c-80 0 -152.333 13 -217 39
c-66 26 -126.833 65.5 -182.5 118.5s-95.834 111.833 -120.501 176.5c-28.667 62 -43 131 -43 207c0 74 14.333 143.667 43 209c26.667 66 67 124.667 121 176c52.667 50.667 113.334 89.667 182.001 117c65.333 25.333 137.666 38 216.999 38c78.667 0 151 -12.667 217 -38
c68.667 -27.333 129.334 -66.333 182.001 -117c55.333 -50 96.333 -108.667 123 -176c28.667 -65.333 43 -135 43 -209zM433.998 1423h223l146 -278h-123z" />
    <glyph glyph-name="oacute" unicode="&#xf3;" horiz-adv-x="1276" 
d="M848 502c0 75.333 -19.002 134.668 -57.002 178.001c-39.333 43.333 -90.666 65 -153.999 65c-65.333 0 -116.666 -21.667 -153.999 -65c-38 -42 -57 -101.333 -57 -178c0 -74.667 18.333 -133.334 55 -176.001c40 -44 92 -66 156 -66s116 22 156 66
c36.667 44 55 102.667 55 176zM1202 502.002c0 -74 -14.333 -142.999 -43 -206.999c-30 -68 -71 -126.667 -123 -176c-58.667 -54.667 -119.334 -94.334 -182.001 -119.001c-65.333 -26 -137.666 -39 -216.999 -39c-80 0 -152.333 13 -217 39
c-66 26 -126.833 65.5 -182.5 118.5s-95.834 111.833 -120.501 176.5c-28.667 62 -43 131 -43 207c0 74 14.333 143.667 43 209c26.667 66 67 124.667 121 176c52.667 50.667 113.334 89.667 182.001 117c65.333 25.333 137.666 38 216.999 38c78.667 0 151 -12.667 217 -38
c68.667 -27.333 129.334 -66.333 182.001 -117c55.333 -50 96.333 -108.667 123 -176c28.667 -65.333 43 -135 43 -209zM882.998 1444l-246 -279h-123l145 279h224z" />
    <glyph glyph-name="ocircumflex" unicode="&#xf4;" horiz-adv-x="1276" 
d="M848 502c0 75.333 -19.002 134.668 -57.002 178.001c-39.333 43.333 -90.666 65 -153.999 65c-65.333 0 -116.666 -21.667 -153.999 -65c-38 -42 -57 -101.333 -57 -178c0 -74.667 18.333 -133.334 55 -176.001c40 -44 92 -66 156 -66s116 22 156 66
c36.667 44 55 102.667 55 176zM1202 502.002c0 -74 -14.333 -142.999 -43 -206.999c-30 -68 -71 -126.667 -123 -176c-58.667 -54.667 -119.334 -94.334 -182.001 -119.001c-65.333 -26 -137.666 -39 -216.999 -39c-80 0 -152.333 13 -217 39
c-66 26 -126.833 65.5 -182.5 118.5s-95.834 111.833 -120.501 176.5c-28.667 62 -43 131 -43 207c0 74 14.333 143.667 43 209c26.667 66 67 124.667 121 176c52.667 50.667 113.334 89.667 182.001 117c65.333 25.333 137.666 38 216.999 38c78.667 0 151 -12.667 217 -38
c68.667 -27.333 129.334 -66.333 182.001 -117c55.333 -50 96.333 -108.667 123 -176c28.667 -65.333 43 -135 43 -209zM351.998 1106l160 278h248l164 -278h-138l-147 143l-150 -143h-137z" />
    <glyph glyph-name="otilde" unicode="&#xf5;" horiz-adv-x="1276" 
d="M848 502c0 75.333 -19.002 134.668 -57.002 178.001c-39.333 43.333 -90.666 65 -153.999 65c-65.333 0 -116.666 -21.667 -153.999 -65c-38 -42 -57 -101.333 -57 -178c0 -74.667 18.333 -133.334 55 -176.001c40 -44 92 -66 156 -66s116 22 156 66
c36.667 44 55 102.667 55 176zM1202 502.002c0 -74 -14.333 -142.999 -43 -206.999c-30 -68 -71 -126.667 -123 -176c-58.667 -54.667 -119.334 -94.334 -182.001 -119.001c-65.333 -26 -137.666 -39 -216.999 -39c-80 0 -152.333 13 -217 39
c-66 26 -126.833 65.5 -182.5 118.5s-95.834 111.833 -120.501 176.5c-28.667 62 -43 131 -43 207c0 74 14.333 143.667 43 209c26.667 66 67 124.667 121 176c52.667 50.667 113.334 89.667 182.001 117c65.333 25.333 137.666 38 216.999 38c78.667 0 151 -12.667 217 -38
c68.667 -27.333 129.334 -66.333 182.001 -117c55.333 -50 96.333 -108.667 123 -176c28.667 -65.333 43 -135 43 -209zM892.998 1376l-4 -4.00098c-18 -70.667 -39.333 -119.667 -64 -147c-26 -32.667 -61.333 -49 -106 -49h-29h-24l-74 20c-22.667 6.66699 -39 10 -49 10
c-16 0 -29 -4 -39 -12c-9.33301 -9.33301 -18.333 -25.666 -27 -48.999h-94c14 67.333 34.333 116.333 61 147c26.667 32.667 61.667 49 105 49h26c11.333 0 25 -2 41 -6l74 -20h21h24c18 0 31.667 4.66699 41 14c11.333 11.333 19 27 23 47h94z" />
    <glyph glyph-name="odieresis" unicode="&#xf6;" horiz-adv-x="1276" 
d="M848 502c0 75.333 -19.002 134.668 -57.002 178.001c-39.333 43.333 -90.666 65 -153.999 65c-65.333 0 -116.666 -21.667 -153.999 -65c-38 -42 -57 -101.333 -57 -178c0 -74.667 18.333 -133.334 55 -176.001c40 -44 92 -66 156 -66s116 22 156 66
c36.667 44 55 102.667 55 176zM1202 502.002c0 -74 -14.333 -142.999 -43 -206.999c-30 -68 -71 -126.667 -123 -176c-58.667 -54.667 -119.334 -94.334 -182.001 -119.001c-65.333 -26 -137.666 -39 -216.999 -39c-80 0 -152.333 13 -217 39
c-66 26 -126.833 65.5 -182.5 118.5s-95.834 111.833 -120.501 176.5c-28.667 62 -43 131 -43 207c0 74 14.333 143.667 43 209c26.667 66 67 124.667 121 176c52.667 50.667 113.334 89.667 182.001 117c65.333 25.333 137.666 38 216.999 38c78.667 0 151 -12.667 217 -38
c68.667 -27.333 129.334 -66.333 182.001 -117c55.333 -50 96.333 -108.667 123 -176c28.667 -65.333 43 -135 43 -209zM689.998 1260c0 34 12.333 63.3311 37 87.998c24 22.667 53.333 34 88 34c35.333 0 65.333 -11.333 90 -34c23.333 -23.333 35 -52.666 35 -87.999
c0 -37.333 -11.667 -67.666 -35 -90.999c-22 -24 -52 -36 -90 -36c-36.667 0 -66.667 11.833 -90 35.5s-35 54.167 -35 91.5zM339.998 1260l-0.00195312 -3.00098c0 34.667 12.333 64.334 37 89.001c24.667 22.667 54.667 34 90 34c34.667 0 63.834 -11.5 87.501 -34.5
s35.5 -52.5 35.5 -88.5c0 -38 -11.167 -68.167 -33.5 -90.5s-52.166 -33.5 -89.499 -33.5c-38 0 -68 12 -90 36c-24.667 22.667 -37 53 -37 91z" />
    <glyph glyph-name="divide" unicode="&#xf7;" horiz-adv-x="1706" 
d="M854 371c43.333 0 82.333 -15.666 117 -46.999c31.333 -34.667 47 -74.334 47 -119.001c0 -43.333 -15.667 -82.333 -47 -117c-31.333 -31.333 -70.333 -47 -117 -47s-85.667 15.667 -117 47c-32.667 34 -49 73 -49 117s16.333 83 49 117c34 32.667 73 49 117 49z
M254 727.001h1198v-231h-1198v231zM854 1182c44 0 83 -16.333 117 -49c31.333 -34.667 47 -73.667 47 -117s-15.667 -82.333 -47 -117c-33.333 -31.333 -73 -47 -119 -47c-46.667 0 -85.667 15.667 -117 47c-31.333 34.667 -47 73.667 -47 117c0 44 16.333 83 49 117
c34 32.667 73 49 117 49z" />
    <glyph glyph-name="oslash" unicode="&#xf8;" horiz-adv-x="1276" 
d="M776 717c-20 15.333 -40.333 26.333 -61 33c-25.333 6.66699 -52 10 -80 10c-64.667 0 -118 -24 -160 -72c-39.333 -47.333 -59 -110 -59 -188c0 -32.667 2 -58 6 -76c2 -20.667 8 -37.667 18 -51zM502 293c17.333 -15.333 36.998 -27 58.998 -35
c24.667 -8 51.334 -12 80.001 -12c66.667 0 120.667 23.667 162 71c39.333 48.667 59 111.667 59 189c0 21.333 -2 43 -6 65c-1.33301 16.667 -6.66602 38 -15.999 64zM183.998 -47l-84.001 84.0029l111 113c-45.333 53.333 -79.333 110.666 -102 171.999
c-23.333 58 -35 118.667 -35 182c0 74 14.333 143.667 43 209c26.667 65.333 67 123.333 121 174c52.667 50.667 113.334 89.5 182.001 116.5s141 40.5 217 40.5c64.667 0 125.334 -8.66699 182.001 -26c56 -18.667 110 -46.667 162 -84l133 137l86 -76l-131 -139
c44 -48 76.667 -101.333 98 -160c23.333 -62 35 -126 35 -192c0 -76 -14.333 -145 -43 -207c-28.667 -66.667 -69.667 -125.334 -123 -176.001c-52.667 -50.667 -113.334 -89.667 -182.001 -117s-141 -41 -217 -41c-67.333 0 -130 9.66699 -188 29
c-30 9.33301 -56.667 20.166 -80 32.499s-46 27.5 -68 45.5z" />
    <glyph glyph-name="ugrave" unicode="&#xf9;" horiz-adv-x="1292" 
d="M1167 1010v-515.997c0 -115.333 -8.66699 -199.333 -26 -252c-18.667 -54.667 -50 -104 -94 -148c-42 -44 -97.333 -77.333 -166 -100c-65.333 -22 -144 -33 -236 -33c-91.333 0 -169 11 -233 33c-66 21.333 -122.667 54.666 -170 99.999c-43.333 41.333 -74 90 -92 146
c-18 52 -27 136.667 -27 254v516h340v-539c0 -84.667 14.333 -145.334 43 -182.001c26 -38.667 71 -58 135 -58c63.333 0 108.833 18.667 136.5 56s41.5 98.666 41.5 183.999v539h348zM350 1391h223l146 -279h-123z" />
    <glyph glyph-name="uacute" unicode="&#xfa;" horiz-adv-x="1292" 
d="M1167 1010v-515.997c0 -115.333 -8.66699 -199.333 -26 -252c-18.667 -54.667 -50 -104 -94 -148c-42 -44 -97.333 -77.333 -166 -100c-65.333 -22 -144 -33 -236 -33c-91.333 0 -169 11 -233 33c-66 21.333 -122.667 54.666 -170 99.999c-43.333 41.333 -74 90 -92 146
c-18 52 -27 136.667 -27 254v516h340v-539c0 -84.667 14.333 -145.334 43 -182.001c26 -38.667 71 -58 135 -58c63.333 0 108.833 18.667 136.5 56s41.5 98.666 41.5 183.999v539h348zM952 1391l-245 -279h-123l145 279h223z" />
    <glyph glyph-name="ucircumflex" unicode="&#xfb;" horiz-adv-x="1292" 
d="M1167 1010v-515.997c0 -115.333 -8.66699 -199.333 -26 -252c-18.667 -54.667 -50 -104 -94 -148c-42 -44 -97.333 -77.333 -166 -100c-65.333 -22 -144 -33 -236 -33c-91.333 0 -169 11 -233 33c-66 21.333 -122.667 54.666 -170 99.999c-43.333 41.333 -74 90 -92 146
c-18 52 -27 136.667 -27 254v516h340v-539c0 -84.667 14.333 -145.334 43 -182.001c26 -38.667 71 -58 135 -58c63.333 0 108.833 18.667 136.5 56s41.5 98.666 41.5 183.999v539h348zM358 1139l160 278h248l164 -278h-137l-148 143l-149 -143h-138z" />
    <glyph glyph-name="udieresis" unicode="&#xfc;" horiz-adv-x="1292" 
d="M1167 1010v-515.997c0 -115.333 -8.66699 -199.333 -26 -252c-18.667 -54.667 -50 -104 -94 -148c-42 -44 -97.333 -77.333 -166 -100c-65.333 -22 -144 -33 -236 -33c-91.333 0 -169 11 -233 33c-66 21.333 -122.667 54.666 -170 99.999c-43.333 41.333 -74 90 -92 146
c-18 52 -27 136.667 -27 254v516h340v-539c0 -84.667 14.333 -145.334 43 -182.001c26 -38.667 71 -58 135 -58c63.333 0 108.833 18.667 136.5 56s41.5 98.666 41.5 183.999v539h348zM686 1251c0 34.667 12.333 64 37 88c22 23.333 51.333 35 88 35
c35.333 0 65.333 -11.667 90 -35c23.333 -22 35 -51.333 35 -88s-11.667 -66.667 -35 -90c-22.667 -24.667 -52.667 -37 -90 -37s-67.333 12.333 -90 37c-23.333 23.333 -35 53.333 -35 90zM336 1251l0.000976562 -2.00195c0 34.667 12.333 63.834 37 87.501
s54.667 35.5 90 35.5s64.666 -11.667 87.999 -35s35 -52.666 35 -87.999c0 -36.667 -11 -66.667 -33 -90c-24.667 -23.333 -54.667 -35 -90 -35c-37.333 0 -67.333 12.333 -90 37c-24.667 22.667 -37 52.667 -37 90z" />
    <glyph glyph-name="yacute" unicode="&#xfd;" horiz-adv-x="1090" 
d="M76 -446l284.001 600.001l-407 856h395l141 -365c14 -33.333 23.667 -62 29 -86c7.33301 -24.667 13.666 -49.334 18.999 -74.001c4 24 10 49.333 18 76c5.33301 23.333 15 51.333 29 84l143 365h381l-635 -1456h-397zM844.001 1411l-246 -278h-123l146 278h223z" />
    <glyph glyph-name="thorn" unicode="&#xfe;" horiz-adv-x="1090" 
d="M76 -446l284.001 600.001l-407 856h395l141 -365c14 -33.333 23.667 -62 29 -86c7.33301 -24.667 13.666 -49.334 18.999 -74.001c4 24 10 49.333 18 76c5.33301 23.333 15 51.333 29 84l143 365h381l-635 -1456h-397zM883.001 1341l-4.00098 -4
c-17.333 -69.333 -38.666 -118.333 -63.999 -147c-26.667 -32.667 -62 -49 -106 -49h-29h-25l-73 20c-22.667 6.66699 -39.334 10 -50.001 10c-15.333 0 -28 -4.16699 -38 -12.5s-19 -24.5 -27 -48.5h-94c14 66.667 34.333 115.667 61 147c27.333 33.333 62.333 50 105 50
h26c12.667 0 26.334 -2.33301 41.001 -7l74 -20h20h25c18 0 31.667 4.66699 41 14c10.667 12 18 27.667 22 47h95z" />
    <glyph glyph-name="ydieresis" unicode="&#xff;" horiz-adv-x="1090" 
d="M76 -446l284.001 600.001l-407 856h395l141 -365c14 -33.333 23.667 -62 29 -86c7.33301 -24.667 13.666 -49.334 18.999 -74.001c4 24 10 49.333 18 76c5.33301 23.333 15 51.333 29 84l143 365h381l-635 -1456h-397zM596.001 1249c0 34.667 12.333 64 37 88
c22 23.333 51.333 35 88 35c34.667 0 64.667 -11.667 90 -35c23.333 -22 35 -51.333 35 -88s-11.667 -66.667 -35 -90c-23.333 -24.667 -53.333 -37 -90 -37c-37.333 0 -67.333 12.333 -90 37c-23.333 23.333 -35 53.333 -35 90zM246.001 1249l0.000976562 -2.00195
c0 34.667 12.333 63.834 37 87.501s54.667 35.5 90 35.5s64.666 -11.667 87.999 -35s35 -52.666 35 -87.999c0 -36.667 -11 -66.667 -33 -90c-24.667 -23.333 -54.667 -35 -90 -35c-37.333 0 -67.333 12.333 -90 37c-24.667 22.667 -37 52.667 -37 90z" />
    <glyph glyph-name="aahoa" unicode="&#x102;" horiz-adv-x="1479" 
d="M543 547l396.999 -0.000976562l-149 483c-3.33301 8.66699 -9.66602 32.667 -18.999 72l-31 125c-9.33301 -34 -17.333 -68.333 -24 -103c-10.667 -33.333 -19.667 -64.666 -27 -93.999zM-16.001 -0.000976562l505 1464h500l506 -1464h-397l-74 262h-567l-76 -262h-397z
M478.999 1782l108.999 0.000976562c2 -38 15 -64.667 39 -80c24.667 -16.667 59.334 -25 104.001 -25c44 0 79 8.33301 105 25c24 16 36 42.667 36 80h105c-6 -84.667 -29.333 -146.334 -70 -185.001c-40.667 -38 -100 -57 -178 -57c-80 0 -140 19.667 -180 59
c-42.667 42.667 -66 103.667 -70 183z" />
    <glyph glyph-name="aath" unicode="&#x103;" horiz-adv-x="1352" 
d="M901 506c0 80 -21.001 142 -63.001 186c-42.667 46.667 -100 70 -172 70s-128.667 -22.667 -170 -68c-42.667 -46.667 -64 -109.334 -64 -188.001c0 -79.333 21.333 -141.666 64 -186.999c40.667 -44.667 97.334 -67 170.001 -67c72 0 129.167 22.333 171.5 67
s63.5 107 63.5 187zM1214 1010v-1010h-327v164c-47.333 -70 -100.166 -121.333 -158.499 -154s-126.5 -49 -204.5 -49c-135.333 0 -243 49.333 -323 148c-39.333 48.667 -69.333 106 -90 172s-31 140.333 -31 223c0 165.333 42.333 296.333 127 393s198 145 340 145
c76 0 141.333 -16.333 196 -49c55.333 -31.333 102.666 -81 141.999 -149v166h329zM507.999 1362l107.999 -0.000976562c2 -37.333 15 -64 39 -80c26 -16.667 61 -25 105 -25s78.5 8.16699 103.5 24.5s37.5 43.166 37.5 80.499h105
c-7.33301 -85.333 -30.666 -146.666 -69.999 -183.999c-20.667 -19.333 -46 -33.833 -76 -43.5s-64 -14.5 -102 -14.5c-80.667 0 -140.667 20 -180 60c-42.667 42.667 -66 103.334 -70 182.001z" />
    <glyph glyph-name="dhoa" unicode="&#x110;" horiz-adv-x="1591" 
d="M178 0l-0.000976562 614h-178v258h178v592h303c122.667 0 222.334 -2.66699 299.001 -8s139 -13.333 187 -24c94.667 -21.333 177 -57 247 -107c93.333 -63.333 163.666 -146 210.999 -248c48 -100 72 -215.333 72 -346s-24 -246 -72 -346
c-47.333 -101.333 -117.666 -184 -210.999 -248c-72 -49.333 -152.333 -84 -241 -104c-88 -22 -229.333 -33 -424 -33h-68h-303zM570.999 328l70 0.000976562c156.667 0 270.667 32.667 342 98c72.667 63.333 109 165 109 305c0 139.333 -36.333 241.666 -109 306.999
c-72 66 -186 99 -342 99h-70v-265h273v-258h-273v-286z" />
    <glyph glyph-name="dth" unicode="&#x111;" horiz-adv-x="1352" 
d="M903 504c0 79.333 -20.335 141.332 -61.002 185.999c-43.333 45.333 -100.666 68 -171.999 68c-72 0 -128.667 -22.667 -170 -68s-62 -107.333 -62 -186c0 -79.333 20.667 -141.666 62 -186.999c40.667 -44.667 97.334 -67 170.001 -67c72 0 129.333 22.333 172 67
c40.667 44.667 61 107 61 187zM1219 1550l0.000976562 -234.999h131v-115h-131v-1202h-328v164c-45.333 -68.667 -96.666 -119.334 -153.999 -152.001c-53.333 -34 -116 -51 -188 -51c-141.333 0 -254 49 -338 147c-84.667 100 -127 232 -127 396
c0 160 42.333 290.333 127 391c84 98 192.667 147 326 147c85.333 0 154.666 -15.667 207.999 -47c51.333 -28.667 99.333 -79.667 144 -153c-2.66699 18 -5.33398 45.333 -8.00098 82c-2.66699 40 -4 72.667 -4 98v180h-373v115h373v235h342z" />
    <glyph glyph-name="dth" unicode="&#x20ab;" horiz-adv-x="1352" 
d="M903 504c0 79.333 -20.335 141.332 -61.002 185.999c-43.333 45.333 -100.666 68 -171.999 68c-72 0 -128.667 -22.667 -170 -68s-62 -107.333 -62 -186c0 -79.333 20.667 -141.666 62 -186.999c40.667 -44.667 97.334 -67 170.001 -67c72 0 129.333 22.333 172 67
c40.667 44.667 61 107 61 187zM1219 1550l0.000976562 -234.999h131v-115h-131v-1202h-328v164c-45.333 -68.667 -96.666 -119.334 -153.999 -152.001c-53.333 -34 -116 -51 -188 -51c-141.333 0 -254 49 -338 147c-84.667 100 -127 232 -127 396
c0 160 42.333 290.333 127 391c84 98 192.667 147 326 147c85.333 0 154.666 -15.667 207.999 -47c51.333 -28.667 99.333 -79.667 144 -153c-2.66699 18 -5.33398 45.333 -8.00098 82c-2.66699 40 -4 72.667 -4 98v180h-373v115h373v235h342z" />
    <glyph glyph-name="ihoanga" unicode="&#x128;" horiz-adv-x="735" 
d="M166 0v1464h403v-1464h-403zM623 1798l-4.99902 -4.00098c-16.667 -69.333 -37.667 -118.333 -63 -147c-27.333 -33.333 -62.666 -50 -105.999 -50h-29h-25l-73 21c-22.667 6.66699 -39.334 10 -50.001 10c-14.667 0 -27.667 -4 -39 -12
c-8.66699 -8.66699 -17.334 -25 -26.001 -49h-94c14 67.333 34.333 116.333 61 147c26.667 32.667 61.667 49 105 49h26c11.333 0 25 -2 41 -6l74 -20h20h25c18 0 31.667 4.66699 41 14c10.667 10.667 18 26.334 22 47.001h95z" />
    <glyph glyph-name="ithnga" unicode="&#x129;" horiz-adv-x="639" 
d="M123 0v1010h356v-1010h-356zM553 1372l-4.00098 -4.00098c-17.333 -70 -38.666 -119 -63.999 -147c-26 -33.333 -61.333 -50 -106 -50h-29h-24l-74 21c-22.667 6.66699 -39 10 -49 10c-16 0 -29 -4 -39 -12c-9.33301 -9.33301 -18.333 -25.666 -27 -48.999h-94
c14 66 34.333 115 61 147c26.667 32.667 61.667 49 105 49h27c10.667 0 24 -2 40 -6l74 -20h21h24c18 0 31.667 4.66699 41 14c11.333 11.333 19 27 23 47h94z" />
    <glyph glyph-name="OE" unicode="&#x152;" horiz-adv-x="2224" 
d="M877 289c117.333 0 212.667 41 286 123c72.667 80.667 109 187 109 319c0 132.667 -37 240 -111 322s-168.667 123 -284 123c-112 0 -206.333 -42.333 -283 -127c-75.333 -83.333 -113 -189.333 -113 -318c0 -129.333 37 -235 111 -317
c73.333 -83.333 168.333 -125 285 -125zM1296 1464h860.998v-321h-508v-254h479v-314h-479v-247h508v-328h-861v199c-60.667 -82.667 -128.667 -143 -204 -181c-78 -38 -170.333 -57 -277 -57c-102 0 -192 17 -270 51c-83.333 33.333 -158.666 84.666 -225.999 153.999
c-75.333 76 -131 161.333 -167 256c-38.667 93.333 -58 196.333 -58 309c0 106 20 210.333 60 313c40 101.333 94.333 185.333 163 252c68 68 147.333 120 238 156c85.333 34 184.333 51 297 51c94 0 179.333 -17.667 256 -53
c74.667 -35.333 137.334 -86.666 188.001 -153.999v168z" />
    <glyph glyph-name="oe" unicode="&#x153;" horiz-adv-x="2009" 
d="M1178 623h409c-6 60 -27.667 107.667 -65 143s-83.333 53 -138 53c-58 0 -104.333 -16.333 -139 -49s-57 -81.667 -67 -147zM866 502c0 83.333 -19 147.999 -57 193.999c-40 48 -94 72 -162 72s-122 -24 -162 -72c-39.333 -47.333 -59 -112 -59 -194
c0 -81.333 19.667 -145.666 59 -192.999s93.333 -71 162 -71c70 0 124 23 162 69s57 111 57 195zM1018 882.999c41.333 55.333 93.333 96.334 156 123.001c59.333 25.333 132.333 38 219 38c170 0 303 -53 399 -159c48 -52.667 84.167 -115.334 108.5 -188.001
s36.5 -156.334 36.5 -251.001v-24h-766c3.33301 -70 24.666 -124.667 63.999 -164c41.333 -39.333 96.666 -59 165.999 -59c52.667 0 97.667 10 135 30c38 20 66 51 84 93l268 -111c-34.667 -80 -92 -141.333 -172 -184c-84 -44 -185 -66 -303 -66
c-101.333 0 -182.666 13 -243.999 39c-67.333 28 -119.666 68.333 -156.999 121c-37.333 -52.667 -88 -93 -152 -121c-60.667 -26 -139.667 -39 -237 -39c-81.333 0 -154 12.333 -218 37s-122.667 62.334 -176 113.001c-103.333 99.333 -155 226.333 -155 381
c0 157.333 52.333 289 157 395c106 104.667 236 157 390 157c88.667 0 165 -12.667 229 -38c66 -28.667 122 -69.667 168 -123z" />
    <glyph glyph-name="Scaron" unicode="&#x160;" horiz-adv-x="1190" 
d="M221 473c61.333 -68 120 -118.335 176 -151.002c58.667 -33.333 116 -50 172 -50c52.667 0 96.334 14.333 131.001 43s52 65 52 109c0 48 -14.333 85.667 -43 113c-30.667 26 -98.334 53 -203.001 81c-142.667 38.667 -243.667 88.667 -303 150
c-60 62.667 -90 148 -90 256c0 140 47 254 141 342c92.667 88.667 214 133 364 133c84.667 0 161.334 -11 230.001 -33c72 -22 140.333 -54.667 205 -98l-125 -287c-44 38 -90.667 67.333 -140 88c-48 19.333 -95 29 -141 29c-46.667 0 -85.667 -11.667 -117 -35
c-30 -22 -45 -51.333 -45 -88c0 -35.333 13 -64.666 39 -87.999c27.333 -22 78.666 -43 153.999 -63c2.66699 -0.666992 5 -1.16699 7 -1.5s5 -1.16602 9 -2.49902c162.667 -43.333 270 -92 322 -146c34 -34 60.667 -77 80 -129c17.333 -49.333 26 -105.333 26 -168
c0 -154.667 -51 -279.667 -153 -375c-102.667 -94 -238.667 -141 -408 -141c-104 0 -196.833 17 -278.5 51s-162.167 88.667 -241.5 164zM283 1886l159 -278h248l164 278h-137l-148 -143l-149 143h-137z" />
    <glyph glyph-name="scaron" unicode="&#x161;" horiz-adv-x="991" 
d="M37 84l74 272.003c52 -46 109.333 -80.667 172 -104c62 -24.667 124.667 -37 188 -37c45.333 0 79.333 7.66699 102 23c23.333 14 35 34.333 35 61c0 44.667 -47 78 -141 100c-32.667 7.33301 -57.334 13.666 -74.001 18.999c-108.667 32 -185.667 71 -231 117
c-49.333 47.333 -74 108.666 -74 183.999c0 97.333 37 175.666 111 234.999c71.333 58.667 171 88 299 88c62 0 128 -7.33301 198 -22c58.667 -12 127 -35.333 205 -70l-74 -245c-48 32.667 -96.333 57 -145 73c-46 16.667 -94.333 25 -145 25
c-41.333 0 -72.333 -6.33301 -93 -19c-20 -12 -30 -30.333 -30 -55c0 -34.667 47 -64.667 141 -90c30.667 -9.33301 46.334 -14 47.001 -14c122.667 -34.667 208.667 -75.667 258 -123c48 -50 72 -115 72 -195c0 -103.333 -39.667 -186.666 -119 -249.999
c-81.333 -64 -186.333 -96 -315 -96c-89.333 0 -171.5 10.167 -246.5 30.5s-146.5 51.166 -214.5 92.499zM193 1432l159 -279h248l164 279h-137l-148 -144l-149 144h-137z" />
    <glyph glyph-name="uhoanga" unicode="&#x168;" horiz-adv-x="1597" 
d="M145 1464l399.998 0.000976562v-712c0 -108.667 2.66699 -184 8 -226c6.66699 -50 15.667 -88 27 -114c14 -38 40.333 -66 79 -84c38.667 -20.667 85.334 -31 140.001 -31c54 0 100.333 10.333 139 31c35.333 17.333 62 45.333 80 84
c10.667 26.667 19.334 64.667 26.001 114c6 40 9 115.333 9 226v100v612h397v-774c0 -158.667 -9.66699 -276.667 -29 -354c-18 -76.667 -50.667 -142.334 -98 -197.001c-52 -60.667 -121 -105 -207 -133c-85.333 -30 -191 -45 -317 -45c-128.667 0 -234.667 15 -318 45
c-84.667 28 -153.667 72.333 -207 133c-46 53.333 -78.667 119 -98 197c-20.667 78.667 -31 196.667 -31 354v152v622zM1053 1798l-4.00098 -4.00098c-17.333 -70 -38.666 -119 -63.999 -147c-27.333 -33.333 -62.666 -50 -105.999 -50h-29h-25l-73 21
c-22.667 6.66699 -39.334 10 -50.001 10c-15.333 0 -28 -4 -38 -12c-9.33301 -8 -18.333 -24.333 -27 -49h-94c14 66 34.333 115 61 147c26.667 32.667 61.667 49 105 49h26c11.333 0 25 -2 41 -6l74 -20h20h25c18 0 31.667 4.66699 41 14
c10.667 10.667 18 26.334 22 47.001h95z" />
    <glyph glyph-name="uthnga" unicode="&#x169;" horiz-adv-x="1292" 
d="M1167 1010v-515.997c0 -115.333 -8.66699 -199.333 -26 -252c-18.667 -54.667 -50 -104 -94 -148c-42 -44 -97.333 -77.333 -166 -100c-65.333 -22 -144 -33 -236 -33c-91.333 0 -169 11 -233 33c-66 21.333 -122.667 54.666 -170 99.999c-43.333 41.333 -74 90 -92 146
c-18 52 -27 136.667 -27 254v516h340v-539c0 -84.667 14.333 -145.334 43 -182.001c26 -38.667 71 -58 135 -58c63.333 0 108.833 18.667 136.5 56s41.5 98.666 41.5 183.999v539h348zM901 1343l-4 -4c-16 -66.667 -37 -115.667 -63 -147
c-26.667 -32.667 -62.334 -49 -107.001 -49h-29h-24l-74 20c-24.667 7.33301 -41 11 -49 11c-15.333 0 -28.333 -4.33301 -39 -13c-8.66699 -8.66699 -17.667 -25 -27 -49h-94c15.333 68.667 36 118 62 148c26.667 32.667 61.334 49 104.001 49h27c10 0 23.667 -2 41 -6
l73 -21h21h24c18 0 31.667 4.66699 41 14c11.333 11.333 19 27 23 47h94z" />
    <glyph glyph-name="florin" unicode="&#x192;" horiz-adv-x="1280" 
d="M156 -117c5.33301 -0.666992 10.3379 -1.49805 15.0049 -2.49805l17 -3.5c7.33301 -1.33301 17.666 -2 30.999 -2c80 0 139.333 113.333 178 340c7.33301 42 11.666 68 12.999 78l67 397h-186l41 248h186l27 152c26 154 73 258.333 141 313c27.333 23.333 65 43 113 59
c42 12.667 89.667 19 143 19c28.667 0 58.667 -2 90 -6c52 -12 83.333 -19.667 94 -23l-45 -260c-18.667 8 -35 14 -49 18c-16 4.66699 -28.333 7 -37 7c-32 0 -56.333 -10.333 -73 -31s-30.334 -57.667 -41.001 -111l-23 -137h180l-41 -248h-182l-86 -518
c-39.333 -230.667 -90.833 -381.834 -154.5 -453.501s-165.834 -107.5 -306.501 -107.5c-14.667 0 -41.334 1.33301 -80.001 4c-8.66699 1.33301 -38.667 6.66602 -90 15.999z" />
    <glyph glyph-name="ochoa" unicode="&#x1a0;" horiz-adv-x="1753" 
d="M1659 729l-2.00293 2c0 -106.667 -19.333 -205.667 -58 -297c-36.667 -89.333 -93 -171.333 -169 -246c-75.333 -72 -160.666 -127 -255.999 -165c-99.333 -40 -199.333 -60 -300 -60c-100 0 -199.667 20 -299 60c-97.333 38.667 -181.666 93.667 -252.999 165
c-74 70 -130.833 152.5 -170.5 247.5s-59.5 193.5 -59.5 295.5s20 200.333 60 295c39.333 95.333 96 178 170 248c71.333 72.667 155.666 128.667 252.999 168c94.667 38 194.334 57 299.001 57c106.667 0 207.334 -19 302.001 -57
c96.667 -39.333 181.334 -95.333 254.001 -168c51.333 -47.333 90.666 -100.666 117.999 -159.999c36.667 9.33301 66 26.333 88 51s38.167 59.667 48.5 105s15.5 102.666 15.5 171.999v57h147c-2 -172.667 -25.833 -295 -71.5 -367s-103.5 -108 -173.5 -108
c38 -92 57 -190.333 57 -295zM873.997 301c110.667 0 203 41 277 123c70.667 78.667 106 181 106 307c0 122.667 -36 225 -108 307c-74 82 -165.667 123 -275 123c-110.667 0 -202 -41 -274 -123s-108 -184.333 -108 -307c0 -127.333 35.333 -230.333 106 -309
c72.667 -80.667 164.667 -121 276 -121z" />
    <glyph glyph-name="octh" unicode="&#x1a1;" horiz-adv-x="1276" 
d="M848 502c0 75.333 -19.002 134.668 -57.002 178.001c-39.333 43.333 -90.666 65 -153.999 65c-65.333 0 -116.666 -21.667 -153.999 -65c-38 -42 -57 -101.333 -57 -178c0 -74.667 18.333 -133.334 55 -176.001c40 -44 92 -66 156 -66s116 22 156 66
c36.667 44 55 102.667 55 176zM1202 502.002l4.00098 2.00098c0 -74 -14.333 -143 -43 -207c-28 -66.667 -69 -125.334 -123 -176.001c-58.667 -54.667 -119.334 -94.334 -182.001 -119.001c-64.667 -26 -137 -39 -217 -39c-79.333 0 -151.833 13 -217.5 39
s-126.334 65.5 -182.001 118.5s-95.834 111.833 -120.501 176.5c-28.667 62 -43 131 -43 207c0 74 14.333 143.667 43 209c26.667 66 67 124.667 121 176c52.667 50.667 113.334 89.667 182.001 117c66 25.333 138.333 38 217 38c79.333 0 151.666 -12.667 216.999 -38
c68.667 -27.333 129.334 -66.333 182.001 -117c38 -29.333 65.333 -63.666 82 -102.999c31.333 6 55 26.667 71 62s24 99.333 24 192l149 2c0 -113.333 -17.333 -197.833 -52 -253.5s-83 -87.167 -145 -94.5c10.667 -23.333 18.834 -51.833 24.501 -85.5
s8.5 -69.167 8.5 -106.5z" />
    <glyph glyph-name="uchoa" unicode="&#x1af;" horiz-adv-x="1597" 
d="M145 1464l399.999 0.00292969v-712c0 -108.667 2.66699 -184 8 -226c6.66699 -50 15.667 -88 27 -114c14 -38 40.333 -66 79 -84c38.667 -20.667 85.334 -31 140.001 -31c54 0 100.333 10.333 139 31c35.333 17.333 62 45.333 80 84
c10.667 26.667 19.334 64.667 26.001 114c6 40 9 115.333 9 226v100v612h397v-366c36 9.33301 61.667 35.166 77 77.499s23 111.166 23 206.499c0 16 -0.166992 29.5 -0.5 40.5s-0.833008 22.833 -1.5 35.5h148c-2 -172.667 -25.833 -295 -71.5 -367
s-103.834 -108 -174.501 -108v-293c0 -158.667 -9.66699 -276.667 -29 -354c-18 -76.667 -50.667 -142.334 -98 -197.001c-52 -60.667 -121 -105 -207 -133c-85.333 -30 -191 -45 -317 -45c-128.667 0 -234.667 15 -318 45c-84.667 28 -153.667 72.333 -207 133
c-46 53.333 -78.667 119 -98 197c-20.667 78.667 -31 196.667 -31 354v152v622z" />
    <glyph glyph-name="ucth" unicode="&#x1b0;" horiz-adv-x="1292" 
d="M1167 1010v-259.997c28 4.66699 49.667 25 65 61s23 100.333 23 193h148c0 -119.333 -22.167 -207.333 -66.5 -264s-100.833 -85 -169.5 -85v-161c0 -115.333 -8.66699 -199.333 -26 -252c-18.667 -54.667 -50 -104 -94 -148c-42 -44 -97.333 -77.333 -166 -100
c-65.333 -22 -144 -33 -236 -33c-91.333 0 -169 11 -233 33c-66 21.333 -122.667 54.666 -170 99.999c-43.333 41.333 -74 90 -92 146c-18 52 -27 136.667 -27 254v516h340v-539c0 -84.667 14.333 -145.334 43 -182.001c26 -38.667 71 -58 135 -58
c63.333 0 108.833 18.667 136.5 56s41.5 98.666 41.5 183.999v539h348z" />
    <glyph glyph-name="circumflex" unicode="&#x2c6;" horiz-adv-x="1024" 
d="M190 1147l183 350h276l182 -350h-153l-166 180l-168 -180h-154z" />
    <glyph glyph-name="tilde" unicode="&#x2dc;" horiz-adv-x="1024" 
d="M844 1468c-21.333 -88.667 -48.666 -151.332 -81.999 -187.999c-34.667 -40.667 -80.334 -61 -137.001 -61c-11.333 0 -25 1.33301 -41 4c-14.667 2 -26.334 4 -35.001 6l-92 26h-2c-32 10 -54 15 -66 15c-22 0 -39.667 -6.33301 -53 -19
c-15.333 -15.333 -27.666 -36.333 -36.999 -63h-119c19.333 87.333 46 150 80 188c35.333 41.333 80.333 62 135 62c6 0 18.333 -1.33301 37 -4c12 -2 29.667 -6.33301 53 -13l95 -26l26 -6.5c6.66699 -1.66699 17 -2.5 31 -2.5c22.667 0 41 7 55 21
c16 15.333 27 35.666 33 60.999h119z" />
    <glyph glyph-name="abhuyenth" unicode="&#x300;" 
d="M-614 1638h223l145 -278h-123z" />
    <glyph glyph-name="absacth" unicode="&#x301;" 
d="M-61 1597l-246 -278h-123l145 278h224z" />
    <glyph glyph-name="absacth" unicode="&#x302;" 
d="M-61 1597l-246 -278h-123l145 278h224z" />
    <glyph glyph-name="abngath" unicode="&#x303;" 
d="M-379 1679l-3.99902 -4c-16 -66.667 -37 -115.667 -63 -147c-26.667 -32.667 -62.334 -49 -107.001 -49h-29h-24l-74 20c-22.667 6.66699 -39 10 -49 10c-16 0 -29 -4 -39 -12c-8 -8 -17 -24.333 -27 -49h-94c15.333 68.667 36 117.667 62 147
c26 33.333 60.667 50 104 50h27c7.33301 0 21 -2.33301 41 -7l73 -20h21h24c18 0 31.667 4.66699 41 14c11.333 10 19 25.667 23 47h94z" />
    <glyph glyph-name="abhoith" unicode="&#x309;" 
d="M-256 1270l-135.002 0.00292969v157h39c28.667 0 48.334 4.33301 59.001 13c11.333 9.33301 17 24.333 17 45c0 15.333 -4.5 27.666 -13.5 36.999s-21.167 14 -36.5 14s-26.666 -2.66699 -33.999 -8c-8.66699 -8 -13 -20.333 -13 -37h-127c0 47.333 17 85.666 51 114.999
c34 27.333 80 41 138 41c50.667 0 91.667 -15 123 -45c30 -30.667 45 -70.334 45 -119.001c0 -40 -9.66699 -73 -29 -99c-20.667 -24 -48.667 -36 -84 -36v-78z" />
    <glyph glyph-name="ananghoa" unicode="&#x323;" 
d="M-1014 -276l2.00098 -0.00195312c0 36 13 66.667 39 92c26.667 26 58 39 94 39c36.667 0 69 -12.333 97 -37c24.667 -26 37 -57.333 37 -94c0 -37.333 -13 -69.666 -39 -96.999c-26.667 -26 -58.334 -39 -95.001 -39c-35.333 0 -67.333 13.667 -96 41
c-26 26.667 -39 58.334 -39 95.001z" />
    <glyph glyph-name="ananghoa" unicode="&#xf02b;" 
d="M-1014 -276l2.00098 -0.00195312c0 36 13 66.667 39 92c26.667 26 58 39 94 39c36.667 0 69 -12.333 97 -37c24.667 -26 37 -57.333 37 -94c0 -37.333 -13 -69.666 -39 -96.999c-26.667 -26 -58.334 -39 -95.001 -39c-35.333 0 -67.333 13.667 -96 41
c-26 26.667 -39 58.334 -39 95.001z" />
    <glyph glyph-name="ananghoa" unicode="&#xf029;" 
d="M-1014 -276l2.00098 -0.00195312c0 36 13 66.667 39 92c26.667 26 58 39 94 39c36.667 0 69 -12.333 97 -37c24.667 -26 37 -57.333 37 -94c0 -37.333 -13 -69.666 -39 -96.999c-26.667 -26 -58.334 -39 -95.001 -39c-35.333 0 -67.333 13.667 -96 41
c-26 26.667 -39 58.334 -39 95.001z" />
    <glyph glyph-name="ananghoa" unicode="&#xf022;" 
d="M-1014 -276l2.00098 -0.00195312c0 36 13 66.667 39 92c26.667 26 58 39 94 39c36.667 0 69 -12.333 97 -37c24.667 -26 37 -57.333 37 -94c0 -37.333 -13 -69.666 -39 -96.999c-26.667 -26 -58.334 -39 -95.001 -39c-35.333 0 -67.333 13.667 -96 41
c-26 26.667 -39 58.334 -39 95.001z" />
    <glyph glyph-name="ananghoa" unicode="&#xf021;" 
d="M-1014 -276l2.00098 -0.00195312c0 36 13 66.667 39 92c26.667 26 58 39 94 39c36.667 0 69 -12.333 97 -37c24.667 -26 37 -57.333 37 -94c0 -37.333 -13 -69.666 -39 -96.999c-26.667 -26 -58.334 -39 -95.001 -39c-35.333 0 -67.333 13.667 -96 41
c-26 26.667 -39 58.334 -39 95.001z" />
    <glyph glyph-name="ananghoa" unicode="&#xf020;" 
d="M-1014 -276l2.00098 -0.00195312c0 36 13 66.667 39 92c26.667 26 58 39 94 39c36.667 0 69 -12.333 97 -37c24.667 -26 37 -57.333 37 -94c0 -37.333 -13 -69.666 -39 -96.999c-26.667 -26 -58.334 -39 -95.001 -39c-35.333 0 -67.333 13.667 -96 41
c-26 26.667 -39 58.334 -39 95.001z" />
    <glyph glyph-name="ananghoa" unicode="&#xf01f;" 
d="M-1014 -276l2.00098 -0.00195312c0 36 13 66.667 39 92c26.667 26 58 39 94 39c36.667 0 69 -12.333 97 -37c24.667 -26 37 -57.333 37 -94c0 -37.333 -13 -69.666 -39 -96.999c-26.667 -26 -58.334 -39 -95.001 -39c-35.333 0 -67.333 13.667 -96 41
c-26 26.667 -39 58.334 -39 95.001z" />
    <glyph glyph-name="ananghoa" unicode="&#xf01e;" 
d="M-1014 -276l2.00098 -0.00195312c0 36 13 66.667 39 92c26.667 26 58 39 94 39c36.667 0 69 -12.333 97 -37c24.667 -26 37 -57.333 37 -94c0 -37.333 -13 -69.666 -39 -96.999c-26.667 -26 -58.334 -39 -95.001 -39c-35.333 0 -67.333 13.667 -96 41
c-26 26.667 -39 58.334 -39 95.001z" />
    <glyph glyph-name="ahuyenhoa" unicode="&#x340;" 
d="M-1137 1864h224l145 -279h-123z" />
    <glyph glyph-name="ahuyenhoa" unicode="&#xf00c;" 
d="M-1137 1864h224l145 -279h-123z" />
    <glyph glyph-name="asachoa" unicode="&#x341;" 
d="M-625 1864l-245 -279h-123l145 279h223z" />
    <glyph glyph-name="asachoa" unicode="&#xf007;" 
d="M-625 1864l-245 -279h-123l145 279h223z" />
    <glyph glyph-name="angahoa" unicode="&#x342;" 
d="M-614 1802l-3.99805 -4.00098c-18 -70.667 -39.333 -119.667 -64 -147c-26.667 -32.667 -62 -49 -106 -49h-29h-25l-73 20c-22.667 6.66699 -39.334 10 -50.001 10c-14.667 0 -27.667 -4 -39 -12c-8.66699 -8.66699 -17.334 -25 -26.001 -49h-94
c14.667 68.667 35 117.667 61 147c26.667 32.667 61.667 49 105 49h26c11.333 0 25 -2 41 -6l74 -20h20h25c18 0 31.667 4.66699 41 14c10.667 10.667 18 26.334 22 47.001h95z" />
    <glyph glyph-name="angahoa" unicode="&#xf030;" 
d="M-614 1802l-3.99805 -4.00098c-18 -70.667 -39.333 -119.667 -64 -147c-26.667 -32.667 -62 -49 -106 -49h-29h-25l-73 20c-22.667 6.66699 -39.334 10 -50.001 10c-14.667 0 -27.667 -4 -39 -12c-8.66699 -8.66699 -17.334 -25 -26.001 -49h-94
c14.667 68.667 35 117.667 61 147c26.667 32.667 61.667 49 105 49h26c11.333 0 25 -2 41 -6l74 -20h20h25c18 0 31.667 4.66699 41 14c10.667 10.667 18 26.334 22 47.001h95z" />
    <glyph glyph-name="angahoa" unicode="&#xf02e;" 
d="M-614 1802l-3.99805 -4.00098c-18 -70.667 -39.333 -119.667 -64 -147c-26.667 -32.667 -62 -49 -106 -49h-29h-25l-73 20c-22.667 6.66699 -39.334 10 -50.001 10c-14.667 0 -27.667 -4 -39 -12c-8.66699 -8.66699 -17.334 -25 -26.001 -49h-94
c14.667 68.667 35 117.667 61 147c26.667 32.667 61.667 49 105 49h26c11.333 0 25 -2 41 -6l74 -20h20h25c18 0 31.667 4.66699 41 14c10.667 10.667 18 26.334 22 47.001h95z" />
    <glyph glyph-name="angahoa" unicode="&#xf01c;" 
d="M-614 1802l-3.99805 -4.00098c-18 -70.667 -39.333 -119.667 -64 -147c-26.667 -32.667 -62 -49 -106 -49h-29h-25l-73 20c-22.667 6.66699 -39.334 10 -50.001 10c-14.667 0 -27.667 -4 -39 -12c-8.66699 -8.66699 -17.334 -25 -26.001 -49h-94
c14.667 68.667 35 117.667 61 147c26.667 32.667 61.667 49 105 49h26c11.333 0 25 -2 41 -6l74 -20h20h25c18 0 31.667 4.66699 41 14c10.667 10.667 18 26.334 22 47.001h95z" />
    <glyph glyph-name="angahoa" unicode="&#xf017;" 
d="M-614 1802l-3.99805 -4.00098c-18 -70.667 -39.333 -119.667 -64 -147c-26.667 -32.667 -62 -49 -106 -49h-29h-25l-73 20c-22.667 6.66699 -39.334 10 -50.001 10c-14.667 0 -27.667 -4 -39 -12c-8.66699 -8.66699 -17.334 -25 -26.001 -49h-94
c14.667 68.667 35 117.667 61 147c26.667 32.667 61.667 49 105 49h26c11.333 0 25 -2 41 -6l74 -20h20h25c18 0 31.667 4.66699 41 14c10.667 10.667 18 26.334 22 47.001h95z" />
    <glyph glyph-name="angahoa" unicode="&#xf016;" 
d="M-614 1802l-3.99805 -4.00098c-18 -70.667 -39.333 -119.667 -64 -147c-26.667 -32.667 -62 -49 -106 -49h-29h-25l-73 20c-22.667 6.66699 -39.334 10 -50.001 10c-14.667 0 -27.667 -4 -39 -12c-8.66699 -8.66699 -17.334 -25 -26.001 -49h-94
c14.667 68.667 35 117.667 61 147c26.667 32.667 61.667 49 105 49h26c11.333 0 25 -2 41 -6l74 -20h20h25c18 0 31.667 4.66699 41 14c10.667 10.667 18 26.334 22 47.001h95z" />
    <glyph glyph-name="ahoanang" unicode="&#x1ea0;" horiz-adv-x="1479" 
d="M543 547l396.999 -0.000976562l-149 483c-3.33301 8.66699 -9.66602 32.667 -18.999 72l-31 125c-9.33301 -34 -17.333 -68.333 -24 -103c-10.667 -33.333 -19.667 -64.666 -27 -93.999zM-16.001 -0.000976562l505 1464h500l506 -1464h-397l-74 262h-567l-76 -262h-397z
M577.999 -254.001l1.99902 0.00195312c0 38 12.667 68.667 38 92c26 26 57.667 39 95 39s69.333 -12.333 96 -37c24.667 -24 37 -55.333 37 -94s-13 -70.834 -39 -96.501s-57.333 -38.5 -94 -38.5c-37.333 0 -69.666 13.667 -96.999 41
c-25.333 25.333 -38 56.666 -38 93.999z" />
    <glyph glyph-name="athnang" unicode="&#x1ea1;" horiz-adv-x="1352" 
d="M901 506c0 80 -21.001 142 -63.001 186c-42.667 46.667 -100 70 -172 70s-128.667 -22.667 -170 -68c-42.667 -46.667 -64 -109.334 -64 -188.001c0 -79.333 21.333 -141.666 64 -186.999c40.667 -44.667 97.334 -67 170.001 -67c72 0 129.167 22.333 171.5 67
s63.5 107 63.5 187zM1214 1010v-1010h-327v164c-47.333 -70 -100.166 -121.333 -158.499 -154s-126.5 -49 -204.5 -49c-135.333 0 -243 49.333 -323 148c-39.333 48.667 -69.333 106 -90 172s-31 140.333 -31 223c0 165.333 42.333 296.333 127 393s198 145 340 145
c76 0 141.333 -16.333 196 -49c55.333 -31.333 102.666 -81 141.999 -149v166h329zM493.999 -272h2c0 37.333 13 68 39 92c26 26 57.333 39 94 39c36 0 68 -12.333 96 -37c24.667 -24.667 37 -56 37 -94c0 -38.667 -13.167 -71 -39.5 -97s-57.5 -39 -93.5 -39
s-68.333 13.667 -97 41c-25.333 26 -38 57.667 -38 95z" />
    <glyph glyph-name="ahoahoi" unicode="&#x1ea2;" horiz-adv-x="1479" 
d="M543 547l396.999 -0.000976562l-149 483c-3.33301 8.66699 -9.66602 32.667 -18.999 72l-31 125c-9.33301 -34 -17.333 -68.333 -24 -103c-10.667 -33.333 -19.667 -64.666 -27 -93.999zM-16.001 -0.000976562l505 1464h500l506 -1464h-397l-74 262h-567l-76 -262h-397z
M796.999 1565l-135.001 -0.00195312v157h38c30.667 0 50.667 4.33301 60 13c10.667 8.66699 16 23.667 16 45c0 16 -4 28.333 -12 37c-9.33301 9.33301 -21.666 14 -36.999 14c-16 0 -27.667 -2.66699 -35 -8c-8 -8 -12 -20.333 -12 -37h-127c0 48.667 17 86.834 51 114.501
s79.667 41.5 137 41.5c52 0 93 -15.333 123 -46c30 -29.333 45 -68.666 45 -117.999c0 -40.667 -9.33301 -73.667 -28 -99c-21.333 -24.667 -49.333 -37 -84 -37v-77z" />
    <glyph glyph-name="athhoi" unicode="&#x1ea3;" horiz-adv-x="1352" 
d="M901 506c0 80 -21.001 142 -63.001 186c-42.667 46.667 -100 70 -172 70s-128.667 -22.667 -170 -68c-42.667 -46.667 -64 -109.334 -64 -188.001c0 -79.333 21.333 -141.666 64 -186.999c40.667 -44.667 97.334 -67 170.001 -67c72 0 129.167 22.333 171.5 67
s63.5 107 63.5 187zM1214 1010v-1010h-327v164c-47.333 -70 -100.166 -121.333 -158.499 -154s-126.5 -49 -204.5 -49c-135.333 0 -243 49.333 -323 148c-39.333 48.667 -69.333 106 -90 172s-31 140.333 -31 223c0 165.333 42.333 296.333 127 393s198 145 340 145
c76 0 141.333 -16.333 196 -49c55.333 -31.333 102.666 -81 141.999 -149v166h329zM794.999 1153h-136.002v158h39c29.333 0 49.333 4 60 12c10.667 8.66699 16 23.667 16 45c0 16.667 -4 29 -12 37c-9.33301 9.33301 -21.666 14 -36.999 14c-16 0 -27.667 -2.66699 -35 -8
c-8 -8 -12 -20.333 -12 -37h-127c0 48.667 17 87 51 115c32.667 27.333 78.334 41 137.001 41c52 0 93 -15 123 -45s45 -69.667 45 -119c0 -41.333 -9.33301 -74 -28 -98c-20.667 -24.667 -48.667 -37 -84 -37v-78z" />
    <glyph glyph-name="abhoasac" unicode="&#x1ea4;" horiz-adv-x="1479" 
d="M543 547l396.999 -0.000976562l-149 483c-3.33301 8.66699 -9.66602 32.667 -18.999 72l-31 125c-9.33301 -34 -17.333 -68.333 -24 -103c-10.667 -33.333 -19.667 -64.666 -27 -93.999zM-16.001 -0.000976562l505 1464h500l506 -1464h-397l-74 262h-567l-76 -262h-397z
M448.999 1526l159 278h248l164 -278h-137l-148 143l-149 -143h-137zM1346 1980l-246 -278h-123l145 278h224z" />
    <glyph glyph-name="abthsac" unicode="&#x1ea5;" horiz-adv-x="1352" 
d="M901 506c0 80 -21.001 142 -63.001 186c-42.667 46.667 -100 70 -172 70s-128.667 -22.667 -170 -68c-42.667 -46.667 -64 -109.334 -64 -188.001c0 -79.333 21.333 -141.666 64 -186.999c40.667 -44.667 97.334 -67 170.001 -67c72 0 129.167 22.333 171.5 67
s63.5 107 63.5 187zM1214 1010v-1010h-327v164c-47.333 -70 -100.166 -121.333 -158.499 -154s-126.5 -49 -204.5 -49c-135.333 0 -243 49.333 -323 148c-39.333 48.667 -69.333 106 -90 172s-31 140.333 -31 223c0 165.333 42.333 296.333 127 393s198 145 340 145
c76 0 141.333 -16.333 196 -49c55.333 -31.333 102.666 -81 141.999 -149v166h329zM425.999 1116l160 279h248l163 -279h-137l-147 144l-150 -144h-137zM1323 1571l-246 -279h-123l146 279h223z" />
    <glyph glyph-name="abhoahuyen" unicode="&#x1ea6;" horiz-adv-x="1479" 
d="M543 547l396.999 -0.000976562l-149 483c-3.33301 8.66699 -9.66602 32.667 -18.999 72l-31 125c-9.33301 -34 -17.333 -68.333 -24 -103c-10.667 -33.333 -19.667 -64.666 -27 -93.999zM-16.001 -0.000976562l505 1464h500l506 -1464h-397l-74 262h-567l-76 -262h-397z
M448.999 1526l159 278h248l164 -278h-137l-148 143l-149 -143h-137zM773.999 2073h223l146 -279h-123z" />
    <glyph glyph-name="abthhuyen" unicode="&#x1ea7;" horiz-adv-x="1352" 
d="M901 506c0 80 -21.001 142 -63.001 186c-42.667 46.667 -100 70 -172 70s-128.667 -22.667 -170 -68c-42.667 -46.667 -64 -109.334 -64 -188.001c0 -79.333 21.333 -141.666 64 -186.999c40.667 -44.667 97.334 -67 170.001 -67c72 0 129.167 22.333 171.5 67
s63.5 107 63.5 187zM1214 1010v-1010h-327v164c-47.333 -70 -100.166 -121.333 -158.499 -154s-126.5 -49 -204.5 -49c-135.333 0 -243 49.333 -323 148c-39.333 48.667 -69.333 106 -90 172s-31 140.333 -31 223c0 165.333 42.333 296.333 127 393s198 145 340 145
c76 0 141.333 -16.333 196 -49c55.333 -31.333 102.666 -81 141.999 -149v166h329zM425.999 1116l160 279h248l163 -279h-137l-147 144l-150 -144h-137zM751.999 1663h223l145 -279h-123z" />
    <glyph glyph-name="abhoahoi" unicode="&#x1ea8;" horiz-adv-x="1479" 
d="M543 547l396.999 -0.000976562l-149 483c-3.33301 8.66699 -9.66602 32.667 -18.999 72l-31 125c-9.33301 -34 -17.333 -68.333 -24 -103c-10.667 -33.333 -19.667 -64.666 -27 -93.999zM-16.001 -0.000976562l505 1464h500l506 -1464h-397l-74 262h-567l-76 -262h-397z
M448.999 1526l159 278h248l164 -278h-137l-148 143l-149 -143h-137zM1114 1720l-135 0.000976562v158h39c30 0 49.667 4 59 12c11.333 9.33301 17 24.333 17 45c0 16.667 -4.33301 29 -13 37c-10 10 -22.333 15 -37 15c-16 0 -27.333 -3 -34 -9c-8.66699 -8 -13 -20 -13 -36
h-127c0 48 17.333 86 52 114c32 27.333 77.667 41 137 41c52 0 93 -15.167 123 -45.5s45 -69.833 45 -118.5c0 -40.667 -9.83301 -73.334 -29.5 -98.001s-47.5 -37 -83.5 -37v-78z" />
    <glyph glyph-name="abthhoi" unicode="&#x1ea9;" horiz-adv-x="1352" 
d="M901 506c0 80 -21.001 142 -63.001 186c-42.667 46.667 -100 70 -172 70s-128.667 -22.667 -170 -68c-42.667 -46.667 -64 -109.334 -64 -188.001c0 -79.333 21.333 -141.666 64 -186.999c40.667 -44.667 97.334 -67 170.001 -67c72 0 129.167 22.333 171.5 67
s63.5 107 63.5 187zM1214 1010v-1010h-327v164c-47.333 -70 -100.166 -121.333 -158.499 -154s-126.5 -49 -204.5 -49c-135.333 0 -243 49.333 -323 148c-39.333 48.667 -69.333 106 -90 172s-31 140.333 -31 223c0 165.333 42.333 296.333 127 393s198 145 340 145
c76 0 141.333 -16.333 196 -49c55.333 -31.333 102.666 -81 141.999 -149v166h329zM425.999 1116l160 279h248l163 -279h-137l-147 144l-150 -144h-137zM1092 1311l-136.001 -0.00195312v157h39c30 0 50 4.33301 60 13c10.667 8.66699 16 23.667 16 45
c0 16 -4 28.333 -12 37c-9.33301 9.33301 -21.666 14 -36.999 14c-16 0 -27.667 -2.66699 -35 -8c-8 -8 -12 -20.333 -12 -37h-127c0 48.667 17 86.834 51 114.501s79.667 41.5 137 41.5c51.333 0 92.333 -15.333 123 -46c30 -29.333 45 -68.666 45 -117.999
c0 -40.667 -9.33301 -73.667 -28 -99c-20.667 -24 -48.667 -36 -84 -36v-78z" />
    <glyph glyph-name="abhoanga" unicode="&#x1eaa;" horiz-adv-x="1479" 
d="M543 547l396.999 -0.000976562l-149 483c-3.33301 8.66699 -9.66602 32.667 -18.999 72l-31 125c-9.33301 -34 -17.333 -68.333 -24 -103c-10.667 -33.333 -19.667 -64.666 -27 -93.999zM-16.001 -0.000976562l505 1464h500l506 -1464h-397l-74 262h-567l-76 -262h-397z
M448.999 1526l159 278h248l164 -278h-137l-148 143l-149 -143h-137zM966.999 2118l-4.00098 -4.00098c-17.333 -70 -38.666 -119.333 -63.999 -148c-26.667 -32.667 -62 -49 -106 -49h-29h-25l-73 20c-22 7.33301 -38.667 11 -50 11c-16 0 -28.833 -4.33301 -38.5 -13
s-18.5 -25 -26.5 -49h-94c14 66.667 34.333 116 61 148c27.333 32.667 62.333 49 105 49h26c11.333 0 25 -2 41 -6l74 -21h20h25c18 0 31.667 5 41 15c10.667 10.667 18 26.334 22 47.001h95z" />
    <glyph glyph-name="abthnga" unicode="&#x1eab;" horiz-adv-x="1352" 
d="M901 506c0 80 -21.001 142 -63.001 186c-42.667 46.667 -100 70 -172 70s-128.667 -22.667 -170 -68c-42.667 -46.667 -64 -109.334 -64 -188.001c0 -79.333 21.333 -141.666 64 -186.999c40.667 -44.667 97.334 -67 170.001 -67c72 0 129.167 22.333 171.5 67
s63.5 107 63.5 187zM1214 1010v-1010h-327v164c-47.333 -70 -100.166 -121.333 -158.499 -154s-126.5 -49 -204.5 -49c-135.333 0 -243 49.333 -323 148c-39.333 48.667 -69.333 106 -90 172s-31 140.333 -31 223c0 165.333 42.333 296.333 127 393s198 145 340 145
c76 0 141.333 -16.333 196 -49c55.333 -31.333 102.666 -81 141.999 -149v166h329zM425.999 1116l160 279h248l163 -279h-137l-147 144l-150 -144h-137zM943.999 1708l-4 -4.00098c-16 -67.333 -37 -116.666 -63 -147.999c-27.333 -32.667 -63 -49 -107 -49h-29h-24l-74 21
c-22.667 6.66699 -39 10 -49 10c-16 0 -29 -4 -39 -12c-8 -8 -17 -24.333 -27 -49h-94c15.333 68 36 117 62 147c26 32.667 60.667 49 104 49h27c10 0 23.667 -2 41 -6l73 -20h21h24c18 0 31.667 4.66699 41 14c11.333 10 19 25.667 23 47h94z" />
    <glyph glyph-name="abhoanang" unicode="&#x1eac;" horiz-adv-x="1479" 
d="M543 547l396.999 -0.000976562l-149 483c-3.33301 8.66699 -9.66602 32.667 -18.999 72l-31 125c-9.33301 -34 -17.333 -68.333 -24 -103c-10.667 -33.333 -19.667 -64.666 -27 -93.999zM-16.001 -0.000976562l505 1464h500l506 -1464h-397l-74 262h-567l-76 -262h-397z
M448.999 1526l159 278h248l164 -278h-137l-148 143l-149 -143h-137zM597.999 -262.001l1.99902 0.000976562c0 37.333 13 68 39 92c26 26 57.333 39 94 39c38.667 0 70.5 -12.333 95.5 -37s37.5 -56 37.5 -94c0 -38.667 -13 -70.667 -39 -96
c-25.333 -26 -56.666 -39 -93.999 -39c-36.667 0 -68.667 13.667 -96 41c-26 25.333 -39 56.666 -39 93.999z" />
    <glyph glyph-name="abthnang" unicode="&#x1ead;" horiz-adv-x="1352" 
d="M901 506c0 80 -21.001 142 -63.001 186c-42.667 46.667 -100 70 -172 70s-128.667 -22.667 -170 -68c-42.667 -46.667 -64 -109.334 -64 -188.001c0 -79.333 21.333 -141.666 64 -186.999c40.667 -44.667 97.334 -67 170.001 -67c72 0 129.167 22.333 171.5 67
s63.5 107 63.5 187zM1214 1010v-1010h-327v164c-47.333 -70 -100.166 -121.333 -158.499 -154s-126.5 -49 -204.5 -49c-135.333 0 -243 49.333 -323 148c-39.333 48.667 -69.333 106 -90 172s-31 140.333 -31 223c0 165.333 42.333 296.333 127 393s198 145 340 145
c76 0 141.333 -16.333 196 -49c55.333 -31.333 102.666 -81 141.999 -149v166h329zM425.999 1116l160 279h248l163 -279h-137l-147 144l-150 -144h-137zM544.999 -293h2c0 38 13 68.667 39 92c25.333 26 56.666 39 93.999 39c38.667 0 70.667 -12.333 96 -37
c24.667 -24 37 -55.333 37 -94c0 -38 -13 -70 -39 -96c-25.333 -26 -56.666 -39 -93.999 -39c-38 0 -70 13.667 -96 41c-26 26 -39 57.333 -39 94z" />
    <glyph glyph-name="aahoasac" unicode="&#x1eae;" horiz-adv-x="1479" 
d="M543 547l396.999 -0.000976562l-149 483c-3.33301 8.66699 -9.66602 32.667 -18.999 72l-31 125c-9.33301 -34 -17.333 -68.333 -24 -103c-10.667 -33.333 -19.667 -64.666 -27 -93.999zM-16.001 -0.000976562l505 1464h500l506 -1464h-397l-74 262h-567l-76 -262h-397z
M478.999 1782l108.999 0.000976562c2 -38 15 -64.667 39 -80c24.667 -16.667 59.334 -25 104.001 -25c44 0 79 8.33301 105 25c24 16 36 42.667 36 80h105c-6 -84.667 -29.333 -146.334 -70 -185.001c-40.667 -38 -100 -57 -178 -57c-80 0 -140 19.667 -180 59
c-42.667 42.667 -66 103.667 -70 183zM996.998 2132l-245 -279h-123l145 279h223z" />
    <glyph glyph-name="aathsac" unicode="&#x1eaf;" horiz-adv-x="1352" 
d="M901 506c0 80 -21.001 142 -63.001 186c-42.667 46.667 -100 70 -172 70s-128.667 -22.667 -170 -68c-42.667 -46.667 -64 -109.334 -64 -188.001c0 -79.333 21.333 -141.666 64 -186.999c40.667 -44.667 97.334 -67 170.001 -67c72 0 129.167 22.333 171.5 67
s63.5 107 63.5 187zM1214 1010v-1010h-327v164c-47.333 -70 -100.166 -121.333 -158.499 -154s-126.5 -49 -204.5 -49c-135.333 0 -243 49.333 -323 148c-39.333 48.667 -69.333 106 -90 172s-31 140.333 -31 223c0 165.333 42.333 296.333 127 393s198 145 340 145
c76 0 141.333 -16.333 196 -49c55.333 -31.333 102.666 -81 141.999 -149v166h329zM507.999 1362l107.999 -0.000976562c2 -37.333 15 -64 39 -80c26 -16.667 61 -25 105 -25s78.5 8.16699 103.5 24.5s37.5 43.166 37.5 80.499h105
c-7.33301 -85.333 -30.666 -146.666 -69.999 -183.999c-20.667 -19.333 -46 -33.833 -76 -43.5s-64 -14.5 -102 -14.5c-80.667 0 -140.667 20 -180 60c-42.667 42.667 -66 103.334 -70 182.001zM1026 1712l-246 -278h-123l146 278h223z" />
    <glyph glyph-name="aahoahuyen" unicode="&#x1eb0;" horiz-adv-x="1479" 
d="M543 547l396.999 -0.000976562l-149 483c-3.33301 8.66699 -9.66602 32.667 -18.999 72l-31 125c-9.33301 -34 -17.333 -68.333 -24 -103c-10.667 -33.333 -19.667 -64.666 -27 -93.999zM-16.001 -0.000976562l505 1464h500l506 -1464h-397l-74 262h-567l-76 -262h-397z
M478.999 1782l108.999 0.000976562c2 -38 15 -64.667 39 -80c24.667 -16.667 59.334 -25 104.001 -25c44 0 79 8.33301 105 25c24 16 36 42.667 36 80h105c-6 -84.667 -29.333 -146.334 -70 -185.001c-40.667 -38 -100 -57 -178 -57c-80 0 -140 19.667 -180 59
c-42.667 42.667 -66 103.667 -70 183zM445.998 2142h224l145 -278h-123z" />
    <glyph glyph-name="aathhuyen" unicode="&#x1eb1;" horiz-adv-x="1352" 
d="M901 506c0 80 -21.001 142 -63.001 186c-42.667 46.667 -100 70 -172 70s-128.667 -22.667 -170 -68c-42.667 -46.667 -64 -109.334 -64 -188.001c0 -79.333 21.333 -141.666 64 -186.999c40.667 -44.667 97.334 -67 170.001 -67c72 0 129.167 22.333 171.5 67
s63.5 107 63.5 187zM1214 1010v-1010h-327v164c-47.333 -70 -100.166 -121.333 -158.499 -154s-126.5 -49 -204.5 -49c-135.333 0 -243 49.333 -323 148c-39.333 48.667 -69.333 106 -90 172s-31 140.333 -31 223c0 165.333 42.333 296.333 127 393s198 145 340 145
c76 0 141.333 -16.333 196 -49c55.333 -31.333 102.666 -81 141.999 -149v166h329zM507.999 1362l107.999 -0.000976562c2 -37.333 15 -64 39 -80c26 -16.667 61 -25 105 -25s78.5 8.16699 103.5 24.5s37.5 43.166 37.5 80.499h105
c-7.33301 -85.333 -30.666 -146.666 -69.999 -183.999c-20.667 -19.333 -46 -33.833 -76 -43.5s-64 -14.5 -102 -14.5c-80.667 0 -140.667 20 -180 60c-42.667 42.667 -66 103.334 -70 182.001zM474.998 1722h223l146 -278h-123z" />
    <glyph glyph-name="aahoahoi" unicode="&#x1eb2;" horiz-adv-x="1479" 
d="M543 547l396.999 -0.000976562l-149 483c-3.33301 8.66699 -9.66602 32.667 -18.999 72l-31 125c-9.33301 -34 -17.333 -68.333 -24 -103c-10.667 -33.333 -19.667 -64.666 -27 -93.999zM-16.001 -0.000976562l505 1464h500l506 -1464h-397l-74 262h-567l-76 -262h-397z
M478.999 1782l108.999 0.000976562c2 -38 15 -64.667 39 -80c24.667 -16.667 59.334 -25 104.001 -25c44 0 79 8.33301 105 25c24 16 36 42.667 36 80h105c-6 -84.667 -29.333 -146.334 -70 -185.001c-40.667 -38 -100 -57 -178 -57c-80 0 -140 19.667 -180 59
c-42.667 42.667 -66 103.667 -70 183zM785.998 1851l-135 0.000976562v158h39c29.333 0 49.333 4 60 12c10.667 10 16 25 16 45c0 16.667 -4 29 -12 37c-10 10 -22.333 15 -37 15c-16.667 0 -28.334 -3 -35.001 -9c-8 -8 -12 -20 -12 -36h-127c0 48.667 17 86.667 51 114
c32.667 27.333 78.334 41 137.001 41c52 0 93 -15 123 -45s45 -69.667 45 -119c0 -40.667 -9.66699 -73.334 -29 -98.001c-20.667 -24.667 -48.667 -37 -84 -37v-78z" />
    <glyph glyph-name="aathhoi" unicode="&#x1eb3;" horiz-adv-x="1352" 
d="M901 506c0 80 -21.001 142 -63.001 186c-42.667 46.667 -100 70 -172 70s-128.667 -22.667 -170 -68c-42.667 -46.667 -64 -109.334 -64 -188.001c0 -79.333 21.333 -141.666 64 -186.999c40.667 -44.667 97.334 -67 170.001 -67c72 0 129.167 22.333 171.5 67
s63.5 107 63.5 187zM1214 1010v-1010h-327v164c-47.333 -70 -100.166 -121.333 -158.499 -154s-126.5 -49 -204.5 -49c-135.333 0 -243 49.333 -323 148c-39.333 48.667 -69.333 106 -90 172s-31 140.333 -31 223c0 165.333 42.333 296.333 127 393s198 145 340 145
c76 0 141.333 -16.333 196 -49c55.333 -31.333 102.666 -81 141.999 -149v166h329zM507.999 1362l107.999 -0.000976562c2 -37.333 15 -64 39 -80c26 -16.667 61 -25 105 -25s78.5 8.16699 103.5 24.5s37.5 43.166 37.5 80.499h105
c-7.33301 -85.333 -30.666 -146.666 -69.999 -183.999c-20.667 -19.333 -46 -33.833 -76 -43.5s-64 -14.5 -102 -14.5c-80.667 0 -140.667 20 -180 60c-42.667 42.667 -66 103.334 -70 182.001zM814.998 1432h-135.002v157h39c30 0 49.667 4.33301 59 13
c11.333 8.66699 17 23.667 17 45c0 16 -4.33301 28 -13 36c-9.33301 10 -21.666 15 -36.999 15s-26.666 -2.66699 -33.999 -8c-8.66699 -8.66699 -13 -21 -13 -37h-127c0 48 17.333 86 52 114c32 27.333 77.667 41 137 41c52 0 93 -15 123 -45s45 -69.333 45 -118
c0 -41.333 -9.66699 -74.333 -29 -99c-20.667 -24.667 -48.667 -37 -84 -37v-77z" />
    <glyph glyph-name="aahoanga" unicode="&#x1eb4;" horiz-adv-x="1479" 
d="M543 547l396.999 -0.000976562l-149 483c-3.33301 8.66699 -9.66602 32.667 -18.999 72l-31 125c-9.33301 -34 -17.333 -68.333 -24 -103c-10.667 -33.333 -19.667 -64.666 -27 -93.999zM-16.001 -0.000976562l505 1464h500l506 -1464h-397l-74 262h-567l-76 -262h-397z
M478.999 1782l108.999 0.000976562c2 -38 15 -64.667 39 -80c24.667 -16.667 59.334 -25 104.001 -25c44 0 79 8.33301 105 25c24 16 36 42.667 36 80h105c-6 -84.667 -29.333 -146.334 -70 -185.001c-40.667 -38 -100 -57 -178 -57c-80 0 -140 19.667 -180 59
c-42.667 42.667 -66 103.667 -70 183zM976.998 2116l-4.00098 -5c-17.333 -69.333 -38.666 -118.333 -63.999 -147c-26 -32.667 -61.333 -49 -106 -49h-29h-24l-74 20c-22 7.33301 -38.333 11 -49 11c-16.667 0 -29.667 -4.33301 -39 -13c-10 -10 -19 -26.333 -27 -49h-94
c14 66.667 34.333 116 61 148c27.333 32.667 62.333 49 105 49h26c11.333 0 25 -2 41 -6l74 -21h21h24c18 0 31.667 4.66699 41 14c12 12.667 19.667 28.667 23 48h94z" />
    <glyph glyph-name="aathnga" unicode="&#x1eb5;" horiz-adv-x="1352" 
d="M901 506c0 80 -21.001 142 -63.001 186c-42.667 46.667 -100 70 -172 70s-128.667 -22.667 -170 -68c-42.667 -46.667 -64 -109.334 -64 -188.001c0 -79.333 21.333 -141.666 64 -186.999c40.667 -44.667 97.334 -67 170.001 -67c72 0 129.167 22.333 171.5 67
s63.5 107 63.5 187zM1214 1010v-1010h-327v164c-47.333 -70 -100.166 -121.333 -158.499 -154s-126.5 -49 -204.5 -49c-135.333 0 -243 49.333 -323 148c-39.333 48.667 -69.333 106 -90 172s-31 140.333 -31 223c0 165.333 42.333 296.333 127 393s198 145 340 145
c76 0 141.333 -16.333 196 -49c55.333 -31.333 102.666 -81 141.999 -149v166h329zM507.999 1362l107.999 -0.000976562c2 -37.333 15 -64 39 -80c26 -16.667 61 -25 105 -25s78.5 8.16699 103.5 24.5s37.5 43.166 37.5 80.499h105
c-7.33301 -85.333 -30.666 -146.666 -69.999 -183.999c-20.667 -19.333 -46 -33.833 -76 -43.5s-64 -14.5 -102 -14.5c-80.667 0 -140.667 20 -180 60c-42.667 42.667 -66 103.334 -70 182.001zM1006 1696l-4.99805 -4.00293c-16 -69.333 -37 -118.666 -63 -147.999
c-26.667 -32.667 -62.334 -49 -107.001 -49h-28h-25l-73 21c-22.667 6.66699 -39.334 10 -50.001 10c-15.333 0 -28.333 -4.33301 -39 -13c-9.33301 -9.33301 -18 -25.666 -26 -48.999h-94c14 68 34.333 117.333 61 148c26.667 32.667 61.667 49 105 49h26
c11.333 0 25 -2 41 -6l74 -21h20h25c18 0 31.667 5 41 15c10.667 10.667 18 26.334 22 47.001h95z" />
    <glyph glyph-name="aahoanang" unicode="&#x1eb6;" horiz-adv-x="1479" 
d="M543 547l396.999 -0.000976562l-149 483c-3.33301 8.66699 -9.66602 32.667 -18.999 72l-31 125c-9.33301 -34 -17.333 -68.333 -24 -103c-10.667 -33.333 -19.667 -64.666 -27 -93.999zM-16.001 -0.000976562l505 1464h500l506 -1464h-397l-74 262h-567l-76 -262h-397z
M478.999 1782l108.999 0.000976562c2 -38 15 -64.667 39 -80c24.667 -16.667 59.334 -25 104.001 -25c44 0 79 8.33301 105 25c24 16 36 42.667 36 80h105c-6 -84.667 -29.333 -146.334 -70 -185.001c-40.667 -38 -100 -57 -178 -57c-80 0 -140 19.667 -180 59
c-42.667 42.667 -66 103.667 -70 183zM607.998 -272l2.00098 -0.00195312c0 36 13 66.667 39 92c26.667 26 58 39 94 39c36.667 0 69 -12.333 97 -37c24.667 -26 37 -57.333 37 -94c0 -37.333 -13 -69.666 -39 -96.999c-26.667 -26 -58.334 -39 -95.001 -39
c-35.333 0 -67.333 13.667 -96 41c-26 26.667 -39 58.334 -39 95.001z" />
    <glyph glyph-name="aathnang" unicode="&#x1eb7;" horiz-adv-x="1352" 
d="M901 506c0 80 -21.001 142 -63.001 186c-42.667 46.667 -100 70 -172 70s-128.667 -22.667 -170 -68c-42.667 -46.667 -64 -109.334 -64 -188.001c0 -79.333 21.333 -141.666 64 -186.999c40.667 -44.667 97.334 -67 170.001 -67c72 0 129.167 22.333 171.5 67
s63.5 107 63.5 187zM1214 1010v-1010h-327v164c-47.333 -70 -100.166 -121.333 -158.499 -154s-126.5 -49 -204.5 -49c-135.333 0 -243 49.333 -323 148c-39.333 48.667 -69.333 106 -90 172s-31 140.333 -31 223c0 165.333 42.333 296.333 127 393s198 145 340 145
c76 0 141.333 -16.333 196 -49c55.333 -31.333 102.666 -81 141.999 -149v166h329zM507.999 1362l107.999 -0.000976562c2 -37.333 15 -64 39 -80c26 -16.667 61 -25 105 -25s78.5 8.16699 103.5 24.5s37.5 43.166 37.5 80.499h105
c-7.33301 -85.333 -30.666 -146.666 -69.999 -183.999c-20.667 -19.333 -46 -33.833 -76 -43.5s-64 -14.5 -102 -14.5c-80.667 0 -140.667 20 -180 60c-42.667 42.667 -66 103.334 -70 182.001zM554.998 -293.001h1.99902c0 38 13 68.667 39 92c26 26 57.333 39 94 39
c38.667 0 70.667 -12.333 96 -37c24.667 -24 37 -55.333 37 -94c0 -38 -13 -70 -39 -96c-25.333 -26 -56.666 -39 -93.999 -39c-36.667 0 -68.667 13.667 -96 41c-26 26 -39 57.333 -39 94z" />
    <glyph glyph-name="ehoanang" unicode="&#x1eb8;" horiz-adv-x="1161" 
d="M156 0v1464h897v-321h-508v-254h479v-314h-479v-247h508v-328h-897zM451 -254l2 0.00195312c0 38 13 68.667 39 92c25.333 26 56.666 39 93.999 39s69.333 -12.333 96 -37c24.667 -24 37 -55.333 37 -94s-13 -70.834 -39 -96.501s-57.333 -38.5 -94 -38.5
c-37.333 0 -69.666 13.667 -96.999 41c-25.333 25.333 -38 56.666 -38 93.999z" />
    <glyph glyph-name="ethnang" unicode="&#x1eb9;" horiz-adv-x="1251" 
d="M827 635c-6 56 -27.667 101.667 -65 137s-83 53 -137 53c-56.667 0 -102.667 -15.667 -138 -47c-36.667 -35.333 -59.667 -83 -69 -143h409zM1178 434h-768.001c2 -78.667 21.667 -138.667 59 -180c38.667 -42.667 94.667 -64 168 -64c53.333 0 99 10.333 137 31
c38.667 22 66.667 52 84 90l268 -108c-31.333 -76.667 -88 -136 -170 -178c-81.333 -42.667 -181 -64 -299 -64c-176 0 -317.333 49.333 -424 148c-106 96 -159 224.333 -159 385c0 156.667 53 287.667 159 393c106 103.333 240.667 155 404 155
c166.667 0 298.334 -52.333 395.001 -157c49.333 -54 86 -116.833 110 -188.5s36 -153.5 36 -245.5v-17zM470.999 -293h1.99902c0 38 13 68.667 39 92c26 26 57.333 39 94 39c38.667 0 70.667 -12.333 96 -37c24.667 -24 37 -55.333 37 -94c0 -38 -13 -70 -39 -96
c-25.333 -26 -56.666 -39 -93.999 -39c-36.667 0 -68.667 13.667 -96 41c-26 26 -39 57.333 -39 94z" />
    <glyph glyph-name="ehoahoi" unicode="&#x1eba;" horiz-adv-x="1161" 
d="M156 0v1464h897v-321h-508v-254h479v-314h-479v-247h508v-328h-897zM670 1565l-135.001 -0.00195312v157h38c30.667 0 50.667 4.33301 60 13c10.667 8.66699 16 23.667 16 45c0 16 -4 28.333 -12 37c-9.33301 9.33301 -21.666 14 -36.999 14
c-16 0 -27.667 -2.66699 -35 -8c-8 -8 -12 -20.333 -12 -37h-127c0 48.667 17 86.834 51 114.501s79.667 41.5 137 41.5c52 0 93 -15.333 123 -46c30 -29.333 45 -68.666 45 -117.999c0 -40.667 -9.33301 -73.667 -28 -99c-21.333 -24.667 -49.333 -37 -84 -37v-77z" />
    <glyph glyph-name="ethhoi" unicode="&#x1ebb;" horiz-adv-x="1251" 
d="M827 635c-6 56 -27.667 101.667 -65 137s-83 53 -137 53c-56.667 0 -102.667 -15.667 -138 -47c-36.667 -35.333 -59.667 -83 -69 -143h409zM1178 434h-768.001c2 -78.667 21.667 -138.667 59 -180c38.667 -42.667 94.667 -64 168 -64c53.333 0 99 10.333 137 31
c38.667 22 66.667 52 84 90l268 -108c-31.333 -76.667 -88 -136 -170 -178c-81.333 -42.667 -181 -64 -299 -64c-176 0 -317.333 49.333 -424 148c-106 96 -159 224.333 -159 385c0 156.667 53 287.667 159 393c106 103.333 240.667 155 404 155
c166.667 0 298.334 -52.333 395.001 -157c49.333 -54 86 -116.833 110 -188.5s36 -153.5 36 -245.5v-17zM689.999 1143l-135.001 0.000976562v157h39c28.667 0 48.334 4.33301 59.001 13c11.333 8.66699 17 23.667 17 45c0 16 -4.33301 28.333 -13 37
c-9.33301 9.33301 -21.333 14 -36 14c-16 0 -27.667 -2.66699 -35 -8c-8.66699 -8.66699 -13 -21 -13 -37h-127c0 48 17.333 86.333 52 115c33.333 27.333 79 41 137 41c50.667 0 91.667 -15 123 -45c30 -30.667 45 -70.334 45 -119.001c0 -41.333 -9.66699 -74.333 -29 -99
c-20 -24 -48 -36 -84 -36v-78z" />
    <glyph glyph-name="ehoanga" unicode="&#x1ebc;" horiz-adv-x="1161" 
d="M156 0v1464h897v-321h-508v-254h479v-314h-479v-247h508v-328h-897zM860 1798l-4 -4c-16 -68 -37 -117 -63 -147c-27.333 -33.333 -63 -50 -107 -50h-29h-24l-74 21c-22.667 6.66699 -39 10 -49 10c-16 0 -29 -4 -39 -12c-8 -8 -17 -24.333 -27 -49h-94
c15.333 68 36 117 62 147c26 32.667 60.667 49 104 49h27c10 0 23.667 -2 41 -6l73 -20h21h24c18 0 31.667 4.66699 41 14c11.333 10 19 25.667 23 47h94z" />
    <glyph glyph-name="ethnga" unicode="&#x1ebd;" horiz-adv-x="1251" 
d="M827 635c-6 56 -27.667 101.667 -65 137s-83 53 -137 53c-56.667 0 -102.667 -15.667 -138 -47c-36.667 -35.333 -59.667 -83 -69 -143h409zM1178 434h-768.001c2 -78.667 21.667 -138.667 59 -180c38.667 -42.667 94.667 -64 168 -64c53.333 0 99 10.333 137 31
c38.667 22 66.667 52 84 90l268 -108c-31.333 -76.667 -88 -136 -170 -178c-81.333 -42.667 -181 -64 -299 -64c-176 0 -317.333 49.333 -424 148c-106 96 -159 224.333 -159 385c0 156.667 53 287.667 159 393c106 103.333 240.667 155 404 155
c166.667 0 298.334 -52.333 395.001 -157c49.333 -54 86 -116.833 110 -188.5s36 -153.5 36 -245.5v-17zM880.999 1376l-3.99902 -4.00098c-18 -70.667 -39.333 -119.667 -64 -147c-26.667 -32.667 -62 -49 -106 -49h-29h-25l-73 20c-22.667 6.66699 -39.334 10 -50.001 10
c-15.333 0 -28 -4 -38 -12c-9.33301 -8 -18.333 -24.333 -27 -49h-94c14 67.333 34.333 116.333 61 147c26.667 32.667 61.667 49 105 49h26c11.333 0 25 -2 41 -6l74 -20h20h25c18 0 31.667 4.66699 41 14c10.667 10.667 18 26.334 22 47.001h95z" />
    <glyph glyph-name="ebhoasac" unicode="&#x1ebe;" horiz-adv-x="1161" 
d="M156 0v1464h897v-321h-508v-254h479v-314h-479v-247h508v-328h-897zM309 1526l160 278h248l164 -278h-138l-147 143l-150 -143h-137zM1206 1980l-245 -278h-123l145 278h223z" />
    <glyph glyph-name="ebthsac" unicode="&#x1ebf;" horiz-adv-x="1251" 
d="M827 635c-6 56 -27.667 101.667 -65 137s-83 53 -137 53c-56.667 0 -102.667 -15.667 -138 -47c-36.667 -35.333 -59.667 -83 -69 -143h409zM1178 434h-768.001c2 -78.667 21.667 -138.667 59 -180c38.667 -42.667 94.667 -64 168 -64c53.333 0 99 10.333 137 31
c38.667 22 66.667 52 84 90l268 -108c-31.333 -76.667 -88 -136 -170 -178c-81.333 -42.667 -181 -64 -299 -64c-176 0 -317.333 49.333 -424 148c-106 96 -159 224.333 -159 385c0 156.667 53 287.667 159 393c106 103.333 240.667 155 404 155
c166.667 0 298.334 -52.333 395.001 -157c49.333 -54 86 -116.833 110 -188.5s36 -153.5 36 -245.5v-17zM337.999 1100l160 278h247l164 -278h-137l-147 143l-150 -143h-137zM1235 1554l-246 -278h-123l146 278h223z" />
    <glyph glyph-name="ebhoahuyen" unicode="&#x1ec0;" horiz-adv-x="1161" 
d="M156 0v1464h897v-321h-508v-254h479v-314h-479v-247h508v-328h-897zM309 1526l160 278h248l164 -278h-138l-147 143l-150 -143h-137zM635 2073h223l146 -279h-123z" />
    <glyph glyph-name="ebthhuyen" unicode="&#x1ec1;" horiz-adv-x="1251" 
d="M827 635c-6 56 -27.667 101.667 -65 137s-83 53 -137 53c-56.667 0 -102.667 -15.667 -138 -47c-36.667 -35.333 -59.667 -83 -69 -143h409zM1178 434h-768.001c2 -78.667 21.667 -138.667 59 -180c38.667 -42.667 94.667 -64 168 -64c53.333 0 99 10.333 137 31
c38.667 22 66.667 52 84 90l268 -108c-31.333 -76.667 -88 -136 -170 -178c-81.333 -42.667 -181 -64 -299 -64c-176 0 -317.333 49.333 -424 148c-106 96 -159 224.333 -159 385c0 156.667 53 287.667 159 393c106 103.333 240.667 155 404 155
c166.667 0 298.334 -52.333 395.001 -157c49.333 -54 86 -116.833 110 -188.5s36 -153.5 36 -245.5v-17zM337.999 1100l160 278h247l164 -278h-137l-147 143l-150 -143h-137zM663.999 1647h223l145 -279h-123z" />
    <glyph glyph-name="ebhoahoi" unicode="&#x1ec2;" horiz-adv-x="1161" 
d="M156 0v1464h897v-321h-508v-254h479v-314h-479v-247h508v-328h-897zM309 1526l160 278h248l164 -278h-138l-147 143l-150 -143h-137zM975 1720h-135v158h39c30 0 49.667 4 59 12c10.667 10 16 25 16 45c0 16.667 -4 29 -12 37c-10 10 -22.333 15 -37 15
c-15.333 0 -27 -3 -35 -9c-8 -8 -12 -20 -12 -36h-127c0 48 17 86 51 114c32.667 27.333 78.667 41 138 41c52 0 92.667 -15 122 -45c30 -30 45 -69.667 45 -119c0 -40 -9.33301 -72.667 -28 -98c-20.667 -24.667 -48.667 -37 -84 -37v-78z" />
    <glyph glyph-name="ebthhoi" unicode="&#x1ec3;" horiz-adv-x="1251" 
d="M827 635c-6 56 -27.667 101.667 -65 137s-83 53 -137 53c-56.667 0 -102.667 -15.667 -138 -47c-36.667 -35.333 -59.667 -83 -69 -143h409zM1178 434h-768.001c2 -78.667 21.667 -138.667 59 -180c38.667 -42.667 94.667 -64 168 -64c53.333 0 99 10.333 137 31
c38.667 22 66.667 52 84 90l268 -108c-31.333 -76.667 -88 -136 -170 -178c-81.333 -42.667 -181 -64 -299 -64c-176 0 -317.333 49.333 -424 148c-106 96 -159 224.333 -159 385c0 156.667 53 287.667 159 393c106 103.333 240.667 155 404 155
c166.667 0 298.334 -52.333 395.001 -157c49.333 -54 86 -116.833 110 -188.5s36 -153.5 36 -245.5v-17zM337.999 1100l160 278h247l164 -278h-137l-147 143l-150 -143h-137zM1004 1294l-136 0.000976562v158h39c29.333 0 49.333 4 60 12c10.667 10 16 25 16 45
c0 16.667 -4 29 -12 37c-10 10 -22.333 15 -37 15c-16.667 0 -28.334 -3 -35.001 -9c-8 -8 -12 -20 -12 -36h-127c0 48.667 17 86.667 51 114c32.667 27.333 78.334 41 137.001 41c52 0 93 -15 123 -45s45 -69.667 45 -119c0 -40.667 -9.83301 -73.334 -29.5 -98.001
s-47.167 -37 -82.5 -37v-78z" />
    <glyph glyph-name="ebhoanga" unicode="&#x1ec4;" horiz-adv-x="1161" 
d="M156 0v1464h897v-321h-508v-254h479v-314h-479v-247h508v-328h-897zM309 1526l160 278h248l164 -278h-138l-147 143l-150 -143h-137zM827 2118l-4 -4.00195c-16 -67.333 -37 -116.666 -63 -147.999c-26.667 -32.667 -62.334 -49 -107.001 -49h-28h-25l-74 20
c-21.333 7.33301 -37.666 11 -48.999 11c-15.333 0 -28.333 -4.33301 -39 -13c-9.33301 -9.33301 -18 -25.666 -26 -48.999h-95c15.333 68.667 36 118 62 148c27.333 32.667 62 49 104 49h27c11.333 0 25 -2 41 -6l74 -21h20h25c17.333 0 31 5 41 15
c10.667 10.667 18 26.334 22 47h94z" />
    <glyph glyph-name="ebthnga" unicode="&#x1ec5;" horiz-adv-x="1251" 
d="M827 635c-6 56 -27.667 101.667 -65 137s-83 53 -137 53c-56.667 0 -102.667 -15.667 -138 -47c-36.667 -35.333 -59.667 -83 -69 -143h409zM1178 434h-768.001c2 -78.667 21.667 -138.667 59 -180c38.667 -42.667 94.667 -64 168 -64c53.333 0 99 10.333 137 31
c38.667 22 66.667 52 84 90l268 -108c-31.333 -76.667 -88 -136 -170 -178c-81.333 -42.667 -181 -64 -299 -64c-176 0 -317.333 49.333 -424 148c-106 96 -159 224.333 -159 385c0 156.667 53 287.667 159 393c106 103.333 240.667 155 404 155
c166.667 0 298.334 -52.333 395.001 -157c49.333 -54 86 -116.833 110 -188.5s36 -153.5 36 -245.5v-17zM337.999 1100l160 278h247l164 -278h-137l-147 143l-150 -143h-137zM855.999 1692l-4.00098 -3.99902c-16 -68 -37.333 -117.333 -64 -148
c-26 -32.667 -61.333 -49 -106 -49h-29h-24l-74 20c-22 7.33301 -38.333 11 -49 11c-16.667 0 -29.667 -4.33301 -39 -13c-8.66699 -8.66699 -17.667 -25 -27 -49h-94c14 67.333 34.667 116.666 62 147.999c26.667 32.667 61.334 49 104.001 49h27c10 0 23.667 -2 41 -6
l73 -21h21h24c18 0 31.667 5 41 15c11.333 10 19 25.667 23 47h94z" />
    <glyph glyph-name="ebhoanang" unicode="&#x1ec6;" horiz-adv-x="1161" 
d="M156 0v1464h897v-321h-508v-254h479v-314h-479v-247h508v-328h-897zM309 1526l160 278h248l164 -278h-138l-147 143l-150 -143h-137zM428 -252h1.99902c0 38 13 68.667 39 92c26 26 57.333 39 94 39c38.667 0 70.667 -12.333 96 -37c24.667 -24 37 -55.333 37 -94
s-13 -70.667 -39 -96c-25.333 -26 -56.666 -39 -93.999 -39c-36.667 0 -68.667 13.667 -96 41c-26 26 -39 57.333 -39 94z" />
    <glyph glyph-name="ebthnang" unicode="&#x1ec7;" horiz-adv-x="1251" 
d="M827 635c-6 56 -27.667 101.667 -65 137s-83 53 -137 53c-56.667 0 -102.667 -15.667 -138 -47c-36.667 -35.333 -59.667 -83 -69 -143h409zM1178 434h-768.001c2 -78.667 21.667 -138.667 59 -180c38.667 -42.667 94.667 -64 168 -64c53.333 0 99 10.333 137 31
c38.667 22 66.667 52 84 90l268 -108c-31.333 -76.667 -88 -136 -170 -178c-81.333 -42.667 -181 -64 -299 -64c-176 0 -317.333 49.333 -424 148c-106 96 -159 224.333 -159 385c0 156.667 53 287.667 159 393c106 103.333 240.667 155 404 155
c166.667 0 298.334 -52.333 395.001 -157c49.333 -54 86 -116.833 110 -188.5s36 -153.5 36 -245.5v-17zM337.999 1100l160 278h247l164 -278h-137l-147 143l-150 -143h-137zM456.999 -279l2 0.000976562c0 38 13 69 39 93c26 26 57.333 39 94 39
c37.333 0 69.333 -12.333 96 -37c24.667 -24.667 37 -56.334 37 -95.001c0 -38 -13.167 -70 -39.5 -96s-57.5 -39 -93.5 -39c-36.667 0 -68.667 13.667 -96 41c-26 26 -39 57.333 -39 94z" />
    <glyph glyph-name="ihoahoi" unicode="&#x1ec8;" horiz-adv-x="735" 
d="M166 0v1464h403v-1464h-403zM432 1585l-135.002 -0.000976562v158h39c30 0 49.667 4 59 12c11.333 8.66699 17 23.667 17 45c0 16.667 -4.33301 29 -13 37c-9.33301 9.33301 -21.666 14 -36.999 14s-26.666 -2.66699 -33.999 -8c-8.66699 -8 -13 -20.333 -13 -37h-127
c0 48 17.333 86.333 52 115c32 27.333 77.667 41 137 41c52 0 93 -15.167 123 -45.5s45 -69.833 45 -118.5c0 -41.333 -9.83301 -74.166 -29.5 -98.499s-47.5 -36.5 -83.5 -36.5v-78z" />
    <glyph glyph-name="ithhoi" unicode="&#x1ec9;" horiz-adv-x="639" 
d="M123 0v1010h356v-1010h-356zM362 1159l-135.001 -0.000976562v158h39c29.333 0 49.333 4 60 12c10.667 8.66699 16 23.667 16 45c0 16.667 -4 29 -12 37c-10 9.33301 -22.333 14 -37 14c-16 0 -27.667 -2.66699 -35 -8c-8 -8 -12 -20.333 -12 -37h-127
c0 48.667 17 87 51 115c32.667 27.333 78.334 41 137.001 41c52 0 93 -15 123 -45s45 -69.667 45 -119c0 -41.333 -9.83301 -74.166 -29.5 -98.499s-47.5 -36.5 -83.5 -36.5v-78z" />
    <glyph glyph-name="ihoanang" unicode="&#x1eca;" horiz-adv-x="735" 
d="M166 0v1464h403v-1464h-403zM233 -254h2.99902c0 38 12.667 68.667 38 92c26 26 57.667 39 95 39s69.333 -12.333 96 -37c24.667 -24.667 37 -56 37 -94s-13 -70 -39 -96s-57.333 -39 -94 -39c-37.333 0 -69.666 13.667 -96.999 41c-26 26 -39 57.333 -39 94z" />
    <glyph glyph-name="ithnang" unicode="&#x1ecb;" horiz-adv-x="639" 
d="M123 0v1010h356v-1010h-356zM168 1270l1.99902 0.000976562c0 37.333 13 68 39 92c26 26 57.333 39 94 39c38.667 0 70.5 -12.333 95.5 -37s37.5 -56 37.5 -94c0 -38.667 -13 -70.667 -39 -96c-25.333 -26 -56.666 -39 -93.999 -39c-38 0 -70 13.667 -96 41
c-26 25.333 -39 56.666 -39 93.999zM159.999 -280.999l2.00098 0.000976562c0 38 13 69 39 93c25.333 25.333 56.666 38 93.999 38c38 0 70 -12 96 -36c24.667 -24.667 37 -56.334 37 -95.001c0 -38 -13.167 -70 -39.5 -96s-57.5 -39 -93.5 -39
c-36.667 0 -68.667 13.667 -96 41c-26 26 -39 57.333 -39 94z" />
    <glyph glyph-name="ohoanang" unicode="&#x1ecc;" horiz-adv-x="1753" 
d="M1659 729c0 -106 -18.998 -205.002 -56.998 -297.002c-38 -90 -94.667 -172 -170 -246c-74.667 -72 -160 -127.333 -256 -166c-100.667 -39.333 -200.334 -59 -299.001 -59c-100 0 -199.667 19.667 -299 59c-98 39.333 -182.667 94.666 -254 165.999
c-72 68.667 -128.667 151.334 -170 248.001c-40 94.667 -60 193 -60 295s20 200.333 60 295c41.333 96.667 98 179.334 170 248.001c73.333 73.333 158 129.333 254 168c93.333 38 193 57 299 57s206.333 -19.167 301 -57.5s179.167 -94.166 253.5 -167.499
s131.166 -156 170.499 -248c38 -92 57 -190.333 57 -295zM877.002 298.998c110 0 202 40.998 276 122.998c36.667 40.667 63.667 86.334 81 137.001s26 107.334 26 170.001c0 122 -36.333 224.333 -109 307c-74 82 -165.333 123 -274 123c-111.333 0 -203 -41 -275 -123
s-108 -184.333 -108 -307c0 -127.333 35.333 -230.333 106 -309c72.667 -80.667 165 -121 277 -121zM723.002 -293.004h1.99902c0 38 13 68.667 39 92c26 26 57.333 39 94 39c38.667 0 70.667 -12.333 96 -37c24.667 -24 37 -55.333 37 -94c0 -38 -13 -70 -39 -96
c-25.333 -26 -56.666 -39 -93.999 -39c-38 0 -70 13.667 -96 41c-26 26 -39 57.333 -39 94z" />
    <glyph glyph-name="othnang" unicode="&#x1ecd;" horiz-adv-x="1276" 
d="M848 502c0 75.333 -19.002 134.668 -57.002 178.001c-39.333 43.333 -90.666 65 -153.999 65c-65.333 0 -116.666 -21.667 -153.999 -65c-38 -42 -57 -101.333 -57 -178c0 -74.667 18.333 -133.334 55 -176.001c40 -44 92 -66 156 -66s116 22 156 66
c36.667 44 55 102.667 55 176zM1202 502.002c0 -74 -14.333 -142.999 -43 -206.999c-30 -68 -71 -126.667 -123 -176c-58.667 -54.667 -119.334 -94.334 -182.001 -119.001c-65.333 -26 -137.666 -39 -216.999 -39c-80 0 -152.333 13 -217 39
c-66 26 -126.833 65.5 -182.5 118.5s-95.834 111.833 -120.501 176.5c-28.667 62 -43 131 -43 207c0 74 14.333 143.667 43 209c26.667 66 67 124.667 121 176c52.667 50.667 113.334 89.667 182.001 117c65.333 25.333 137.666 38 216.999 38c78.667 0 151 -12.667 217 -38
c68.667 -27.333 129.334 -66.333 182.001 -117c55.333 -50 96.333 -108.667 123 -176c28.667 -65.333 43 -135 43 -209zM482.998 -292.997h2c0 37.333 13 68 39 92c26 26 57.333 39 94 39c38 0 70.333 -12.333 97 -37c24.667 -24.667 37 -56 37 -94
c0 -36.667 -13 -68.667 -39 -96c-26 -26 -57.667 -39 -95 -39c-36.667 0 -68.667 13.667 -96 41c-26 26.667 -39 58 -39 94z" />
    <glyph glyph-name="ohoahoi" unicode="&#x1ece;" horiz-adv-x="1753" 
d="M1659 729c0 -106 -18.998 -205.002 -56.998 -297.002c-38 -90 -94.667 -172 -170 -246c-74.667 -72 -160 -127.333 -256 -166c-100.667 -39.333 -200.334 -59 -299.001 -59c-100 0 -199.667 19.667 -299 59c-98 39.333 -182.667 94.666 -254 165.999
c-72 68.667 -128.667 151.334 -170 248.001c-40 94.667 -60 193 -60 295s20 200.333 60 295c41.333 96.667 98 179.334 170 248.001c73.333 73.333 158 129.333 254 168c93.333 38 193 57 299 57s206.333 -19.167 301 -57.5s179.167 -94.166 253.5 -167.499
s131.166 -156 170.499 -248c38 -92 57 -190.333 57 -295zM877.002 298.998c110 0 202 40.998 276 122.998c36.667 40.667 63.667 86.334 81 137.001s26 107.334 26 170.001c0 122 -36.333 224.333 -109 307c-74 82 -165.333 123 -274 123c-111.333 0 -203 -41 -275 -123
s-108 -184.333 -108 -307c0 -127.333 35.333 -230.333 106 -309c72.667 -80.667 165 -121 277 -121zM942.002 1597l-135.001 0.000976562v158h39c30 0 49.667 4 59 12c11.333 9.33301 17 24.333 17 45c0 16.667 -4.33301 29 -13 37c-9.33301 10 -21.666 15 -36.999 15
c-16 0 -27.333 -3 -34 -9c-8.66699 -8 -13 -20 -13 -36h-127c0 48 17.333 86 52 114c32 27.333 77.667 41 137 41c52 0 93 -15.167 123 -45.5s45 -69.833 45 -118.5c0 -40.667 -9.66699 -73.334 -29 -98.001c-20.667 -24.667 -48.667 -37 -84 -37v-78z" />
    <glyph glyph-name="othhoi" unicode="&#x1ecf;" horiz-adv-x="1276" 
d="M848 502c0 75.333 -19.002 134.668 -57.002 178.001c-39.333 43.333 -90.666 65 -153.999 65c-65.333 0 -116.666 -21.667 -153.999 -65c-38 -42 -57 -101.333 -57 -178c0 -74.667 18.333 -133.334 55 -176.001c40 -44 92 -66 156 -66s116 22 156 66
c36.667 44 55 102.667 55 176zM1202 502.002c0 -74 -14.333 -142.999 -43 -206.999c-30 -68 -71 -126.667 -123 -176c-58.667 -54.667 -119.334 -94.334 -182.001 -119.001c-65.333 -26 -137.666 -39 -216.999 -39c-80 0 -152.333 13 -217 39
c-66 26 -126.833 65.5 -182.5 118.5s-95.834 111.833 -120.501 176.5c-28.667 62 -43 131 -43 207c0 74 14.333 143.667 43 209c26.667 66 67 124.667 121 176c52.667 50.667 113.334 89.667 182.001 117c65.333 25.333 137.666 38 216.999 38c78.667 0 151 -12.667 217 -38
c68.667 -27.333 129.334 -66.333 182.001 -117c55.333 -50 96.333 -108.667 123 -176c28.667 -65.333 43 -135 43 -209zM701.998 1143l-135 -0.000976562v157h39c28.667 0 48.5 4.33301 59.5 13s16.5 23.667 16.5 45c0 16 -4 28.333 -12 37c-10 9.33301 -22.333 14 -37 14
c-16 0 -27.667 -2.66699 -35 -8c-8 -8 -12 -20.333 -12 -37h-127c0 48.667 17 86.834 51 114.501s79.667 41.5 137 41.5c50.667 0 91.667 -15 123 -45c30 -30 45 -69.667 45 -119c0 -41.333 -9.66699 -74.333 -29 -99c-20 -24 -48 -36 -84 -36v-78z" />
    <glyph glyph-name="obhoasac" unicode="&#x1ed0;" horiz-adv-x="1753" 
d="M1659 729c0 -106 -18.998 -205.002 -56.998 -297.002c-38 -90 -94.667 -172 -170 -246c-74.667 -72 -160 -127.333 -256 -166c-100.667 -39.333 -200.334 -59 -299.001 -59c-100 0 -199.667 19.667 -299 59c-98 39.333 -182.667 94.666 -254 165.999
c-72 68.667 -128.667 151.334 -170 248.001c-40 94.667 -60 193 -60 295s20 200.333 60 295c41.333 96.667 98 179.334 170 248.001c73.333 73.333 158 129.333 254 168c93.333 38 193 57 299 57s206.333 -19.167 301 -57.5s179.167 -94.166 253.5 -167.499
s131.166 -156 170.499 -248c38 -92 57 -190.333 57 -295zM877.002 298.998c110 0 202 40.998 276 122.998c36.667 40.667 63.667 86.334 81 137.001s26 107.334 26 170.001c0 122 -36.333 224.333 -109 307c-74 82 -165.333 123 -274 123c-111.333 0 -203 -41 -275 -123
s-108 -184.333 -108 -307c0 -127.333 35.333 -230.333 106 -309c72.667 -80.667 165 -121 277 -121zM600.002 1559l160 278h248l163 -278h-137l-147 143l-150 -143h-137zM1497 2013l-246 -278h-123l146 278h223z" />
    <glyph glyph-name="obthsac" unicode="&#x1ed1;" horiz-adv-x="1276" 
d="M848 502c0 75.333 -19.002 134.668 -57.002 178.001c-39.333 43.333 -90.666 65 -153.999 65c-65.333 0 -116.666 -21.667 -153.999 -65c-38 -42 -57 -101.333 -57 -178c0 -74.667 18.333 -133.334 55 -176.001c40 -44 92 -66 156 -66s116 22 156 66
c36.667 44 55 102.667 55 176zM1202 502.002c0 -74 -14.333 -142.999 -43 -206.999c-30 -68 -71 -126.667 -123 -176c-58.667 -54.667 -119.334 -94.334 -182.001 -119.001c-65.333 -26 -137.666 -39 -216.999 -39c-80 0 -152.333 13 -217 39
c-66 26 -126.833 65.5 -182.5 118.5s-95.834 111.833 -120.501 176.5c-28.667 62 -43 131 -43 207c0 74 14.333 143.667 43 209c26.667 66 67 124.667 121 176c52.667 50.667 113.334 89.667 182.001 117c65.333 25.333 137.666 38 216.999 38c78.667 0 151 -12.667 217 -38
c68.667 -27.333 129.334 -66.333 182.001 -117c55.333 -50 96.333 -108.667 123 -176c28.667 -65.333 43 -135 43 -209zM351.998 1106l160 278h248l164 -278h-138l-147 143l-150 -143h-137zM1249 1561l-245 -279h-123l145 279h223z" />
    <glyph glyph-name="obhoahuyen" unicode="&#x1ed2;" horiz-adv-x="1753" 
d="M1659 729c0 -106 -18.998 -205.002 -56.998 -297.002c-38 -90 -94.667 -172 -170 -246c-74.667 -72 -160 -127.333 -256 -166c-100.667 -39.333 -200.334 -59 -299.001 -59c-100 0 -199.667 19.667 -299 59c-98 39.333 -182.667 94.666 -254 165.999
c-72 68.667 -128.667 151.334 -170 248.001c-40 94.667 -60 193 -60 295s20 200.333 60 295c41.333 96.667 98 179.334 170 248.001c73.333 73.333 158 129.333 254 168c93.333 38 193 57 299 57s206.333 -19.167 301 -57.5s179.167 -94.166 253.5 -167.499
s131.166 -156 170.499 -248c38 -92 57 -190.333 57 -295zM877.002 298.998c110 0 202 40.998 276 122.998c36.667 40.667 63.667 86.334 81 137.001s26 107.334 26 170.001c0 122 -36.333 224.333 -109 307c-74 82 -165.333 123 -274 123c-111.333 0 -203 -41 -275 -123
s-108 -184.333 -108 -307c0 -127.333 35.333 -230.333 106 -309c72.667 -80.667 165 -121 277 -121zM600.002 1559l160 278h248l163 -278h-137l-147 143l-150 -143h-137zM926.002 2105h223l145 -278h-123z" />
    <glyph glyph-name="obthhuyen" unicode="&#x1ed3;" horiz-adv-x="1276" 
d="M848 502c0 75.333 -19.002 134.668 -57.002 178.001c-39.333 43.333 -90.666 65 -153.999 65c-65.333 0 -116.666 -21.667 -153.999 -65c-38 -42 -57 -101.333 -57 -178c0 -74.667 18.333 -133.334 55 -176.001c40 -44 92 -66 156 -66s116 22 156 66
c36.667 44 55 102.667 55 176zM1202 502.002c0 -74 -14.333 -142.999 -43 -206.999c-30 -68 -71 -126.667 -123 -176c-58.667 -54.667 -119.334 -94.334 -182.001 -119.001c-65.333 -26 -137.666 -39 -216.999 -39c-80 0 -152.333 13 -217 39
c-66 26 -126.833 65.5 -182.5 118.5s-95.834 111.833 -120.501 176.5c-28.667 62 -43 131 -43 207c0 74 14.333 143.667 43 209c26.667 66 67 124.667 121 176c52.667 50.667 113.334 89.667 182.001 117c65.333 25.333 137.666 38 216.999 38c78.667 0 151 -12.667 217 -38
c68.667 -27.333 129.334 -66.333 182.001 -117c55.333 -50 96.333 -108.667 123 -176c28.667 -65.333 43 -135 43 -209zM351.998 1106l160 278h248l164 -278h-138l-147 143l-150 -143h-137zM677.998 1653h223l146 -279h-123z" />
    <glyph glyph-name="obhoahoi" unicode="&#x1ed4;" horiz-adv-x="1753" 
d="M1659 729c0 -106 -18.998 -205.002 -56.998 -297.002c-38 -90 -94.667 -172 -170 -246c-74.667 -72 -160 -127.333 -256 -166c-100.667 -39.333 -200.334 -59 -299.001 -59c-100 0 -199.667 19.667 -299 59c-98 39.333 -182.667 94.666 -254 165.999
c-72 68.667 -128.667 151.334 -170 248.001c-40 94.667 -60 193 -60 295s20 200.333 60 295c41.333 96.667 98 179.334 170 248.001c73.333 73.333 158 129.333 254 168c93.333 38 193 57 299 57s206.333 -19.167 301 -57.5s179.167 -94.166 253.5 -167.499
s131.166 -156 170.499 -248c38 -92 57 -190.333 57 -295zM877.002 298.998c110 0 202 40.998 276 122.998c36.667 40.667 63.667 86.334 81 137.001s26 107.334 26 170.001c0 122 -36.333 224.333 -109 307c-74 82 -165.333 123 -274 123c-111.333 0 -203 -41 -275 -123
s-108 -184.333 -108 -307c0 -127.333 35.333 -230.333 106 -309c72.667 -80.667 165 -121 277 -121zM600.002 1559l160 278h248l163 -278h-137l-147 143l-150 -143h-137zM1266 1753h-136.002v158h39c30.667 0 50.667 4 60 12c10.667 8.66699 16 23.667 16 45
c0 16.667 -4 29 -12 37c-9.33301 9.33301 -21.666 14 -36.999 14c-16 0 -27.667 -2.66699 -35 -8c-8 -8 -12 -20.333 -12 -37h-127c0 48.667 17 87 51 115c32.667 27.333 78.334 41 137.001 41c52.667 0 93.667 -15 123 -45c30 -30 45 -69.667 45 -119
c0 -41.333 -9.33301 -74 -28 -98c-20.667 -24.667 -48.667 -37 -84 -37v-78z" />
    <glyph glyph-name="obthhoi" unicode="&#x1ed5;" horiz-adv-x="1276" 
d="M848 502c0 75.333 -19.002 134.668 -57.002 178.001c-39.333 43.333 -90.666 65 -153.999 65c-65.333 0 -116.666 -21.667 -153.999 -65c-38 -42 -57 -101.333 -57 -178c0 -74.667 18.333 -133.334 55 -176.001c40 -44 92 -66 156 -66s116 22 156 66
c36.667 44 55 102.667 55 176zM1202 502.002c0 -74 -14.333 -142.999 -43 -206.999c-30 -68 -71 -126.667 -123 -176c-58.667 -54.667 -119.334 -94.334 -182.001 -119.001c-65.333 -26 -137.666 -39 -216.999 -39c-80 0 -152.333 13 -217 39
c-66 26 -126.833 65.5 -182.5 118.5s-95.834 111.833 -120.501 176.5c-28.667 62 -43 131 -43 207c0 74 14.333 143.667 43 209c26.667 66 67 124.667 121 176c52.667 50.667 113.334 89.667 182.001 117c65.333 25.333 137.666 38 216.999 38c78.667 0 151 -12.667 217 -38
c68.667 -27.333 129.334 -66.333 182.001 -117c55.333 -50 96.333 -108.667 123 -176c28.667 -65.333 43 -135 43 -209zM351.998 1106l160 278h248l164 -278h-138l-147 143l-150 -143h-137zM1018 1300h-135.001v158h39c30 0 49.667 4 59 12c10.667 10 16 25.333 16 46
c0 16 -4 28 -12 36c-9.33301 10 -21.666 15 -36.999 15s-27 -2.66699 -35 -8c-8 -8.66699 -12 -21 -12 -37h-127c0 48 17 86 51 114c32.667 27.333 78.667 41 138 41c52 0 92.667 -15 122 -45c30 -29.333 45 -69 45 -119c0 -40 -9.33301 -72.667 -28 -98
c-21.333 -24.667 -49.333 -37 -84 -37v-78z" />
    <glyph glyph-name="obhoanga" unicode="&#x1ed6;" horiz-adv-x="1753" 
d="M1659 729c0 -106 -18.998 -205.002 -56.998 -297.002c-38 -90 -94.667 -172 -170 -246c-74.667 -72 -160 -127.333 -256 -166c-100.667 -39.333 -200.334 -59 -299.001 -59c-100 0 -199.667 19.667 -299 59c-98 39.333 -182.667 94.666 -254 165.999
c-72 68.667 -128.667 151.334 -170 248.001c-40 94.667 -60 193 -60 295s20 200.333 60 295c41.333 96.667 98 179.334 170 248.001c73.333 73.333 158 129.333 254 168c93.333 38 193 57 299 57s206.333 -19.167 301 -57.5s179.167 -94.166 253.5 -167.499
s131.166 -156 170.499 -248c38 -92 57 -190.333 57 -295zM877.002 298.998c110 0 202 40.998 276 122.998c36.667 40.667 63.667 86.334 81 137.001s26 107.334 26 170.001c0 122 -36.333 224.333 -109 307c-74 82 -165.333 123 -274 123c-111.333 0 -203 -41 -275 -123
s-108 -184.333 -108 -307c0 -127.333 35.333 -230.333 106 -309c72.667 -80.667 165 -121 277 -121zM600.002 1559l160 278h248l163 -278h-137l-147 143l-150 -143h-137zM1118 2150l-3.99902 -4c-16 -66.667 -37 -115.667 -63 -147
c-26.667 -32.667 -62.334 -49 -107.001 -49h-29h-24l-74 20c-21.333 6.66699 -37.666 10 -48.999 10c-16 0 -29 -4 -39 -12c-8.66699 -8.66699 -17.667 -25 -27 -49h-94c15.333 68.667 36 117.667 62 147c26 33.333 60.667 50 104 50h27c11.333 0 25 -2.33301 41 -7l73 -20
h21h25c17.333 0 30.666 4.66699 39.999 14c11.333 11.333 19 27 23 47h94z" />
    <glyph glyph-name="obthnga" unicode="&#x1ed7;" horiz-adv-x="1276" 
d="M848 502c0 75.333 -19.002 134.668 -57.002 178.001c-39.333 43.333 -90.666 65 -153.999 65c-65.333 0 -116.666 -21.667 -153.999 -65c-38 -42 -57 -101.333 -57 -178c0 -74.667 18.333 -133.334 55 -176.001c40 -44 92 -66 156 -66s116 22 156 66
c36.667 44 55 102.667 55 176zM1202 502.002c0 -74 -14.333 -142.999 -43 -206.999c-30 -68 -71 -126.667 -123 -176c-58.667 -54.667 -119.334 -94.334 -182.001 -119.001c-65.333 -26 -137.666 -39 -216.999 -39c-80 0 -152.333 13 -217 39
c-66 26 -126.833 65.5 -182.5 118.5s-95.834 111.833 -120.501 176.5c-28.667 62 -43 131 -43 207c0 74 14.333 143.667 43 209c26.667 66 67 124.667 121 176c52.667 50.667 113.334 89.667 182.001 117c65.333 25.333 137.666 38 216.999 38c78.667 0 151 -12.667 217 -38
c68.667 -27.333 129.334 -66.333 182.001 -117c55.333 -50 96.333 -108.667 123 -176c28.667 -65.333 43 -135 43 -209zM351.998 1106l160 278h248l164 -278h-138l-147 143l-150 -143h-137zM869.998 1698l-4.00098 -4.00195c-16 -67.333 -37 -116.666 -63 -147.999
c-26.667 -32.667 -62.334 -49 -107.001 -49h-28h-25l-74 21c-21.333 6.66699 -37.666 10 -48.999 10c-14.667 0 -27.667 -4 -39 -12c-9.33301 -10 -18 -26.667 -26 -50h-95c15.333 68.667 36 118 62 148c26.667 32.667 61.334 49 104.001 49h27c11.333 0 25 -2 41 -6l74 -21
h20h25c17.333 0 31 5 41 15c10.667 10.667 18 26.334 22 47.001h94z" />
    <glyph glyph-name="obhoanang" unicode="&#x1ed8;" horiz-adv-x="1753" 
d="M1659 729c0 -106 -18.998 -205.002 -56.998 -297.002c-38 -90 -94.667 -172 -170 -246c-74.667 -72 -160 -127.333 -256 -166c-100.667 -39.333 -200.334 -59 -299.001 -59c-100 0 -199.667 19.667 -299 59c-98 39.333 -182.667 94.666 -254 165.999
c-72 68.667 -128.667 151.334 -170 248.001c-40 94.667 -60 193 -60 295s20 200.333 60 295c41.333 96.667 98 179.334 170 248.001c73.333 73.333 158 129.333 254 168c93.333 38 193 57 299 57s206.333 -19.167 301 -57.5s179.167 -94.166 253.5 -167.499
s131.166 -156 170.499 -248c38 -92 57 -190.333 57 -295zM877.002 298.998c110 0 202 40.998 276 122.998c36.667 40.667 63.667 86.334 81 137.001s26 107.334 26 170.001c0 122 -36.333 224.333 -109 307c-74 82 -165.333 123 -274 123c-111.333 0 -203 -41 -275 -123
s-108 -184.333 -108 -307c0 -127.333 35.333 -230.333 106 -309c72.667 -80.667 165 -121 277 -121zM600.002 1559l160 278h248l163 -278h-137l-147 143l-150 -143h-137zM719.002 -291.004h2c0 38 13 68.667 39 92c25.333 26 56.666 39 93.999 39
c38.667 0 70.667 -12.333 96 -37c24.667 -24 37 -55.333 37 -94c0 -38 -13 -70 -39 -96c-25.333 -26 -56.666 -39 -93.999 -39c-38 0 -70 13.667 -96 41c-26 26 -39 57.333 -39 94z" />
    <glyph glyph-name="obthnang" unicode="&#x1ed9;" horiz-adv-x="1276" 
d="M848 502c0 75.333 -19.002 134.668 -57.002 178.001c-39.333 43.333 -90.666 65 -153.999 65c-65.333 0 -116.666 -21.667 -153.999 -65c-38 -42 -57 -101.333 -57 -178c0 -74.667 18.333 -133.334 55 -176.001c40 -44 92 -66 156 -66s116 22 156 66
c36.667 44 55 102.667 55 176zM1202 502.002c0 -74 -14.333 -142.999 -43 -206.999c-30 -68 -71 -126.667 -123 -176c-58.667 -54.667 -119.334 -94.334 -182.001 -119.001c-65.333 -26 -137.666 -39 -216.999 -39c-80 0 -152.333 13 -217 39
c-66 26 -126.833 65.5 -182.5 118.5s-95.834 111.833 -120.501 176.5c-28.667 62 -43 131 -43 207c0 74 14.333 143.667 43 209c26.667 66 67 124.667 121 176c52.667 50.667 113.334 89.667 182.001 117c65.333 25.333 137.666 38 216.999 38c78.667 0 151 -12.667 217 -38
c68.667 -27.333 129.334 -66.333 182.001 -117c55.333 -50 96.333 -108.667 123 -176c28.667 -65.333 43 -135 43 -209zM351.998 1106l160 278h248l164 -278h-138l-147 143l-150 -143h-137zM480.998 -292.997h2c0 37.333 13 68 39 92c26 26 57.333 39 94 39
c38 0 70.333 -12.333 97 -37c24.667 -24.667 37 -56 37 -94c0 -36.667 -13 -68.667 -39 -96c-26 -26 -57.667 -39 -95 -39c-36.667 0 -68.667 13.667 -96 41c-26 26.667 -39 58 -39 94z" />
    <glyph glyph-name="ochoasac" unicode="&#x1eda;" horiz-adv-x="1753" 
d="M1659 729l-2.00293 2c0 -106.667 -19.333 -205.667 -58 -297c-36.667 -89.333 -93 -171.333 -169 -246c-75.333 -72 -160.666 -127 -255.999 -165c-99.333 -40 -199.333 -60 -300 -60c-100 0 -199.667 20 -299 60c-97.333 38.667 -181.666 93.667 -252.999 165
c-74 70 -130.833 152.5 -170.5 247.5s-59.5 193.5 -59.5 295.5s20 200.333 60 295c39.333 95.333 96 178 170 248c71.333 72.667 155.666 128.667 252.999 168c94.667 38 194.334 57 299.001 57c106.667 0 207.334 -19 302.001 -57
c96.667 -39.333 181.334 -95.333 254.001 -168c51.333 -47.333 90.666 -100.666 117.999 -159.999c36.667 9.33301 66 26.333 88 51s38.167 59.667 48.5 105s15.5 102.666 15.5 171.999v57h147c-2 -172.667 -25.833 -295 -71.5 -367s-103.5 -108 -173.5 -108
c38 -92 57 -190.333 57 -295zM873.997 301c110.667 0 203 41 277 123c70.667 78.667 106 181 106 307c0 122.667 -36 225 -108 307c-74 82 -165.667 123 -275 123c-110.667 0 -202 -41 -274 -123s-108 -184.333 -108 -307c0 -127.333 35.333 -230.333 106 -309
c72.667 -80.667 164.667 -121 276 -121zM1182 1880l-246 -278h-123l145 278h224z" />
    </font>
</defs>
</svg>
